<?xml version="1.0" encoding="UTF-8" standalone="no"?><!DOCTYPE svg PUBLIC "-//W3C//DTD SVG 1.1//EN" "http://www.w3.org/Graphics/SVG/1.1/DTD/svg11.dtd"><svg width="100%" height="100%" viewBox="0 0 2000 1800" version="1.1" xmlns="http://www.w3.org/2000/svg" xmlns:xlink="http://www.w3.org/1999/xlink" xml:space="preserve" xmlns:serif="http://www.serif.com/" style="fill-rule:evenodd;clip-rule:evenodd;stroke-linejoin:round;stroke-miterlimit:2;"><g id="Sans-titre-4--3-.png" serif:id="Sans titre-4 (3).png"><path d="M252.674,133.773c-1.032,-4.742 -6.709,-16.816 -4.728,-17.208c1.098,-0.217 1331.334,-0.856 1335.304,0.336c0.83,0.25 0.334,0.751 7.756,7.57c1.283,1.179 1.073,1.324 15.745,15.043c1.7,1.513 1.476,1.389 3.658,2.138c21.39,20.021 21.26,20.101 23.021,21.26c0.711,0.529 1.423,1.06 2.133,1.589c2.247,2.961 53.794,51.621 61.61,55.879c9.007,12.305 9.895,11.011 22.703,23.485c0.652,0.413 5.229,3.307 7.806,5.653c3.532,4.347 3.578,3.951 7.549,7.874c28.05,25.521 27.672,25.98 30.753,27.101l0.305,1.479c18.144,5.224 222.519,-2.228 221.315,3.82c-0.587,2.946 -12.195,12.586 -13.367,13.559c-0.994,1.279 -9.207,9.346 -9.604,9.665c-8.255,9.773 -13.598,12.478 -7.718,12.91c20.313,1.49 60.288,-2.832 55.579,4.172c-3.643,5.417 -5.198,3.91 -57.914,57.494l-3.939,3.832c-12.637,12.766 -12.513,12.432 -24.915,25.046l-3.92,3.849c-5.642,5.842 -29.991,30.187 -32.608,32.802c-21.257,21.342 -20.937,21.121 -42.308,42.366c-0.549,0.876 -2.67,4.262 -4.925,11.948c-0.668,3.19 -1.336,6.38 -2.004,9.569l-3.639,13.519l-0.205,5.641c-1.818,3.585 -1.702,3.348 -1.98,7.672c-3.16,9.793 -3.33,9.551 -4.614,15.352c-1.231,3.931 -1.196,3.606 -1.797,7.687c-2.489,7.617 -1.869,7.362 -3.98,15.34c-0.187,0.651 -0.31,0.283 -2.798,7.994c-0.695,2.519 -1.389,5.038 -2.084,7.557l-1.106,7.482c-3.102,11.919 -2.997,11.483 -5.716,23.149c-2.726,9.648 -2.602,9.431 -5.057,19.339l0.143,1.961c-1.796,3.631 -1.653,3.374 -1.93,7.674c-0.823,1.9 -1.647,3.8 -2.47,5.7c-0.61,3.221 -1.22,6.442 -1.831,9.663c-2.667,7.664 -2.048,7.593 -3.98,15.339c-0.777,3.185 -1.553,6.372 -2.33,9.557l-2.63,7.904c-0.588,2.618 -1.178,5.234 -1.766,7.852c-0.674,2.531 -1.349,5.062 -2.023,7.593c-0.601,2.588 -1.202,5.175 -1.803,7.762l-2.137,11.489c-1.088,4.789 -1.818,4.339 -2.912,9.378c-2.897,13.333 -4.432,14.858 -5.003,23.218c-0.69,1.939 -1.38,3.877 -2.07,5.817c-0.415,1.274 -0.863,0.8 -1.266,2.036c-0.198,0.607 -0.146,0.573 -1.967,7.733c-0.401,1.833 -0.803,3.666 -1.204,5.499c-0.586,2.566 -1.172,5.131 -1.758,7.696c-0.636,2.569 -1.271,5.137 -1.907,7.706l-0.843,2.101c-0.719,2.558 -1.439,5.114 -2.158,7.672c-3.496,14.517 -3.458,14.471 -3.757,15.441l-4.03,17.312l-0.255,1.879l-0.697,1.692c-0.958,1.475 -1.381,2.124 -5.322,21.328c-1.403,3.844 -0.48,3.86 -1.789,7.68c-0.815,2.541 -1.63,5.084 -2.443,7.626c-0.629,2.575 -1.256,5.151 -1.885,7.726c-2.927,11.072 -4.317,10.147 -13.723,16.46c-5.713,4.114 -5.861,3.489 -11.408,7.875c-5.255,2.132 -17.447,11.156 -18.895,12.227c-0.706,0.54 -1.412,1.081 -2.118,1.62c-6.397,2.168 -5.626,3.078 -9.412,6.108c-9.653,6.006 -9.574,5.649 -19.14,11.708c-44.036,30.544 -44.503,29.698 -48.319,32.357c-0.683,0.587 -1.366,1.173 -2.049,1.76c-5.193,2.435 -5.146,1.935 -9.499,6.008c-5.175,3.979 -22.829,12.334 -28.845,19.192c-1.548,0.349 -7.414,1.675 -16.988,10.233l-0.658,0.883c-11.519,5.964 -28.088,18.033 -30.434,19.742c-0.63,0.669 -1.259,1.339 -1.888,2.009c-5.193,2.719 -5.049,2.346 -9.553,5.876c-7.85,4.045 -7.466,4.505 -8.141,4.849c-22.143,11.319 -19.36,16.426 -13.252,33.588c0.558,3.412 0.643,2.922 2.271,5.719l0.242,1.834c0.034,0.201 0.599,-0.581 1.478,2.073c0.335,1.723 3.166,16.254 6.195,21.057c0.439,1.847 2.621,11.03 6.114,22.924c0.563,1.024 2.351,4.279 4.774,13.805l1.13,5.521l1.914,5.732c1.068,2.614 2.135,5.23 3.203,7.844c0.481,1.381 4.08,11.711 5.82,17.331c2.466,8.28 2.002,7.995 5.692,15.399l1.07,6.11c0.906,1.5 1.008,1.669 6.241,20.994l1.707,3.867c1.895,3.611 1.635,3.412 4.426,6.791c44.499,0.297 44.217,0.171 48.059,0.321c0,0 4.947,5.83 5.376,6.337c0.744,1.246 1.489,2.493 2.233,3.739c5.293,14.621 5.512,14.108 5.944,15.353c0.265,0.778 2.476,7.28 3.921,9.494c3.79,3.709 23.957,-2.13 25.762,13.964c0.07,0.629 0.424,3.783 2.814,7.398c5.417,9.267 13.947,33.701 14.993,36.696c4.633,8.453 15.471,36.685 16.711,39.918c2.276,4.889 2.062,4.598 3.867,9.66c2.978,5.338 6.13,12.696 6.612,13.823c0.208,0.452 6.983,16.009 7.59,17.402c0.772,1.225 1.543,2.451 2.315,3.676c0.313,2.425 0.869,1.938 1.239,4.209c1.268,7.681 14.273,37.046 15.672,40.202c0.8,1.869 1.601,3.736 2.4,5.605c0.557,0.682 1.115,1.364 1.672,2.047c0.462,4.599 1.442,14.344 34.295,46.5c11.943,13.395 11.992,12.947 23.509,26.583c2.159,1.827 3.36,2.844 24.796,25.201c1.267,1.322 2.533,2.644 3.8,3.966c11.795,11.666 22.247,27.164 31.372,32.263c1.654,3.957 1.631,3.912 1.658,3.956c0.175,0.184 0.007,-0.001 15.228,17.47l1.84,1.995c2.599,2.547 5.198,5.094 7.798,7.641l1.878,1.907c18.347,20.187 20.178,18.365 29.509,32.505c-2.203,15.461 -9.257,6.427 -29.328,6.44c-238.004,-0.051 -476.007,-0.103 -714.011,-0.154c-1.579,-2.545 -3.319,-7.505 -3.555,-8.179c-0.288,-1.084 -0.309,-0.618 -3.945,-13.462c-0.703,-1.912 -1.405,-3.824 -2.107,-5.736c-1.491,-3.72 0.673,-5.461 -5.689,-7.874l-25.054,0.476c-3.649,-5.497 -4.548,-11.771 -6.567,-17.434c-2.877,-10.988 -3.393,-10.548 -6.403,-21.528c-3.105,-6.414 -2.185,-6.498 -4.268,-13.319c-0.666,-1.917 -1.331,-3.834 -1.997,-5.751c-0.55,-1.94 -1.099,-3.881 -1.649,-5.821c-1.656,-6.976 -1.907,-6.633 -4.497,-13.345c-1.845,-4.013 -1.998,-7.029 -2.031,-7.663c-3.003,-13.075 -7.211,-26.574 -7.923,-28.86c-2.533,-6.033 -3.786,-12.24 -4.006,-13.331c-0.281,-1.13 -0.451,-0.838 -4.674,-13.787c-0.676,-2.552 -1.352,-5.103 -2.028,-7.654c-0.636,-1.93 -1.271,-3.859 -1.907,-5.789c-0.633,-3.196 -0.578,-2.887 -2.088,-5.73c-0.088,-0.32 -1.104,-4.008 -1.104,-4.008c-2.038,-9.192 -1.864,-8.836 -2.659,-11.417c-1.595,-2.977 -0.794,-2.97 -2.261,-5.701c-4.87,-18.53 -6.012,-17.922 -11.001,-36.696c-0.639,-2.569 -1.278,-5.138 -1.917,-7.708c-0.638,-1.929 -1.276,-3.858 -1.914,-5.787c-0.611,-1.922 -1.222,-3.844 -1.833,-5.766c-3.267,-9.762 -3.17,-9.524 -6.529,-19.116l0.133,-1.929c-3.956,-13.129 -2.57,-13.61 -6.591,-17.343c-0.012,-1.386 -0.024,-2.77 -0.036,-4.156c-3.612,-6.069 -1.552,-6.588 -4.185,-13.313c-0.225,-0.833 -1.398,-8.863 -2.751,-11.238c-1.994,-3.502 -1.118,-3.589 -2.365,-7.709l-1.968,-7.731c-2.832,-5.983 -4.421,-12.502 -4.693,-13.621l-2.117,-7.689c-0.654,-1.917 -1.308,-3.836 -1.961,-5.753c-1.467,-3.353 -0.632,-3.406 -3.003,-5.884l0.511,-1.689c-2.124,-5.011 -2.84,-15.007 -6.228,-19.558c-0.177,-0.655 -0.354,-1.309 -0.53,-1.965c-0.63,-2.535 -1.26,-5.068 -1.89,-7.602c-0.57,-1.915 -1.14,-3.829 -1.708,-5.744c-0.485,-2.443 -0.972,-4.888 -1.457,-7.331c-0.658,-1.935 -1.314,-3.869 -1.972,-5.804c-0.143,-0.466 -1.788,-5.825 -1.788,-5.825c-0.264,-0.779 -2.207,-6.533 -3.073,-9.812c-0.639,-1.921 -1.279,-3.841 -1.919,-5.761c-0.556,-3.221 -0.536,-2.919 -1.69,-5.819c-1.413,-5.101 -6.367,-19.453 -8.711,-28.631c-0.682,-2.532 -1.364,-5.064 -2.046,-7.597c-2.344,-6.389 -5.396,-17.73 -5.814,-19.286c-0.183,-0.653 -0.305,-0.236 -2.699,-8.04c-0.596,-1.915 -1.192,-3.83 -1.788,-5.745c-0.104,-0.485 -0.765,-3.587 -2.217,-5.794c-3.946,-3.052 -114.725,-2.966 -121.542,-0.079c-0.652,0.966 0.424,1.071 -0.123,1.882c-0.125,0.185 0,0 -1.951,1.999c-1.194,5.046 -1.516,4.721 -2.704,9.938c-0.703,3.204 -1.404,6.407 -2.107,9.611l-2.192,5.687c-2.425,12.874 -2.395,12.407 -5.552,24.98l0.082,3.838c-0.68,1.96 -1.359,3.921 -2.039,5.882c-9.193,35.122 -10.581,35.452 -8.565,38.702c2.893,1.522 2.904,-0.243 40.841,1.316c5.057,0.208 1.959,2.6 0.728,11.991l-2.205,7.616c-0.014,0.067 -0.002,0 -2.184,13.336c0.057,8.358 36.859,-0.229 38.805,7.77l-0.99,3.626c-0.335,1.333 -0.73,0.933 -1.055,2.224c-0.155,0.615 -0.127,0.573 -1.723,7.731c-0.678,3.201 -1.357,6.403 -2.036,9.605c-1.313,5.092 -2.625,10.184 -3.938,15.276l0.136,1.91c-3.48,10.492 -3.346,10.284 -6.116,21.219l0.072,1.892c-0.634,1.957 -1.27,3.913 -1.905,5.87c-2.164,7.858 -6.639,21.36 -7.25,23.206c-3.824,18.256 -5.303,21.266 -6.142,22.973c-0.579,2.581 -1.158,5.162 -1.737,7.742c-0.592,2.569 -1.182,5.138 -1.774,7.706l-2.202,7.609c-3.666,16.771 -4.252,16.279 -8.084,32.662c-1.033,2.63 -2.066,5.262 -3.1,7.893c-0.326,2.489 -0.653,4.979 -0.979,7.468c-0.439,1.257 -0.733,0.874 -1.158,2.092c-0.159,0.458 -0.124,0.431 -1.668,5.82c-0.68,1.921 -1.359,3.842 -2.039,5.762l-1.053,7.414c-0.913,3.272 -1.826,6.543 -2.738,9.814c-0.665,1.998 -1.33,3.998 -1.995,5.996c-0.305,2.016 -1.104,7.3 -5.892,24.788l0.065,3.734c-0.654,1.999 -1.307,3.998 -1.961,5.997l-0.201,1.809c-1.454,4.457 -2.908,8.912 -4.362,13.368c-0.242,1.094 -1.714,7.757 -3.678,13.52l-0.077,1.88c-0.771,2.537 -1.542,5.074 -2.313,7.611l-2.587,8.007c-0.715,1.913 -1.432,3.824 -2.147,5.737c-3.705,17.235 -4.639,24.4 -4.919,26.54c-0.29,1.382 -0.581,2.763 -0.871,4.146c-4.577,7.384 -3.142,7.494 -5.981,21.202c-0.127,0.622 -1.099,5.39 -2.08,7.649c-1.605,2.161 -1.882,6.995 -1.917,7.622c-2.257,7.89 -2.143,7.481 -4.29,15.368c-4.648,3.177 -5.263,2.493 -681.132,2.545c-4.883,0 -4.517,-0.193 -9.714,-0.416c0.324,-2.135 -0.112,-1.794 0.223,-4.005c0.095,-0.623 0.111,-0.572 1.502,-7.73l-0.192,-1.983c2.567,-4.364 3.089,-4.143 3.956,-13.419c0.705,-1.907 1.41,-3.814 2.114,-5.721c-3.52,-3.975 -37.192,-1.694 -46.095,-1.461l0.343,-6.198c2.144,-9.565 4.23,-16.24 4.666,-17.633c1.713,-7.884 0.833,-7.755 4.208,-15.22c0.586,-2.576 1.172,-5.152 1.759,-7.728c0.291,-1.339 1.085,-8.559 1.167,-9.306c0.022,-0.194 0,0 1.005,-2.229c0.593,-0.775 0.158,-0.868 4.146,-11.472l-0.244,-3.844c1.356,-3.644 2.578,-3.097 4.14,-13.464c0.781,-2.532 1.563,-5.064 2.344,-7.595l2.605,-8c0.703,-1.912 1.405,-3.822 2.107,-5.734c0.634,-3.852 1.268,-7.705 1.902,-11.557l1.267,-5.45c0.86,-4.567 1.72,-9.134 2.581,-13.701c1.004,-1.855 2.009,-3.71 3.012,-5.565c1.008,-4.567 2.014,-9.134 3.022,-13.701c0.064,-0.779 0.143,-1.756 2.021,-9.563c1.596,-2.693 1.836,-2.394 2.249,-5.728c0.714,-2.551 1.427,-5.101 2.142,-7.652c0.25,-1.092 1.769,-7.735 3.686,-13.511c0.778,-3.172 1.557,-6.344 2.335,-9.516l2.541,-7.945l1.293,-5.457c3.418,-13.781 3.844,-13.405 6.533,-27.311l0.184,-1.873c1.818,-2.142 5.589,-17.63 5.969,-19.192c1.483,-4.094 1.805,-8.747 1.86,-9.521c0.859,-1.91 1.719,-3.82 2.577,-5.73c5.786,-23.193 5.928,-23.46 6.916,-25.313c0.21,-0.394 0,0 1.119,-5.467c3.788,-15.088 5.743,-19.743 6.435,-21.391c0.832,-3.948 0.274,-3.689 1.062,-7.426c0.201,-0.951 0.208,-0.876 2.813,-11.825l0.24,-1.879c2.05,-2.633 1.413,-2.721 6.103,-23.006c1.605,-3.708 1.478,-3.476 1.611,-7.646c0.69,-1.96 1.381,-3.921 2.071,-5.882c7.171,-17.127 12.342,-10.147 31.075,-10.184c30.209,-0.06 29.868,1.663 59.79,-0.728c3.908,-3.406 3.081,-3.75 4.913,-8.391c1.344,-5.759 2.688,-11.518 4.032,-17.276c0.161,-0.714 7.093,-21.746 7.918,-30.675c2.448,-6.768 1.775,-6.694 4.035,-13.52l0.3,-1.843l0.821,-0.343c0.467,-1.803 0.934,-3.606 1.402,-5.408c0.178,-0.796 0.264,-0.444 2.621,-9.858c0.37,-2.501 0.74,-5.002 1.111,-7.503c0.964,-3.241 1.927,-6.481 2.89,-9.722c0.814,-2.711 0.377,-2.558 1.237,-5.423c0.195,-0.651 0.192,-0.599 2.597,-8.08c1.976,-9.054 1.7,-8.692 4.001,-17.296l0.254,-1.898c2.827,-3.902 4.424,-17.238 4.608,-18.773c0.34,-1.412 0.678,-2.825 1.018,-4.237c1.452,-3.935 1.576,-3.644 2.157,-7.736c0.823,-2.529 1.645,-5.057 2.467,-7.586c0.638,-2.581 1.276,-5.16 1.913,-7.741c0.661,-2.53 1.322,-5.06 1.983,-7.59c1.254,-4.193 1.4,-3.727 2.656,-8.03l1.796,-7.597c0.787,-3.212 1.574,-6.424 2.36,-9.635c0.527,-1.355 1.054,-2.709 1.582,-4.062c0.123,-0.766 0.245,-0.418 1.961,-9.493c1.392,-7.83 2.047,-7.406 4.097,-15.236l-0.142,-3.837c5.404,-14.38 3.201,-14.704 8.244,-28.869c0.357,-1.415 0.561,-0.875 4.948,-17.551l1.397,-5.349l2.578,-8.017c0.651,-3.221 1.3,-6.441 1.951,-9.662l2.013,-7.594c0.346,-1.075 2.196,-6.825 3.721,-13.615c0.809,-4.084 0.67,-3.911 2.185,-7.611l2.095,-11.49c4.22,-8.582 4.574,-18.308 8.162,-30.678c1.271,-3.888 1.401,-3.416 1.898,-7.721c2.367,-7.896 2.771,-7.353 5.162,-15.485c1.862,-7.693 3.724,-15.386 5.586,-23.079c4.113,-18.587 4.883,-18.081 8.225,-36.547c0.594,-1.912 1.188,-3.823 1.781,-5.735c0.788,-1.906 1.576,-3.812 2.365,-5.717c0.729,-3.194 1.459,-6.389 2.189,-9.585c2.313,-7.667 2.106,-7.289 4.028,-15.347c0.645,-2.582 1.291,-5.163 1.936,-7.745c0.787,-2.072 1.574,-4.146 2.36,-6.218c0.684,-3.167 1.368,-6.335 2.053,-9.501l1.903,-7.604c0.745,-3.188 1.49,-6.375 2.235,-9.563c0.298,-2.448 0.596,-4.897 0.895,-7.345c0.368,-0.762 0.735,-1.524 1.103,-2.286l0.562,-1.781c0.982,-1.269 1.58,-2.043 5.424,-19.317l-0.07,-1.915c0.237,-0.586 -0.341,-0.571 1.868,-7.673c4.542,-13.416 4.482,-13.217 4.534,-13.424l-0.187,-1.967c0.634,-1.909 1.269,-3.819 1.903,-5.729c0.8,-3.182 1.598,-6.363 2.398,-9.545c0.645,-2.58 1.289,-5.16 1.934,-7.74c0.811,-2.679 1.623,-5.358 2.434,-8.038c0.74,-2.523 1.479,-5.045 2.219,-7.568c0.563,-2.583 1.126,-5.165 1.689,-7.748c0.65,-3.201 1.299,-6.403 1.949,-9.604c0.646,-2.566 1.291,-5.131 1.937,-7.697l0.114,-1.782c5.788,-14.162 5.588,-14.608 0.125,-28.726c-0.407,-1.086 -2.974,-7.942 -4.476,-13.786c-1.868,-3.503 -1.271,-3.849 -4.705,-5.263c-7.715,0.109 -15.429,0.217 -23.145,0.326c-0.697,-0.736 -0.069,-0.93 -4.715,-11.771c-2.983,-5.062 -2.604,-4.888 -4.292,-10.183c-0.814,-2.517 -1.626,-5.034 -2.44,-7.55c-1.668,-3.973 -5.532,-15.856 -5.984,-17.245c-0.563,-1.309 -1.126,-2.618 -1.689,-3.927c-4.938,-13.057 -8.52,-24.931 -9.182,-27.125c-0.335,-0.859 -0.087,-0.747 -3.275,-11.05c-1.189,-4.539 -1.434,-3.999 -2.607,-8.175c-0.617,-0.749 -0.602,-0.732 -4.242,-11.365l-0.373,-1.762c-1.48,-2.115 -3.146,-7.237 -3.357,-7.889c-1.217,-3.493 -2.076,-11.467 -5.932,-15.35l-0.91,-2.142c-0.172,-0.67 -0.343,-1.339 -0.515,-2.01c-0.191,-3.011 -1.483,-2.216 -10.78,-36.135c-2.533,-5.875 -2.088,-5.789 -4.668,-11.81c-0.639,-1.921 -1.279,-3.841 -1.919,-5.761c-0.809,-1.877 -1.618,-3.755 -2.426,-5.632c-3.672,-12.01 -3.089,-11.761 -8.561,-23.227l-0.352,-2.13c-4.83,-15.48 -5.714,-14.918 -9.773,-30.58c-1.802,-4.021 -3.678,-10.642 -3.943,-11.584l-1.937,-5.743c-0.796,-1.876 -1.594,-3.753 -2.39,-5.628c-0.31,-0.922 -1.94,-5.774 -3.716,-11.586c-2.023,-5.262 -4.335,-14.606 -6.236,-17.212l-0.773,-2.369c-0.629,-1.903 -1.257,-3.807 -1.886,-5.71c-1.637,-4.922 -0.896,-4.68 -2.487,-9.404c-0.208,-0.618 -2.645,-6.835 -2.878,-7.428c-1.164,-3.881 -4.757,-13.022 -5.869,-19.317c-2.917,-4.613 -8.322,-21.292 -8.935,-23.183c-1.787,-4.972 -3.897,-14.251 -5.973,-17.174c-1.091,-2.308 -2.448,-7.383 -2.622,-8.037l1011.918,435.024c-2.996,-3.331 -3.871,-2.583 -98.681,-2.613c-14.012,-0.005 -164.561,-0.051 -175.15,0.022c-10.94,0.076 -1.036,11.312 -11.191,16.154l0.124,3.767c1.358,6.095 -0.163,5.797 -2.751,13.323l-1.003,3.975c0.238,1.862 0.476,3.724 0.714,5.586c-0.651,1.924 -1.3,3.849 -1.951,5.774c-1.515,3.683 -1.175,3.364 -1.891,7.701c-1.693,3.83 -1.198,3.575 -1.794,7.899c-3.04,7.624 -9.505,35.289 -10.227,38.384c0.396,4.421 0.223,4.734 -4.329,5.961l0.867,1.658c0.653,19.079 -3.504,17.79 -7.46,26.971c1.82,10.162 6.504,4.484 29.383,4.492c203.326,0.07 204.519,0.53 208.078,-3.651c21.19,-11.282 20.823,-11.854 22.87,-12.191c1.816,-8.355 5.967,-4.862 11.738,-11.359c3.463,-3.898 7.193,0.913 15.837,-11.296c0.196,-0.277 0,0 3.686,-2.108c0.298,-0.784 0.595,-1.566 0.893,-2.35c-0.339,-3.149 -0.676,-6.298 -1.015,-9.447c3.194,-8.858 -0.238,-11.495 6.875,-13.6c0.06,-0.78 0.153,-0.707 2.021,-9.574c-0.732,-2.894 -0.662,-2.626 0.476,-5.673c0.17,-1.872 0.341,-3.743 0.511,-5.616c1.645,-3.07 1.767,-2.619 3.436,-5.878c0.548,-1.318 1.096,-2.635 1.643,-3.953c-2.685,-8.6 2.967,-12.811 3.866,-13.482l0.216,-1.895c-1.189,-5.2 -1.512,-5.007 0.784,-9.617c0.024,-1.944 0.049,-3.889 0.073,-5.833c1.135,-6.296 0.875,-6.025 3.353,-11.531l-1011.918,-435.024l697.193,569.586c-2.355,5.482 -2.421,5.375 -2.578,5.863c3.719,2.86 4.26,2.53 107.011,2.457c123.475,-0.087 124.084,1.447 136.981,-5.633l-3.953,-1.847c-3.56,4.183 -4.752,3.723 -208.078,3.651c-22.879,-0.008 -27.562,5.67 -29.383,-4.492l-697.193,-569.586l736.229,429.776c-10.655,4.721 -6.857,7.598 -9.333,18.812c10.155,-4.841 0.251,-16.077 11.191,-16.154c10.589,-0.074 161.138,-0.027 175.15,-0.022c94.811,0.03 95.686,-0.718 98.681,2.613c0.563,-1.383 1.125,-2.768 1.687,-4.151c-2.039,-0.451 -1.691,-0.654 -4.086,-0.37c-251.717,1.036 -252.015,4.307 -273.291,-0.727l-736.229,-429.776l988.783,533.473c-3.686,2.108 -3.489,1.831 -3.686,2.108c-8.645,12.209 -12.374,7.397 -15.837,11.296c-5.769,6.495 -9.922,3.003 -11.738,11.359l0.005,1.946c23.178,-17.404 28.682,-14.667 31.255,-26.708l-988.783,-533.473l715.739,490.963c-0.688,3.063 -7.242,32.236 -9.172,38.154l1.55,5.878c0.723,-3.094 7.189,-30.76 10.227,-38.384c-0.868,-1.883 -1.737,-3.765 -2.605,-5.649l-715.739,-490.963l704.654,542.614l-3.178,4.021c-3.861,16.017 -3.665,15.932 -4.123,17.277c-0.053,1.891 -0.106,3.783 -0.159,5.673c3.956,-9.182 8.114,-7.894 7.46,-26.971l-704.654,-542.614l1013.605,430.873c-0.563,1.383 -1.125,2.768 -1.687,4.151c-2.478,5.507 -2.218,5.234 -3.353,11.531c-0.024,1.944 -0.049,3.889 -0.073,5.833c-2.294,4.609 -1.973,4.417 -0.784,9.617c8.737,-26.461 7.214,-28.966 5.897,-31.132l-1013.605,-430.873l995.538,508.077c-7.114,2.105 -3.681,4.742 -6.875,13.6c1.029,3.814 0.922,3.517 1.029,3.814c0.629,1.753 0.834,1.284 1.583,3.372c1.335,-7.097 3.909,-19.126 4.264,-20.786l-995.538,-508.077l724.553,458.11c-2.671,8.522 -2.1,8.236 -4.343,17.237c0.602,2.941 0.458,2.782 1.82,5.663c0.651,-1.924 1.3,-3.849 1.951,-5.774c-0.238,-1.862 -0.476,-3.724 -0.714,-5.586l1.003,-3.975c0.095,-2.522 0.188,-5.045 0.283,-7.567l-724.553,-458.11l706.567,529.116c-0.927,3.947 -1.853,7.893 -2.78,11.839c4.552,-1.227 4.726,-1.541 4.329,-5.961l-1.55,-5.878l-706.567,-529.116l1007.492,463.901c-0.899,0.67 -6.551,4.882 -3.866,13.482c2.123,-6.767 1.962,-6.332 3.866,-13.482l-1007.492,-463.901l717.595,483.24c-0.618,2.574 -1.237,5.148 -1.856,7.723c0.868,1.883 1.737,3.765 2.605,5.649c0.596,-4.325 0.101,-4.069 1.794,-7.899c-0.155,-0.458 -0.284,-0.248 -2.544,-5.471l-717.595,-483.24l720.209,475.348l-2.614,7.893c2.259,5.223 2.389,5.014 2.544,5.471c0.715,-4.336 0.377,-4.016 1.891,-7.701c-1.364,-2.881 -1.218,-2.723 -1.82,-5.663l-720.209,-475.348l727.02,452.354c-0.823,1.919 -1.646,3.838 -2.467,5.757c-0.095,2.522 -0.188,5.045 -0.283,7.567c2.588,-7.525 4.109,-7.227 2.751,-13.323l-727.02,-452.354l1001.982,481.335c-1.669,3.259 -1.791,2.808 -3.436,5.878c1.096,4.253 1.174,4.06 1.255,5.563c1.313,-3.801 1.432,-3.535 2.044,-7.674l0.136,-3.765l-1001.982,-481.335l-0.001,-0.008Z" style="fill:#152033;"/><path d="M443.857,597.587c21.742,-83.163 22.744,-82.92 23.643,-90.336c0.848,-6.997 -54.137,-2.486 -59.79,-3.819c-4.759,-1.122 -79.273,-229.026 -125.123,-357.953c-2.873,-8.08 3.094,-4.458 11.597,-4.444c1173.961,1.975 1173.861,-1.608 1275.923,-0.057c5.838,0.089 184.231,169.896 190.599,171.082c1.975,0.368 157.425,0.333 165.746,0.037c4.702,-0.166 -1.092,5.061 -1.422,5.358c-4.48,4.043 -125.181,125.691 -129.528,130.433c-8.648,9.437 -41.869,158.485 -72.131,272.803c-32.922,124.37 -26.281,129.211 -45.016,141.524c-226.548,148.904 -227.383,147.377 -246.281,161.442c-7.608,5.662 68.589,227.602 75.301,247.151c1.843,5.368 48.891,2.466 74.146,2.917c8.831,0.157 85.954,198.279 93.253,206.515c117.976,133.112 121.754,129.501 131.722,141.313c6.345,7.518 -4.801,3.06 -122.935,3.008c-489.48,-0.215 -552.415,0.43 -554.577,-0.339c-4.398,-1.564 -99.175,-327.152 -134.175,-439.676c-19.264,-61.929 -28.99,-101.137 -32.901,-101.859c-12.11,-2.235 -12.199,-0.594 -153.926,-0.35c-12.074,0.021 -21.841,-7.465 -27.949,15.895c-3.579,13.684 -42.556,162.727 -44.463,171.125c-2.115,9.314 84.809,0.723 85.95,5.667c0.593,2.568 -30.552,118.539 -33.312,128.819c-54.053,201.272 -54.457,220.814 -62.985,220.841c-50.798,0.158 -491.201,1.534 -634.984,-0.073c-1.633,-0.018 -4.866,-0.647 0.329,-20.41c6.882,-26.18 75.58,-287.523 86.824,-327.039c2.433,-8.549 86.042,-0.012 90.685,-5.174c2.329,-2.589 174.219,-668.105 175.781,-674.403l820.734,-28.79c-2.996,-3.331 -3.871,-2.583 -98.681,-2.613c-14.012,-0.005 -164.561,-0.051 -175.15,0.022c-10.94,0.076 -1.036,11.312 -11.191,16.154l0.124,3.767c1.358,6.095 -0.163,5.797 -2.751,13.323l-1.003,3.975c0.238,1.862 0.476,3.724 0.714,5.586c-0.651,1.924 -1.3,3.849 -1.951,5.774c-1.515,3.683 -1.175,3.364 -1.891,7.701c-1.693,3.83 -1.198,3.575 -1.794,7.899c-3.04,7.624 -9.505,35.289 -10.227,38.384c0.396,4.421 0.223,4.734 -4.329,5.961l0.867,1.658c0.653,19.079 -3.504,17.79 -7.46,26.971c1.82,10.162 6.504,4.484 29.383,4.492c203.326,0.07 204.519,0.53 208.078,-3.651c21.19,-11.282 20.823,-11.854 22.87,-12.191c1.816,-8.355 5.967,-4.862 11.738,-11.359c3.463,-3.898 7.193,0.913 15.837,-11.296c0.196,-0.277 0,0 3.686,-2.108c0.298,-0.784 0.595,-1.566 0.893,-2.35c-0.339,-3.149 -0.676,-6.298 -1.015,-9.447c3.194,-8.858 -0.238,-11.495 6.875,-13.6c0.06,-0.78 0.153,-0.707 2.021,-9.574c-0.732,-2.894 -0.662,-2.626 0.476,-5.673c0.17,-1.872 0.341,-3.743 0.511,-5.616c1.645,-3.07 1.767,-2.619 3.436,-5.878c0.548,-1.318 1.096,-2.635 1.643,-3.953c-2.685,-8.6 2.967,-12.811 3.866,-13.482l0.216,-1.895c-1.189,-5.2 -1.512,-5.007 0.784,-9.617c0.024,-1.944 0.049,-3.889 0.073,-5.833c1.135,-6.296 0.875,-6.025 3.353,-11.531l-820.734,28.79l506.009,105.772c-2.355,5.482 -2.421,5.375 -2.578,5.863c3.719,2.86 4.26,2.53 107.011,2.457c123.475,-0.087 124.084,1.447 136.981,-5.633l-3.953,-1.847c-3.56,4.183 -4.752,3.723 -208.078,3.651c-22.879,-0.008 -27.562,5.67 -29.383,-4.492l-506.009,-105.772l545.045,-34.039c-10.655,4.721 -6.857,7.598 -9.333,18.812c10.155,-4.841 0.251,-16.077 11.191,-16.154c10.589,-0.074 161.138,-0.027 175.15,-0.022c94.811,0.03 95.686,-0.718 98.681,2.613c0.563,-1.383 1.125,-2.768 1.687,-4.151c-2.039,-0.451 -1.691,-0.654 -4.086,-0.37c-251.717,1.036 -252.015,4.307 -273.291,-0.727l-545.045,34.039l797.6,69.658c-3.686,2.108 -3.489,1.831 -3.686,2.108c-8.645,12.209 -12.374,7.397 -15.837,11.296c-5.769,6.495 -9.922,3.003 -11.738,11.359l0.005,1.946c23.178,-17.404 28.682,-14.667 31.255,-26.708l-797.6,-69.658l524.555,27.148c-0.688,3.063 -7.242,32.236 -9.172,38.154l1.55,5.878c0.723,-3.094 7.189,-30.76 10.227,-38.384c-0.868,-1.883 -1.737,-3.765 -2.605,-5.649l-524.555,-27.148l513.471,78.799l-3.178,4.021c-3.861,16.017 -3.665,15.932 -4.123,17.277c-0.053,1.891 -0.106,3.783 -0.159,5.673c3.956,-9.182 8.114,-7.894 7.46,-26.971l-513.471,-78.799l822.421,-32.941c-0.563,1.383 -1.125,2.768 -1.687,4.151c-2.478,5.507 -2.218,5.234 -3.353,11.531c-0.024,1.944 -0.049,3.889 -0.073,5.833c-2.294,4.609 -1.973,4.417 -0.784,9.617c8.737,-26.461 7.214,-28.966 5.897,-31.132l-822.421,32.941l804.354,44.262c-7.114,2.105 -3.681,4.742 -6.875,13.6c1.029,3.814 0.922,3.517 1.029,3.814c0.629,1.753 0.834,1.284 1.583,3.372c1.335,-7.097 3.909,-19.126 4.264,-20.786l-804.354,-44.262l533.368,-5.704c-2.671,8.522 -2.1,8.236 -4.343,17.237c0.602,2.941 0.458,2.782 1.82,5.663c0.651,-1.924 1.3,-3.849 1.951,-5.774c-0.238,-1.862 -0.476,-3.724 -0.714,-5.586l1.003,-3.975c0.095,-2.522 0.188,-5.045 0.283,-7.567l-533.368,5.704l515.383,65.301c-0.927,3.947 -1.853,7.893 -2.78,11.839c4.552,-1.227 4.726,-1.541 4.329,-5.961l-1.55,-5.878l-515.383,-65.301l816.309,0.087c-0.899,0.67 -6.551,4.882 -3.866,13.482c2.123,-6.767 1.962,-6.332 3.866,-13.482l-816.309,-0.087l526.411,19.426c-0.618,2.574 -1.237,5.148 -1.856,7.723c0.868,1.883 1.737,3.765 2.605,5.649c0.596,-4.325 0.101,-4.069 1.794,-7.899c-0.155,-0.458 -0.284,-0.248 -2.544,-5.471l-526.411,-19.426l529.026,11.533l-2.614,7.893c2.259,5.223 2.389,5.014 2.544,5.471c0.715,-4.336 0.377,-4.016 1.891,-7.701c-1.364,-2.881 -1.218,-2.723 -1.82,-5.663l-529.026,-11.533l535.836,-11.46c-0.823,1.919 -1.646,3.838 -2.467,5.757c-0.095,2.522 -0.188,5.045 -0.283,7.567c2.588,-7.525 4.109,-7.227 2.751,-13.323l-535.836,11.46l810.798,17.521c-1.669,3.259 -1.791,2.808 -3.436,5.878c1.096,4.253 1.174,4.06 1.255,5.563c1.313,-3.801 1.432,-3.535 2.044,-7.674l0.136,-3.765l-810.798,-17.521l0,-0.002Z" style="fill:#fab700;"/><path d="M555.698,455.741c-17.311,1.731 -114.819,2.158 -117.163,-0.482c-0.599,-0.675 -0.481,-0.787 -87.86,-254.208c-4.606,-13.357 -1.799,-13.424 -0.722,-13.449c2.173,-0.052 1199.129,0.022 1200.831,0.065c10.421,0.262 185.584,171.451 196.257,171.725c65.828,1.691 71.895,-1.344 68.758,3.182c-4.151,5.988 -5.825,4.349 -64.267,64.53c-2.96,3.048 -2.086,3.532 -63.628,243.849c-39.642,154.799 -39.849,155.763 -47.26,160.715c-130.431,87.157 -131.835,84.3 -262.473,170.991c-7.592,5.038 -2.122,7.746 37.135,134.067c26.59,85.562 57.047,180.422 57.066,180.468c3.163,8.07 78.738,-1.719 83.364,6.442c2.479,4.372 75.506,180.386 82.153,187.625c56.549,61.588 64.139,65.717 57.171,65.708c-487.041,-0.662 -486.802,-0.148 -529.133,-0.285c-3.386,-0.012 -4.377,-1.123 -27.317,-76.364c-22.406,-73.488 -138.247,-463.491 -141.785,-464.412c-1.385,-0.361 -245.544,-1.95 -248.282,0.74c-3.75,3.682 -1.073,4.743 -72.629,275.188c-1.576,5.96 -3.17,8.547 3.172,8.616c77.884,0.851 83.319,-3.71 81.985,2.715c-9.677,46.626 -58.38,222.873 -63.716,242.183c-3.099,11.212 -4.827,11.287 -16.371,11.261c-530.404,-1.207 -534.27,0.492 -533.392,-3.296c1.257,-5.423 63.797,-243.172 66.881,-250.717c2.484,-6.076 87.894,1.727 90.126,-4.824c11.294,-33.141 214.564,-842.38 222.808,-846.403c17.695,-8.636 30.496,-11.404 28.29,-15.631l708.895,113.056c-2.996,-3.331 -3.871,-2.583 -98.681,-2.613c-14.012,-0.005 -164.561,-0.051 -175.15,0.022c-10.94,0.076 -1.036,11.312 -11.191,16.154l0.124,3.767c1.358,6.095 -0.163,5.797 -2.751,13.323l-1.003,3.975c0.238,1.862 0.476,3.724 0.714,5.586c-0.651,1.924 -1.3,3.849 -1.951,5.774c-1.515,3.683 -1.175,3.364 -1.891,7.701c-1.693,3.83 -1.198,3.575 -1.794,7.899c-3.04,7.624 -9.505,35.289 -10.227,38.384c0.396,4.421 0.223,4.734 -4.329,5.961l0.867,1.658c0.653,19.079 -3.504,17.79 -7.46,26.971c1.82,10.162 6.504,4.484 29.383,4.492c203.326,0.07 204.519,0.53 208.078,-3.651c21.19,-11.282 20.823,-11.854 22.87,-12.191c1.816,-8.355 5.967,-4.862 11.738,-11.359c3.463,-3.898 7.193,0.913 15.837,-11.296c0.196,-0.277 0,0 3.686,-2.108c0.298,-0.784 0.595,-1.566 0.893,-2.35c-0.339,-3.149 -0.676,-6.298 -1.015,-9.447c3.194,-8.858 -0.238,-11.495 6.875,-13.6c0.06,-0.78 0.153,-0.707 2.021,-9.574c-0.732,-2.894 -0.662,-2.626 0.476,-5.673c0.17,-1.872 0.341,-3.743 0.511,-5.616c1.645,-3.07 1.767,-2.619 3.436,-5.878c0.548,-1.318 1.096,-2.635 1.643,-3.953c-2.685,-8.6 2.967,-12.811 3.866,-13.482l0.216,-1.895c-1.189,-5.2 -1.512,-5.007 0.784,-9.617c0.024,-1.944 0.049,-3.889 0.073,-5.833c1.135,-6.296 0.875,-6.025 3.353,-11.531l-708.895,-113.056l394.17,247.617c-2.355,5.482 -2.421,5.375 -2.578,5.863c3.719,2.86 4.26,2.53 107.011,2.457c123.475,-0.087 124.084,1.447 136.981,-5.633l-3.953,-1.847c-3.56,4.183 -4.752,3.723 -208.078,3.651c-22.879,-0.008 -27.562,5.67 -29.383,-4.492l-394.17,-247.617l433.205,107.808c-10.655,4.721 -6.857,7.598 -9.333,18.812c10.155,-4.841 0.251,-16.077 11.191,-16.154c10.589,-0.074 161.138,-0.027 175.15,-0.022c94.811,0.03 95.686,-0.718 98.681,2.613c0.563,-1.383 1.125,-2.768 1.687,-4.151c-2.039,-0.451 -1.691,-0.654 -4.086,-0.37c-251.717,1.036 -252.015,4.307 -273.291,-0.727l-433.205,-107.808l685.76,211.505c-3.686,2.108 -3.489,1.831 -3.686,2.108c-8.645,12.209 -12.374,7.397 -15.837,11.296c-5.769,6.495 -9.922,3.003 -11.738,11.359l0.005,1.946c23.178,-17.404 28.682,-14.667 31.255,-26.708l-685.76,-211.505l412.715,168.994c-0.688,3.063 -7.242,32.236 -9.172,38.154l1.55,5.878c0.723,-3.094 7.189,-30.76 10.227,-38.384c-0.868,-1.883 -1.737,-3.765 -2.605,-5.649l-412.715,-168.994l401.63,220.646l-3.178,4.021c-3.861,16.017 -3.665,15.932 -4.123,17.277c-0.053,1.891 -0.106,3.783 -0.159,5.673c3.956,-9.182 8.114,-7.894 7.46,-26.971l-401.63,-220.646l710.581,108.905c-0.563,1.383 -1.125,2.768 -1.687,4.151c-2.478,5.507 -2.218,5.234 -3.353,11.531c-0.024,1.944 -0.049,3.889 -0.073,5.833c-2.294,4.609 -1.973,4.417 -0.784,9.617c8.737,-26.461 7.214,-28.966 5.897,-31.132l-710.581,-108.905l692.513,186.108c-7.114,2.105 -3.681,4.742 -6.875,13.6c1.029,3.814 0.922,3.517 1.029,3.814c0.629,1.753 0.834,1.284 1.583,3.372c1.335,-7.097 3.909,-19.126 4.264,-20.786l-692.513,-186.108l421.528,136.142c-2.671,8.522 -2.1,8.236 -4.343,17.237c0.602,2.941 0.458,2.782 1.82,5.663c0.651,-1.924 1.3,-3.849 1.951,-5.774c-0.238,-1.862 -0.476,-3.724 -0.714,-5.586l1.003,-3.975c0.095,-2.522 0.188,-5.045 0.283,-7.567l-421.528,-136.142l403.543,207.148c-0.927,3.947 -1.853,7.893 -2.78,11.839c4.552,-1.227 4.726,-1.541 4.329,-5.961l-1.55,-5.878l-403.543,-207.148l704.468,141.932c-0.899,0.67 -6.551,4.882 -3.866,13.482c2.123,-6.767 1.962,-6.332 3.866,-13.482l-704.468,-141.932l414.571,161.271c-0.618,2.574 -1.237,5.148 -1.856,7.723c0.868,1.883 1.737,3.765 2.605,5.649c0.596,-4.325 0.101,-4.069 1.794,-7.899c-0.155,-0.458 -0.284,-0.248 -2.544,-5.471l-414.571,-161.271l417.185,153.379l-2.614,7.893c2.259,5.223 2.389,5.014 2.544,5.471c0.715,-4.336 0.377,-4.016 1.891,-7.701c-1.364,-2.881 -1.218,-2.723 -1.82,-5.663l-417.185,-153.379l423.996,130.385c-0.823,1.919 -1.646,3.838 -2.467,5.757c-0.095,2.522 -0.188,5.045 -0.283,7.567c2.588,-7.525 4.109,-7.227 2.751,-13.323l-423.996,-130.385l698.959,159.366c-1.669,3.259 -1.791,2.808 -3.436,5.878c1.096,4.253 1.174,4.06 1.255,5.563c1.313,-3.801 1.432,-3.535 2.044,-7.674l0.136,-3.765l-698.959,-159.366l0,-0.002Z" style="fill:#c68c00;"/><path d="M1731.824,389.37c9.327,-0.119 11.735,0.091 11.506,2.431c-1.411,14.45 -8.676,9.304 -18.476,20c-7.268,7.934 -67.202,258.249 -102.481,389.978c-1.957,7.304 -4.24,6.049 -126.839,87.316c-93.16,61.752 -158.379,101.003 -157.997,105.017c0.956,10.025 101.902,324.12 110.941,352.248c3.103,9.654 7.241,4.537 81.154,5.189c5.863,0.052 11.409,17.455 24.158,47.016c48.99,113.601 45.412,115.774 69.198,142.704c3.598,4.073 -9.717,3.957 -10.625,3.949c-136.811,-1.196 -425.723,3.347 -428.199,-3.056c-2.309,-5.968 -116.247,-385.51 -126.315,-419.045c-35.001,-116.594 -35.91,-118.66 -42.046,-118.722c-23.332,-0.232 -290.088,-2.882 -291.653,1.791c-2.99,8.933 -88.788,337.652 -89.764,341.986c-1.023,4.544 2.138,3.246 58.137,3.32c18.919,0.025 30.375,-5.938 25.575,12.221c-43.483,164.472 -40.644,165.357 -47.176,178.614c-1.576,3.199 -2.837,2.906 -193.932,2.917c-285.935,0.017 -285.959,-0.015 -286.932,-0.372c-6.502,-2.382 43.451,-174.181 47.809,-189.169c2.184,-7.511 44.889,-3.35 87.063,-4.252c7.668,-0.164 11.451,-37.067 71.854,-259.052c3.719,3.69 3.324,3.55 3.719,3.69c0.832,0.292 475.747,-251.849 511.787,-270.607c9.435,-4.911 17.044,-3.134 11.147,-12.083c85.538,-1.312 286.95,0.719 290.183,-1.114c1.053,-0.596 113.168,-72.608 115.287,-74.693c3.854,-3.794 3.791,-17.322 40.444,-151.59c12.754,-0.785 285.751,-150.524 354.971,-185.895c7.675,-3.923 12.683,-3.836 7.5,-10.738l0,-0.001Z" style="fill:#161c29;"/><path d="M1731.824,389.37c5.183,6.902 0.176,6.815 -7.5,10.738c-69.22,35.371 -342.217,185.11 -354.971,185.895c22.889,-89.061 22.256,-90.766 31.643,-95.401c124.833,-61.653 140.092,-66.295 128.548,-65.841c-57.372,2.262 -57.007,-0.336 -717.708,0.886c-19.784,0.037 -24.641,-2.919 -22.298,2.472c1.301,2.995 69.104,57.225 68.414,63.72c-1.431,13.465 -86.257,319.15 -80.692,321.243c10.946,4.116 11.398,0.542 146.182,0.317c5.897,8.949 -1.712,7.172 -11.147,12.083c-36.039,18.758 -510.955,270.899 -511.787,270.607c-0.395,-0.139 0,0 -3.719,-3.69c146.904,-547.297 138.985,-549.361 154.16,-596.233c0.665,-2.055 103.105,-51.987 135.466,-66.414c14.196,-6.329 -15.364,-4.332 -24.685,-4.347c-195.179,-0.314 -199.411,4.151 -202.375,-4.639c-17.09,-50.71 -68.982,-200.015 -69.008,-200.256c-0.191,-1.851 0.735,-2.409 23.148,-2.358c55.913,0.127 1120.702,-0.096 1125.781,0.118c7.197,0.304 105.794,98.21 192.55,171.097l-0.001,0.002Z" style="fill:#002a5c;"/><path d="M1369.355,586.003c-36.653,134.267 -36.589,147.795 -40.444,151.59c-2.118,2.085 -114.234,74.096 -115.287,74.693c-3.233,1.833 -204.645,-0.198 -290.183,1.114c-134.785,0.225 -135.236,3.799 -146.182,-0.317c-5.565,-2.092 79.263,-307.778 80.692,-321.243c0.69,-6.496 -67.111,-60.727 -68.414,-63.72c-2.344,-5.391 2.515,-2.435 22.298,-2.472c660.702,-1.223 660.337,1.374 717.708,-0.886c11.546,-0.455 -3.715,4.187 -128.548,65.841c-9.387,4.636 -8.754,6.34 -31.643,95.401l-104.763,-17.205c-2.996,-3.331 -3.871,-2.583 -98.681,-2.613c-14.012,-0.005 -164.561,-0.051 -175.15,0.022c-10.94,0.076 -1.036,11.312 -11.191,16.154l0.124,3.767c1.358,6.095 -0.163,5.797 -2.751,13.323l-1.003,3.975c0.238,1.862 0.476,3.724 0.714,5.586c-0.651,1.924 -1.3,3.849 -1.951,5.774c-1.515,3.683 -1.175,3.364 -1.891,7.701c-1.693,3.83 -1.198,3.575 -1.794,7.899c-3.04,7.624 -9.505,35.289 -10.227,38.384c0.396,4.421 0.223,4.734 -4.329,5.961l0.867,1.658c0.653,19.079 -3.504,17.79 -7.46,26.971c1.82,10.162 6.504,4.484 29.383,4.492c203.326,0.07 204.519,0.53 208.078,-3.651c21.19,-11.282 20.823,-11.854 22.87,-12.191c1.816,-8.355 5.967,-4.862 11.738,-11.359c3.463,-3.898 7.193,0.913 15.837,-11.296c0.196,-0.277 0,0 3.686,-2.108c0.298,-0.784 0.595,-1.566 0.893,-2.35c-0.339,-3.149 -0.676,-6.298 -1.015,-9.447c3.194,-8.858 -0.238,-11.495 6.875,-13.6c0.06,-0.78 0.153,-0.707 2.021,-9.574c-0.732,-2.894 -0.662,-2.626 0.476,-5.673c0.17,-1.872 0.341,-3.743 0.511,-5.616c1.645,-3.07 1.767,-2.619 3.436,-5.878c0.548,-1.318 1.096,-2.635 1.643,-3.953c-2.685,-8.6 2.967,-12.811 3.866,-13.482l0.216,-1.895c-1.189,-5.2 -1.512,-5.007 0.784,-9.617c0.024,-1.944 0.049,-3.889 0.073,-5.833c1.135,-6.296 0.875,-6.025 3.353,-11.531l104.763,17.205l-419.487,117.356c-2.355,5.482 -2.421,5.375 -2.578,5.863c3.719,2.86 4.26,2.53 107.011,2.457c123.475,-0.087 124.084,1.447 136.981,-5.633l-3.953,-1.847c-3.56,4.183 -4.752,3.723 -208.078,3.651c-22.879,-0.008 -27.562,5.67 -29.383,-4.492l419.487,-117.356l-380.451,-22.454c-10.655,4.721 -6.857,7.598 -9.333,18.812c10.155,-4.841 0.251,-16.077 11.191,-16.154c10.589,-0.074 161.138,-0.027 175.15,-0.022c94.811,0.03 95.686,-0.718 98.681,2.613c0.563,-1.383 1.125,-2.768 1.687,-4.151c-2.039,-0.451 -1.691,-0.654 -4.086,-0.37c-251.717,1.036 -252.015,4.307 -273.291,-0.727l380.451,22.454l-127.897,81.243c-3.686,2.108 -3.489,1.831 -3.686,2.108c-8.645,12.209 -12.374,7.397 -15.837,11.296c-5.769,6.495 -9.922,3.003 -11.738,11.359l0.005,1.946c23.178,-17.404 28.682,-14.667 31.255,-26.708l127.897,-81.243l-400.941,38.732c-0.688,3.063 -7.242,32.236 -9.172,38.154l1.55,5.878c0.723,-3.094 7.189,-30.76 10.227,-38.384c-0.868,-1.883 -1.737,-3.765 -2.605,-5.649l400.941,-38.732l-412.027,90.384l-3.178,4.021c-3.861,16.017 -3.665,15.932 -4.123,17.277c-0.053,1.891 -0.106,3.783 -0.159,5.673c3.956,-9.182 8.114,-7.894 7.46,-26.971l412.027,-90.384l-103.075,-21.357c-0.563,1.383 -1.125,2.768 -1.687,4.151c-2.478,5.507 -2.218,5.234 -3.353,11.531c-0.024,1.944 -0.049,3.889 -0.073,5.833c-2.294,4.609 -1.973,4.417 -0.784,9.617c8.737,-26.461 7.214,-28.966 5.897,-31.132l103.075,21.357l-121.143,55.846c-7.114,2.105 -3.681,4.742 -6.875,13.6c1.029,3.814 0.922,3.517 1.029,3.814c0.629,1.753 0.834,1.284 1.583,3.372c1.335,-7.097 3.909,-19.126 4.264,-20.786l121.143,-55.846l-392.129,5.88c-2.671,8.522 -2.1,8.236 -4.343,17.237c0.602,2.941 0.458,2.782 1.82,5.663c0.651,-1.924 1.3,-3.849 1.951,-5.774c-0.238,-1.862 -0.476,-3.724 -0.714,-5.586l1.003,-3.975c0.095,-2.522 0.188,-5.045 0.283,-7.567l392.129,-5.88l-410.113,76.886c-0.927,3.947 -1.853,7.893 -2.78,11.839c4.552,-1.227 4.726,-1.541 4.329,-5.961l-1.55,-5.878l410.113,-76.886l-109.188,11.671c-0.899,0.67 -6.551,4.882 -3.866,13.482c2.123,-6.767 1.962,-6.332 3.866,-13.482l109.188,-11.671l-399.085,31.009c-0.618,2.574 -1.237,5.148 -1.856,7.723c0.868,1.883 1.737,3.765 2.605,5.649c0.596,-4.325 0.101,-4.069 1.794,-7.899c-0.155,-0.458 -0.284,-0.248 -2.544,-5.471l399.085,-31.009l-396.471,23.117l-2.614,7.893c2.259,5.223 2.389,5.014 2.544,5.471c0.715,-4.336 0.377,-4.016 1.891,-7.701c-1.364,-2.881 -1.218,-2.723 -1.82,-5.663l396.471,-23.117l-389.66,0.124c-0.823,1.919 -1.646,3.838 -2.467,5.757c-0.095,2.522 -0.188,5.045 -0.283,7.567c2.588,-7.525 4.109,-7.227 2.751,-13.323l389.66,-0.124l-114.698,29.105c-1.669,3.259 -1.791,2.808 -3.436,5.878c1.096,4.253 1.174,4.06 1.255,5.563c1.313,-3.801 1.432,-3.535 2.044,-7.674l0.136,-3.765l114.698,-29.105l0.002,-0.003Z" style="fill:#ca8f00;"/><path d="M1054.294,781.987c-18.927,0.037 -232.71,0.457 -236.597,0.087c-7.761,-0.74 81.019,-302.825 74.481,-309.048c-5.385,-5.125 -22.681,-16.435 -13.098,-16.407c275.512,0.796 517.959,-0.64 518.018,0.458c0.178,3.362 -30.811,13.073 -32.237,17.831c-8.357,27.884 -59.676,241.799 -64.832,245.278c-7.505,5.064 -83.406,56.282 -95.223,61.183c-3.542,1.47 -3.667,0.656 -150.512,0.617l210.298,-213.189c-2.996,-3.331 -3.871,-2.583 -98.681,-2.613c-14.012,-0.005 -164.561,-0.051 -175.15,0.022c-10.94,0.076 -1.036,11.312 -11.191,16.154l0.124,3.767c1.358,6.095 -0.163,5.797 -2.751,13.323l-1.003,3.975c0.238,1.862 0.476,3.724 0.714,5.586c-0.651,1.924 -1.3,3.849 -1.951,5.774c-1.515,3.683 -1.175,3.364 -1.891,7.701c-1.693,3.83 -1.198,3.575 -1.794,7.899c-3.04,7.624 -9.505,35.289 -10.227,38.384c0.396,4.421 0.223,4.734 -4.329,5.961l0.867,1.658c0.653,19.079 -3.504,17.79 -7.46,26.971c1.82,10.162 6.504,4.484 29.383,4.492c203.326,0.07 204.519,0.53 208.078,-3.651c21.19,-11.282 20.823,-11.854 22.87,-12.191c1.816,-8.355 5.967,-4.862 11.738,-11.359c3.463,-3.898 7.193,0.913 15.837,-11.296c0.196,-0.277 0,0 3.686,-2.108c0.298,-0.784 0.595,-1.566 0.893,-2.35c-0.339,-3.149 -0.676,-6.298 -1.015,-9.447c3.194,-8.858 -0.238,-11.495 6.875,-13.6c0.06,-0.78 0.153,-0.707 2.021,-9.574c-0.732,-2.894 -0.662,-2.626 0.476,-5.673c0.17,-1.872 0.341,-3.743 0.511,-5.616c1.645,-3.07 1.767,-2.619 3.436,-5.878c0.548,-1.318 1.096,-2.635 1.643,-3.953c-2.685,-8.6 2.967,-12.811 3.866,-13.482l0.216,-1.895c-1.189,-5.2 -1.512,-5.007 0.784,-9.617c0.024,-1.944 0.049,-3.889 0.073,-5.833c1.135,-6.296 0.875,-6.025 3.353,-11.531l-210.298,213.189l-104.426,-78.628c-2.355,5.482 -2.421,5.375 -2.578,5.863c3.719,2.86 4.26,2.53 107.011,2.457c123.475,-0.087 124.084,1.447 136.981,-5.633l-3.953,-1.847c-3.56,4.183 -4.752,3.723 -208.078,3.651c-22.879,-0.008 -27.562,5.67 -29.383,-4.492l104.426,78.628l-65.39,-218.437c-10.655,4.721 -6.857,7.598 -9.333,18.812c10.155,-4.841 0.251,-16.077 11.191,-16.154c10.589,-0.074 161.138,-0.027 175.15,-0.022c94.811,0.03 95.686,-0.718 98.681,2.613c0.563,-1.383 1.125,-2.768 1.687,-4.151c-2.039,-0.451 -1.691,-0.654 -4.086,-0.37c-251.717,1.036 -252.015,4.307 -273.291,-0.727l65.39,218.437l187.164,-114.741c-3.686,2.108 -3.489,1.831 -3.686,2.108c-8.645,12.209 -12.374,7.397 -15.837,11.296c-5.769,6.495 -9.922,3.003 -11.738,11.359l0.005,1.946c23.178,-17.404 28.682,-14.667 31.255,-26.708l-187.164,114.741l-85.88,-157.251c-0.688,3.063 -7.242,32.236 -9.172,38.154l1.55,5.878c0.723,-3.094 7.189,-30.76 10.227,-38.384c-0.868,-1.883 -1.737,-3.765 -2.605,-5.649l85.88,157.251l-96.966,-105.599l-3.178,4.021c-3.861,16.017 -3.665,15.932 -4.123,17.277c-0.053,1.891 -0.106,3.783 -0.159,5.673c3.956,-9.182 8.114,-7.894 7.46,-26.971l96.966,105.599l211.986,-217.34c-0.563,1.383 -1.125,2.768 -1.687,4.151c-2.478,5.507 -2.218,5.234 -3.353,11.531c-0.024,1.944 -0.049,3.889 -0.073,5.833c-2.294,4.609 -1.973,4.417 -0.784,9.617c8.737,-26.461 7.214,-28.966 5.897,-31.132l-211.986,217.34l193.917,-140.137c-7.114,2.105 -3.681,4.742 -6.875,13.6c1.029,3.814 0.922,3.517 1.029,3.814c0.629,1.753 0.834,1.284 1.583,3.372c1.335,-7.097 3.909,-19.126 4.264,-20.786l-193.917,140.137l-77.068,-190.103c-2.671,8.522 -2.1,8.236 -4.343,17.237c0.602,2.941 0.458,2.782 1.82,5.663c0.651,-1.924 1.3,-3.849 1.951,-5.774c-0.238,-1.862 -0.476,-3.724 -0.714,-5.586l1.003,-3.975c0.095,-2.522 0.188,-5.045 0.283,-7.567l77.068,190.103l-95.052,-119.098c-0.927,3.947 -1.853,7.893 -2.78,11.839c4.552,-1.227 4.726,-1.541 4.329,-5.961l-1.55,-5.878l95.052,119.098l205.873,-184.313c-0.899,0.67 -6.551,4.882 -3.866,13.482c2.123,-6.767 1.962,-6.332 3.866,-13.482l-205.873,184.313l-84.025,-164.974c-0.618,2.574 -1.237,5.148 -1.856,7.723c0.868,1.883 1.737,3.765 2.605,5.649c0.596,-4.325 0.101,-4.069 1.794,-7.899c-0.155,-0.458 -0.284,-0.248 -2.544,-5.471l84.025,164.974l-81.41,-172.867l-2.614,7.893c2.259,5.223 2.389,5.014 2.544,5.471c0.715,-4.336 0.377,-4.016 1.891,-7.701c-1.364,-2.881 -1.218,-2.723 -1.82,-5.663l81.41,172.867l-74.6,-195.86c-0.823,1.919 -1.646,3.838 -2.467,5.757c-0.095,2.522 -0.188,5.045 -0.283,7.567c2.588,-7.525 4.109,-7.227 2.751,-13.323l74.6,195.86l200.363,-166.879c-1.669,3.259 -1.791,2.808 -3.436,5.878c1.096,4.253 1.174,4.06 1.255,5.563c1.313,-3.801 1.432,-3.535 2.044,-7.674l0.136,-3.765l-200.363,166.879l0.001,-0.002Z" style="fill:#fbb900;"/><path d="M926.747,535.975c7.08,-27.754 4.565,-29.623 10.313,-32.079c0.8,-0.342 38.814,-0.302 42.19,-0.297c327.179,0.35 328.439,-0.826 329.252,1.618c1.878,5.635 -39.409,159.348 -43.111,173.132c-2.458,9.153 -2.457,10.376 -67.334,53.207c-10.21,6.74 -33.856,4.358 -41.765,4.358c-279.074,-0.001 -279.606,-0.886 -280.121,-1.875c-1.044,-2.002 46.413,-182.25 50.577,-198.065l337.844,32.822c-2.996,-3.331 -3.871,-2.583 -98.681,-2.613c-14.012,-0.005 -164.561,-0.051 -175.15,0.022c-10.94,0.076 -1.036,11.312 -11.191,16.154l0.124,3.767c1.358,6.095 -0.163,5.797 -2.751,13.323l-1.003,3.975c0.238,1.862 0.476,3.724 0.714,5.586c-0.651,1.924 -1.3,3.849 -1.951,5.774c-1.515,3.683 -1.175,3.364 -1.891,7.701c-1.693,3.83 -1.198,3.575 -1.794,7.899c-3.04,7.624 -9.505,35.289 -10.227,38.384c0.396,4.421 0.223,4.734 -4.329,5.961l0.867,1.658c0.653,19.079 -3.504,17.79 -7.46,26.971c1.82,10.162 6.504,4.484 29.383,4.492c203.326,0.07 204.519,0.53 208.078,-3.651c21.19,-11.282 20.823,-11.854 22.87,-12.191c1.816,-8.355 5.967,-4.862 11.738,-11.359c3.463,-3.898 7.193,0.913 15.837,-11.296c0.196,-0.277 0,0 3.686,-2.108c0.298,-0.784 0.595,-1.566 0.893,-2.35c-0.339,-3.149 -0.676,-6.298 -1.015,-9.447c3.194,-8.858 -0.238,-11.495 6.875,-13.6c0.06,-0.78 0.153,-0.707 2.021,-9.574c-0.732,-2.894 -0.662,-2.626 0.476,-5.673c0.17,-1.872 0.341,-3.743 0.511,-5.616c1.645,-3.07 1.767,-2.619 3.436,-5.878c0.548,-1.318 1.096,-2.635 1.643,-3.953c-2.685,-8.6 2.967,-12.811 3.866,-13.482l0.216,-1.895c-1.189,-5.2 -1.512,-5.007 0.784,-9.617c0.024,-1.944 0.049,-3.889 0.073,-5.833c1.135,-6.296 0.875,-6.025 3.353,-11.531l-337.844,-32.822l23.119,167.383c-2.355,5.482 -2.421,5.375 -2.578,5.863c3.719,2.86 4.26,2.53 107.011,2.457c123.475,-0.087 124.084,1.447 136.981,-5.633l-3.953,-1.847c-3.56,4.183 -4.752,3.723 -208.078,3.651c-22.879,-0.008 -27.562,5.67 -29.383,-4.492l-23.119,-167.383l62.155,27.573c-10.655,4.721 -6.857,7.598 -9.333,18.812c10.155,-4.841 0.251,-16.077 11.191,-16.154c10.589,-0.074 161.138,-0.027 175.15,-0.022c94.811,0.03 95.686,-0.718 98.681,2.613c0.563,-1.383 1.125,-2.768 1.687,-4.151c-2.039,-0.451 -1.691,-0.654 -4.086,-0.37c-251.717,1.036 -252.015,4.307 -273.291,-0.727l-62.155,-27.573l314.71,131.271c-3.686,2.108 -3.489,1.831 -3.686,2.108c-8.645,12.209 -12.374,7.397 -15.837,11.296c-5.769,6.495 -9.922,3.003 -11.738,11.359l0.005,1.946c23.178,-17.404 28.682,-14.667 31.255,-26.708l-314.71,-131.271l41.665,88.759c-0.688,3.063 -7.242,32.236 -9.172,38.154l1.55,5.878c0.723,-3.094 7.189,-30.76 10.227,-38.384c-0.868,-1.883 -1.737,-3.765 -2.605,-5.649l-41.665,-88.759l30.581,140.411l-3.178,4.021c-3.861,16.017 -3.665,15.932 -4.123,17.277c-0.053,1.891 -0.106,3.783 -0.159,5.673c3.956,-9.182 8.114,-7.894 7.46,-26.971l-30.581,-140.411l339.531,28.67c-0.563,1.383 -1.125,2.768 -1.687,4.151c-2.478,5.507 -2.218,5.234 -3.353,11.531c-0.024,1.944 -0.049,3.889 -0.073,5.833c-2.294,4.609 -1.973,4.417 -0.784,9.617c8.737,-26.461 7.214,-28.966 5.897,-31.132l-339.531,-28.67l321.464,105.874c-7.114,2.105 -3.681,4.742 -6.875,13.6c1.029,3.814 0.922,3.517 1.029,3.814c0.629,1.753 0.834,1.284 1.583,3.372c1.335,-7.097 3.909,-19.126 4.264,-20.786l-321.464,-105.874l50.478,55.907c-2.671,8.522 -2.1,8.236 -4.343,17.237c0.602,2.941 0.458,2.782 1.82,5.663c0.651,-1.924 1.3,-3.849 1.951,-5.774c-0.238,-1.862 -0.476,-3.724 -0.714,-5.586l1.003,-3.975c0.095,-2.522 0.188,-5.045 0.283,-7.567l-50.478,-55.907l32.493,126.913c-0.927,3.947 -1.853,7.893 -2.78,11.839c4.552,-1.227 4.726,-1.541 4.329,-5.961l-1.55,-5.878l-32.493,-126.913l333.419,61.698c-0.899,0.67 -6.551,4.882 -3.866,13.482c2.123,-6.767 1.962,-6.332 3.866,-13.482l-333.419,-61.698l43.521,81.038c-0.618,2.574 -1.237,5.148 -1.856,7.723c0.868,1.883 1.737,3.765 2.605,5.649c0.596,-4.325 0.101,-4.069 1.794,-7.899c-0.155,-0.458 -0.284,-0.248 -2.544,-5.471l-43.521,-81.038l46.136,73.145l-2.614,7.893c2.259,5.223 2.389,5.014 2.544,5.471c0.715,-4.336 0.377,-4.016 1.891,-7.701c-1.364,-2.881 -1.218,-2.723 -1.82,-5.663l-46.136,-73.145l52.946,50.152c-0.823,1.919 -1.646,3.838 -2.467,5.757c-0.095,2.522 -0.188,5.045 -0.283,7.567c2.588,-7.525 4.109,-7.227 2.751,-13.323l-52.946,-50.152l327.908,79.133c-1.669,3.259 -1.791,2.808 -3.436,5.878c1.096,4.253 1.174,4.06 1.255,5.563c1.313,-3.801 1.432,-3.535 2.044,-7.674l0.136,-3.765l-327.908,-79.133l0,-0.003Z" style="fill:#152034;"/><path d="M988.904,563.549c259.193,-0.111 259.147,0.26 273.291,0.727c-251.717,1.036 -252.015,4.307 -273.291,-0.727Z" style="fill:#3b404d;fill-opacity:0.47;"/><path d="M1765.985,284.492c216.271,0.095 216.222,-0.228 221.863,0.702c-141.614,1.15 -206.8,-0.847 -221.558,0.777l-0.305,-1.479l-0,0.001Z" style="fill:#49505e;fill-opacity:0.22;"/><path d="M846.762,1282.726c4.599,3.837 39.019,-1.825 40.735,3.851l-0.574,1.945l-1.357,1.975c-1.945,-7.999 -38.747,0.588 -38.805,-7.77l0.001,-0.001Z" style="fill:#8691b0;fill-opacity:0.36;"/><path d="M1602.558,1246.863c1.975,1.367 3.074,3.1 3.278,3.42c-1.272,2.903 -1.134,2.539 -1.489,5.64c-0.43,-0.507 -5.376,-6.337 -5.376,-6.337c-3.842,-0.15 -3.56,-0.024 -48.059,-0.321l1.787,-1.071c33.964,-0.18 44.252,0.335 49.861,-1.331l-0.001,0.001Z" style="fill:#485268;fill-opacity:0.52;"/><path d="M1210.198,692.008l0.005,1.946c-3.748,2.73 -4.017,1.588 -7.59,4.067c-0.913,0.633 -10.187,7.07 -11.332,8.025l-3.953,-1.847c21.19,-11.282 20.823,-11.854 22.87,-12.191l0,-0.001Z" style="fill:#787f91;fill-opacity:0.24;"/><path d="M1961.223,322.431c25.972,0.462 25.677,0.468 51.419,1.148c-43.984,0.829 -44.61,3.145 -51.419,-1.148Z" style="fill:#565860;fill-opacity:0.09;"/><path d="M1554.611,1246.87c15.983,-0.002 31.964,-0.005 47.947,-0.007c-5.609,1.667 -15.897,1.151 -49.861,1.331l1.914,-1.324Z" style="fill:#303647;fill-opacity:0.25;"/><path d="M815.663,1246.69c4.476,-0.006 35.204,0.141 38.265,0.156c-20.074,3.29 -19.79,0.934 -40.134,0.974l1.869,-1.13Z" style="fill:#43495d;fill-opacity:0.22;"/><path d="M381.305,509.018c1.689,5.296 1.309,5.121 4.292,10.183l-2.436,7.267c-0.53,-6.417 -0.667,-6.078 -3.647,-11.75c0.598,-1.9 1.194,-3.8 1.791,-5.7Z" style="fill:#6e7689;fill-opacity:0.22;"/><path d="M1529.584,1047.951c-1.216,6.624 -4.332,3.575 -9.684,7.617l0.131,-1.743c4.504,-3.528 4.361,-3.156 9.553,-5.876l-0,0.001Z" style="fill:#979eb6;fill-opacity:0.26;"/><path d="M298.375,266.565c0.267,0.942 2.142,7.564 3.943,11.584c-0.541,1.879 -1.081,3.758 -1.621,5.638c-0.748,-6.292 -1.275,-5.864 -3.876,-11.541c1.225,-2.83 1.133,-2.486 1.553,-5.68l0.001,0Z" style="fill:#60697a;fill-opacity:0.27;"/><path d="M409.24,622.461c0.333,2.046 0.665,4.091 0.997,6.137c-0.8,3.182 -1.598,6.363 -2.398,9.545c-0.483,-4.816 -0.378,-4.485 -1.405,-9.461c1.081,-3.352 1.529,-2.836 2.807,-6.221l-0.001,0Z" style="fill:#6c7384;fill-opacity:0.3;"/><path d="M1796.917,688.071c0.702,5.011 0.675,4.71 1.432,9.456c-0.632,1.936 -1.264,3.873 -1.897,5.809c-1.462,-2.951 -1.282,-2.669 -1.865,-5.709c0.777,-3.185 1.553,-6.372 2.33,-9.557l0,0.001Z" style="fill:#707992;fill-opacity:0.31;"/><path d="M105.404,1440.434c0.201,1.997 0.402,3.995 0.604,5.992c-0.778,3.172 -1.557,6.344 -2.335,9.516c-0.399,-3.12 -0.796,-6.24 -1.195,-9.36c1.195,-3.523 1.646,-2.854 2.925,-6.149Z" style="fill:#616b82;fill-opacity:0.35;"/><path d="M413.457,530.645c3.434,1.413 2.837,1.76 4.705,5.263c-2.038,5.757 -1.958,5.565 -2.057,5.76c-2.088,-6.195 -2.543,-10.122 -2.647,-11.023l-0.001,0Z" style="fill:#969aa7;fill-opacity:0.12;"/><path d="M294.308,1065.361c0.327,7.211 0.207,7.107 0.277,7.72c-0.823,2.529 -1.645,5.057 -2.467,7.586c-0.377,-2.489 -0.752,-4.979 -1.129,-7.468c1.352,-4.057 1.801,-3.493 3.319,-7.838Z" style="fill:#6c7389;fill-opacity:0.32;"/><path d="M834.731,1145.946c1.984,0.485 3.968,0.972 5.952,1.457c-6.7,1.417 -5.45,3.162 -6.447,10.044c-1.267,-4.117 -1.135,-3.73 -1.58,-7.62c1.951,-1.999 1.826,-1.815 1.951,-1.999c0.548,-0.811 -0.529,-0.916 0.123,-1.882l0.001,-0.001Z" style="fill:#5a606f;fill-opacity:0.17;"/><path d="M809.986,1579.103c0.362,2.47 0.725,4.938 1.086,7.408c-1.42,4.334 -1.934,3.758 -3.369,7.814c-0.01,-2.537 -0.02,-5.074 -0.03,-7.612c0.771,-2.537 1.542,-5.074 2.313,-7.611Z" style="fill:#646e87;fill-opacity:0.35;"/><path d="M76.45,1550.074c0.21,2.011 0.42,4.022 0.63,6.033c-0.781,2.532 -1.563,5.064 -2.344,7.595c-0.364,-2.476 -0.729,-4.95 -1.093,-7.426c1.113,-3.531 1.612,-2.823 2.807,-6.203Z" style="fill:#636a81;fill-opacity:0.34;"/><path d="M956.273,1146.025c1.45,2.205 2.113,5.308 2.217,5.794c-0.547,1.882 -1.092,3.763 -1.639,5.645c-0.815,-6.985 0.366,-8.732 -6.449,-10.063c1.957,-0.458 3.914,-0.916 5.871,-1.374l0,-0.001Z" style="fill:#505567;fill-opacity:0.19;"/><path d="M296.82,1052.074c1.308,2.97 1.159,2.622 1.661,5.678c-0.661,2.53 -1.322,5.06 -1.983,7.59c-0.533,-2.503 -1.066,-5.007 -1.598,-7.509c0.64,-1.92 1.281,-3.839 1.921,-5.759Z" style="fill:#6b758c;fill-opacity:0.35;"/><path d="M337.78,896.096c0.684,1.832 1.367,3.664 2.051,5.496c-1.515,3.7 -1.375,3.526 -2.185,7.611c-0.788,-1.764 -1.578,-3.527 -2.366,-5.291c2.363,-3.564 1.674,-3.587 2.5,-7.814l0,-0.001Z" style="fill:#666d7c;fill-opacity:0.21;"/><path d="M81.264,1525.454c2.493,-6.714 3.103,-6.9 3.716,-7.087c0.535,-0.163 -0.601,0.183 -0.021,6.997l-1.267,5.45l-2.428,-5.36Z" style="fill:#6f748b;fill-opacity:0.27;"/><path d="M991.446,1261.47c0.57,1.915 1.14,3.829 1.708,5.744c-0.17,1.99 -0.34,3.98 -0.51,5.969c-0.269,-0.669 -0.751,0.452 -1.078,-0.361c-0.18,-0.447 -0.14,-0.424 -1.88,-5.726l1.76,-5.628l0,0.001Z" style="fill:#69748d;fill-opacity:0.27;"/><path d="M886.923,1288.521c0.392,1.86 0.782,3.719 1.174,5.579c-1.453,3.893 -1.12,3.543 -1.677,7.866c-0.615,-2.615 -1.23,-5.23 -1.845,-7.845l0.99,-3.626l1.357,-1.975l0,0.001Z" style="fill:#6d7487;fill-opacity:0.25;"/><path d="M828.087,1508.012c0.515,1.932 1.031,3.865 1.545,5.797c-0.31,2.509 -0.619,5.018 -0.93,7.527l-2.611,-7.329c0.665,-1.998 1.33,-3.998 1.995,-5.996l0.001,0Z" style="fill:#707889;fill-opacity:0.24;"/><path d="M326.517,941.938c0.288,2.05 0.576,4.101 0.863,6.151l-1.397,5.349c-0.521,-1.344 -0.654,-0.763 -1.008,-1.674c-0.112,-0.289 0,0 -1.255,-3.667c1.126,-3.361 1.534,-2.745 2.797,-6.16l0,0.001Z" style="fill:#71798b;fill-opacity:0.28;"/><path d="M1521.291,1152.085c0.481,4.386 -0.201,4.201 1.86,7.716c-1.126,3.638 -1.01,3.356 -1.126,3.638c-0.435,1.061 -0.637,0.415 -1.186,1.757l-1.13,-5.521c0.287,-4.107 0.254,-3.872 1.582,-7.59Z" style="fill:#646b80;fill-opacity:0.32;"/><path d="M1525.956,1178.773c0.88,1.051 2.342,2.797 6.716,15.748l-0.896,1.583c-1.741,-5.62 -5.339,-15.95 -5.82,-17.331Z" style="fill:#343c4e;fill-opacity:0.46;"/><path d="M989.989,1254.139c0.485,2.443 0.972,4.888 1.457,7.331l-1.76,5.628c-0.764,-3.956 -0.32,-3.696 -2.131,-7.644c0.811,-1.772 1.623,-3.543 2.433,-5.315l0.001,0Z" style="fill:#6f7481;fill-opacity:0.25;"/><path d="M107.946,1425.18c0.632,2.614 1.264,5.229 1.897,7.844l-1.293,5.457c-0.748,-1.816 -1.497,-3.631 -2.244,-5.447c1.419,-3.819 1.088,-3.478 1.64,-7.853l0.001,-0.001Z" style="fill:#6b7288;fill-opacity:0.27;"/><path d="M1041.107,1425.061c0.639,2.569 1.278,5.138 1.917,7.708c-0.329,3.073 -0.314,2.77 -1.381,5.574c-0.656,-1.912 -1.312,-3.824 -1.968,-5.736c0.477,-2.515 0.955,-5.03 1.433,-7.545l-0.001,-0.001Z" style="fill:#646b82;fill-opacity:0.35;"/><path d="M1769.805,793.908c0.502,2.507 1.003,5.014 1.505,7.52c-0.638,1.912 -1.277,3.824 -1.915,5.736c-0.448,-1.854 -0.898,-3.706 -1.346,-5.56c0.586,-2.566 1.172,-5.131 1.758,-7.696l-0.001,0Z" style="fill:#5b6478;fill-opacity:0.38;"/><path d="M406.434,628.682c1.029,4.975 0.922,4.645 1.405,9.461c-0.634,1.909 -1.269,3.819 -1.903,5.729c-0.44,-1.845 -0.88,-3.688 -1.32,-5.532c1.957,-4.702 1.299,-4.461 1.818,-9.657Z" style="fill:#575f72;fill-opacity:0.31;"/><path d="M1788.169,720.977l2.325,5.373c-2.68,3.45 -1.735,3.549 -2.383,7.867l-1.745,-5.477c0.601,-2.588 1.202,-5.175 1.803,-7.762l0,-0.001Z" style="fill:#4d566a;fill-opacity:0.29;"/><path d="M1090.852,1592.572c0.666,1.917 1.331,3.834 1.997,5.751c-0.451,2.508 -0.903,5.016 -1.353,7.524c-0.388,-4.107 0.445,-3.955 -1.772,-7.748c0.377,-1.842 0.752,-3.684 1.129,-5.527l-0.001,-0Z" style="fill:#5a647c;fill-opacity:0.36;"/><path d="M125.504,1361.877c0.833,3.747 0.751,3.313 1.461,7.52c-0.859,1.91 -1.719,3.82 -2.577,5.73c-0.987,-6.8 0.09,-6.375 1.116,-13.25Z" style="fill:#63697c;fill-opacity:0.34;"/><path d="M321.005,334.086c0.809,1.877 1.618,3.755 2.426,5.632c-0.499,2.959 -0.335,2.663 -1.61,5.638c-0.655,-1.903 -1.311,-3.807 -1.965,-5.71c0.383,-1.853 0.766,-3.705 1.149,-5.559Z" style="fill:#6e7689;fill-opacity:0.29;"/><path d="M1829.523,559.187c0.482,1.843 0.965,3.686 1.447,5.529c-2.251,3.493 -1.474,3.368 -1.891,7.728c-0.451,-1.856 -0.903,-3.713 -1.353,-5.569c0.601,-4.081 0.566,-3.756 1.797,-7.687l0,-0.001Z" style="fill:#50586b;fill-opacity:0.35;"/><path d="M1064.044,1502.111c0.676,2.552 1.352,5.103 2.028,7.654c0.01,1.909 0.02,3.82 0.03,5.729c-1.37,-4.305 -1.892,-3.779 -3.326,-7.881c0.423,-1.834 0.846,-3.668 1.269,-5.501l-0.001,-0.001Z" style="fill:#4f586f;fill-opacity:0.37;"/><path d="M958.49,1151.817c0.596,1.915 1.192,3.83 1.788,5.745c-0.324,3.056 -0.215,2.722 -1.492,5.632c-0.645,-1.91 -1.29,-3.822 -1.935,-5.732c0.547,-1.882 1.092,-3.763 1.639,-5.645Z" style="fill:#686f81;fill-opacity:0.32;"/><path d="M1039.192,1419.275c0.638,1.929 1.276,3.858 1.914,5.787c-0.477,2.515 -0.955,5.03 -1.433,7.545c-0.668,-4.198 -0.309,-3.831 -2.019,-7.656c1.205,-2.826 1.254,-2.536 1.537,-5.675l0.001,-0.001Z" style="fill:#5d6474;fill-opacity:0.3;"/><path d="M323.431,339.718c0.639,1.921 1.279,3.841 1.919,5.761c-0.496,1.878 -0.993,3.757 -1.489,5.635c-0.68,-1.92 -1.36,-3.839 -2.04,-5.76c1.275,-2.975 1.111,-2.678 1.61,-5.638l0,0.001Z" style="fill:#68718b;fill-opacity:0.3;"/><path d="M304.164,1022.965c0.904,1.82 1.808,3.641 2.711,5.46c-0.527,1.355 -1.054,2.709 -1.582,4.062c-0.705,-1.294 -1.409,-2.588 -2.114,-3.882l0.985,-5.641l0,0.001Z" style="fill:#7e8392;fill-opacity:0.18;"/><path d="M294.049,255.194c0.796,1.876 1.594,3.753 2.39,5.628c-0.233,2.018 -0.467,4.036 -0.702,6.054c-0.546,-1.329 -1.091,-2.658 -1.635,-3.988c0.138,-3.921 -0.244,-3.69 -0.053,-7.694Z" style="fill:#505a6d;fill-opacity:0.3;"/><path d="M381.666,726.839c0.529,1.875 1.06,3.75 1.589,5.625c-0.645,2.582 -1.291,5.163 -1.936,7.745c-0.255,-2.014 -0.512,-4.03 -0.767,-6.044c0.371,-2.442 0.742,-4.883 1.114,-7.325Z" style="fill:#454e63;fill-opacity:0.3;"/><path d="M1037.359,1413.509c0.611,1.922 1.222,3.844 1.833,5.766c-0.283,3.139 -0.332,2.849 -1.537,5.675c-0.593,-1.953 -1.186,-3.908 -1.779,-5.861c0.495,-1.86 0.988,-3.719 1.483,-5.579l0,-0.001Z" style="fill:#586479;fill-opacity:0.32;"/><path d="M411.245,616.967l0.927,3.891c-0.645,2.58 -1.289,5.16 -1.934,7.74c-0.333,-2.046 -0.665,-4.091 -0.997,-6.137l2.004,-5.494Z" style="fill:#52596a;fill-opacity:0.29;"/><path d="M1771.008,788.409c0.979,2.918 0.881,2.57 0.934,5.491c-0.211,2.509 -0.423,5.019 -0.634,7.528c-0.502,-2.507 -1.003,-5.014 -1.505,-7.52c0.401,-1.833 0.803,-3.666 1.204,-5.499l0.001,0Z" style="fill:#484f5d;fill-opacity:0.29;"/><path d="M52.564,1642.7l1.324,1.898l-0.343,6.198c-2.136,-0.161 -1.826,-0.225 -2.495,-2.315c0.505,-1.927 1.009,-3.854 1.514,-5.781Z" style="fill:#737681;fill-opacity:0.31;"/><path d="M296.439,260.823l1.937,5.743c-0.421,3.194 -0.329,2.85 -1.553,5.68l-1.084,-5.37c0.233,-2.018 0.467,-4.036 0.702,-6.054l-0.001,0Z" style="fill:#576174;fill-opacity:0.31;"/><path d="M252.674,133.773c0.175,0.653 1.531,5.729 2.622,8.037c-1.536,-0.806 -3.072,-1.61 -4.608,-2.415l1.986,-5.621Z" style="fill:#6d7a99;fill-opacity:0.31;"/><path d="M1605.836,1250.283l0.77,3.595c-0.074,5.4 0.016,5.322 -0.024,5.783c-0.744,-1.246 -1.489,-2.493 -2.233,-3.739c0.355,-3.102 0.216,-2.737 1.489,-5.64l-0.001,0Z" style="fill:#5b6578;fill-opacity:0.31;"/><path d="M1060.048,1490.592c1.511,2.842 1.455,2.535 2.088,5.73l0.304,5.661c-0.712,-1.91 -1.423,-3.821 -2.135,-5.731c-0.086,-1.886 -0.172,-3.773 -0.258,-5.66Z" style="fill:#474f5f;fill-opacity:0.34;"/><path d="M1546.478,1230.818l0.457,5.747c-0.15,1.969 -0.299,3.939 -0.45,5.908l-1.707,-3.867c0.566,-2.596 1.134,-5.193 1.7,-7.788Z" style="fill:#5c6474;fill-opacity:0.23;"/><path d="M392.702,692.235c-0.298,2.448 -0.596,4.897 -0.895,7.345l-2.608,-5.371c1.167,-0.658 2.336,-1.315 3.503,-1.974Z" style="fill:#8d96b9;fill-opacity:0.29;"/><path d="M1500.106,1086.687c0.201,1.856 0.403,3.713 0.604,5.569c-0.084,3.114 0.252,2.837 0.198,5.727c-1.628,-2.797 -1.712,-2.306 -2.271,-5.719c0.49,-1.86 0.979,-3.718 1.469,-5.578Z" style="fill:#575c6c;fill-opacity:0.29;"/><path d="M64.522,1604.016c-0.586,2.576 -1.172,5.152 -1.759,7.728c-0.914,-1.827 -1.828,-3.654 -2.743,-5.482c0.296,-0.273 1.619,-1.492 4.502,-2.247Z" style="fill:#69707f;fill-opacity:0.29;"/><path d="M1251.221,620.986c1.096,4.253 1.174,4.06 1.255,5.563c-0.395,3.191 -0.557,2.915 -2.243,5.728c0.257,-5.492 0.468,-5.218 0.476,-5.673c0.17,-1.872 0.341,-3.743 0.511,-5.616l0.001,-0.001Z" style="fill:#4d5362;fill-opacity:0.31;"/><path d="M294.881,1063.39l1.617,1.951c-0.638,2.581 -1.276,5.16 -1.913,7.741c-0.07,-0.614 0.051,-0.51 -0.277,-7.72l0.574,-1.972l-0.001,-0Z" style="fill:#545b6f;fill-opacity:0.35;"/><path d="M1744.846,892.042c-0.052,2.518 -0.104,5.038 -0.156,7.556l-0.457,2.116l-0.804,1.939l-0.468,-3.886c0.629,-2.575 1.256,-5.151 1.885,-7.726Z" style="fill:#3d4757;fill-opacity:0.39;"/><path d="M290.969,1078.799l1.149,1.869c-0.58,4.092 -0.705,3.802 -2.157,7.736c-0.673,-5.133 -0.963,-4.933 1.008,-9.605Z" style="fill:#4b556c;fill-opacity:0.43;"/><path d="M1089.203,1586.751c0.55,1.94 1.099,3.881 1.649,5.821c-0.377,1.842 -0.752,3.684 -1.129,5.527c-0.171,-1.878 -0.341,-3.757 -0.512,-5.635c-0.003,-1.905 -0.006,-3.808 -0.009,-5.713l0.001,0Z" style="fill:#474f61;fill-opacity:0.35;"/><path d="M1062.137,1496.322c0.636,1.93 1.271,3.859 1.907,5.789c-0.423,1.834 -0.846,3.668 -1.269,5.501l-0.335,-5.63l-0.304,-5.661l0.001,0Z" style="fill:#424859;fill-opacity:0.33;"/><path d="M371.192,480.294c0.563,1.309 1.126,2.618 1.689,3.927c-0.421,2.558 -0.841,5.115 -1.262,7.672l-0.155,-5.914c-0.091,-1.895 -0.181,-3.791 -0.273,-5.686l0.001,0.001Z" style="fill:#40485a;fill-opacity:0.31;"/><path d="M950.027,697.685c-0.053,1.891 -0.106,3.783 -0.159,5.673c-2.355,5.482 -2.421,5.375 -2.578,5.863c0.947,-5.091 0.147,-5.099 2.738,-11.537Z" style="fill:#424b5c;fill-opacity:0.48;"/><path d="M979.548,1221.118c1.153,2.9 1.134,2.598 1.69,5.819c-0.4,1.848 -0.799,3.696 -1.198,5.544c-0.104,-1.902 -0.208,-3.805 -0.312,-5.707c-0.06,-1.885 -0.119,-3.771 -0.179,-5.656Z" style="fill:#3a4151;fill-opacity:0.33;"/><path d="M422.398,580.203c-0.646,2.566 -1.291,5.131 -1.937,7.697c-0.447,-1.909 -0.895,-3.82 -1.342,-5.729c0.756,-0.411 0.059,-0.687 0.646,-1.007c0.196,-0.107 0,0 2.633,-0.962Z" style="fill:#505d75;fill-opacity:0.33;"/><path d="M267.964,1169.293l1.658,1.9c-0.467,1.803 -0.934,3.606 -1.402,5.408c-0.311,-1.812 -0.622,-3.624 -0.933,-5.437l0.676,-1.872l0,0.001Z" style="fill:#60666f;fill-opacity:0.28;"/><path d="M97.2,1473.253l0.647,3.851c-0.413,3.334 -0.653,3.036 -2.249,5.728c0.091,-1.404 0.362,-0.908 0.424,-1.861c0.02,-0.303 0,0 0.126,-3.797l1.052,-3.921Z" style="fill:#4f5562;fill-opacity:0.34;"/><path d="M1241.336,655.449c1.029,3.814 0.922,3.517 1.029,3.814c0.629,1.753 0.834,1.284 1.583,3.372c-0.533,0.754 -1.064,1.507 -1.597,2.261c-0.339,-3.149 -0.676,-6.298 -1.015,-9.447Z" style="fill:#5d6066;fill-opacity:0.15;"/><path d="M837.721,1469.64c0.949,3.049 0.754,2.622 0.803,5.395l-1.782,2.073c0.326,-2.489 0.653,-4.979 0.979,-7.468Z" style="fill:#4e545f;fill-opacity:0.36;"/><path d="M154.384,1257.796l0.951,1.767c-0.69,1.96 -1.381,3.921 -2.071,5.882c-0.673,-4.198 -0.399,-3.979 1.12,-7.649Z" style="fill:#4b556c;fill-opacity:0.45;"/><path d="M1776.312,772.823c0.725,3.911 0.58,3.706 -1.135,7.632l-0.935,-1.816c0.69,-1.939 1.38,-3.877 2.07,-5.817Z" style="fill:#4c556b;fill-opacity:0.44;"/><path d="M993.156,1267.214c0.63,2.535 1.26,5.068 1.89,7.602c-0.8,-0.544 -1.6,-1.089 -2.399,-1.632c0.17,-1.99 0.34,-3.98 0.51,-5.969l0,-0.001Z" style="fill:#5d6b88;fill-opacity:0.41;"/><path d="M273.354,1153.833c-0.37,2.501 -0.74,5.002 -1.111,7.503c-0.824,-2.608 -0.929,-2.266 -0.648,-5.279l1.759,-2.224Z" style="fill:#454c5f;fill-opacity:0.42;"/><path d="M869.915,1353.98c0.685,3.893 0.556,3.694 -1.029,7.613l-0.877,-1.743c0.634,-1.957 1.27,-3.913 1.905,-5.87l0.001,0Z" style="fill:#424d62;fill-opacity:0.47;"/><path d="M281.438,218.316c0.629,1.903 1.257,3.807 1.886,5.71c-0.915,-0.477 -1.83,-0.953 -2.745,-1.431l0.859,-4.28Z" style="fill:#69738b;fill-opacity:0.31;"/><path d="M810.543,1245.93l5.121,0.76l-1.869,1.13l-4.213,0.646l0.962,-2.536l-0.001,-0.001Z" style="fill:#595f77;fill-opacity:0.18;"/><path d="M351.986,851.701c-0.497,4.305 -0.626,3.834 -1.898,7.721c0.143,-1.842 0.285,-3.686 0.429,-5.528l1.469,-2.194Z" style="fill:#404759;fill-opacity:0.43;"/><path d="M52.476,1635.168c0.95,4.841 0.911,4.582 1.412,9.43l-1.324,-1.898c-0.029,-2.51 -0.059,-5.022 -0.088,-7.532Z" style="fill:#414654;fill-opacity:0.23;"/><path d="M1755.098,853.715c0.418,2.539 0.836,5.078 1.254,7.617c-0.651,-1.975 -1.3,-3.949 -1.951,-5.924l0.697,-1.692l0,-0.001Z" style="fill:#595c61;fill-opacity:0.13;"/><path d="M820.265,1542.53c0.392,5.756 -1.809,5.796 -1.961,5.997c0.654,-1.999 1.307,-3.998 1.961,-5.997Z" style="fill:#4a546d;fill-opacity:0.54;"/><path d="M1836.117,536.163c-0.903,4.445 -0.492,4.095 -1.98,7.672c0.277,-4.324 0.162,-4.087 1.98,-7.672Z" style="fill:#333d4f;fill-opacity:0.41;"/><path d="M1800.694,1577.389c2.984,1.239 2.608,1.202 3.8,3.966c-1.267,-1.322 -2.533,-2.644 -3.8,-3.966Z" style="fill:#808ca5;fill-opacity:0.46;"/><path d="M854.927,1249.937c0.493,4.082 0.491,3.72 -0.028,7.753c-0.439,-4.141 -0.646,-3.745 0.028,-7.753Z" style="fill:#4f5158;fill-opacity:0.11;"/><path d="M1852.752,1635.046c0.373,0.01 0.073,-0.043 5.872,1.845l-4.032,0.15l-1.84,-1.995Z" style="fill:#5f636b;fill-opacity:0.24;"/><path d="M830.826,1498.197l1.48,1.96c0.008,1.86 0.016,3.72 0.024,5.58c-1.008,-3.734 -1.067,-3.488 -1.505,-7.54Z" style="fill:#444b5b;fill-opacity:0.2;"/><path d="M1531.472,1045.943l4.214,0.765c-2.034,0.415 -4.068,0.83 -6.102,1.245c0.63,-0.669 1.259,-1.339 1.888,-2.009l0,-0.001Z" style="fill:#3b404e;fill-opacity:0.25;"/><path d="M868.011,1359.85l0.877,1.743l0.379,5.849c-1.553,-3.732 -1.256,-3.522 -1.256,-7.591l0,-0.001Z" style="fill:#444954;fill-opacity:0.2;"/><path d="M1256.3,611.154c-0.509,4.237 -0.273,3.933 -1.78,7.719l0.136,-3.765c0.548,-1.318 1.096,-2.635 1.643,-3.953l0,-0.001Z" style="fill:#38404d;fill-opacity:0.42;"/><path d="M1525.761,1171.141c0.717,3.824 1.017,3.564 0.195,7.631c0.094,-3.999 -0.385,-3.686 -0.195,-7.631Z" style="fill:#4b525e;fill-opacity:0.23;"/><path d="M820.185,1203.883c-0.668,3.17 -0.218,2.91 -2.039,5.882c0.68,-1.96 1.359,-3.921 2.039,-5.882Z" style="fill:#3b4455;fill-opacity:0.44;"/><path d="M267.965,1163.663c0.552,2.51 1.105,5.019 1.657,7.53l-1.658,-1.9l0.001,-5.63Z" style="fill:#3b404e;fill-opacity:0.26;"/><path d="M102.478,1446.581c0.399,3.12 0.796,6.24 1.195,9.36l-1.057,-1.898c-0.045,-2.487 -0.091,-4.975 -0.136,-7.463l-0.001,0Z" style="fill:#444b5b;fill-opacity:0.26;"/><path d="M392.705,682.342c0.554,1.942 1.107,3.884 1.662,5.826l-0.562,1.781c-0.366,-2.536 -0.734,-5.071 -1.1,-7.607Z" style="fill:#4e525a;fill-opacity:0.15;"/><path d="M1619.945,988.124c1.419,0.284 2.84,0.569 4.259,0.853c-2.103,0.303 -4.206,0.604 -6.309,0.907c0.683,-0.587 1.366,-1.173 2.049,-1.76l0.001,-0Z" style="fill:#4d5160;fill-opacity:0.25;"/><path d="M1698.933,936.33l4.177,0.668c-2.099,0.318 -4.196,0.634 -6.295,0.952c0.706,-0.54 1.412,-1.081 2.118,-1.62Z" style="fill:#414656;fill-opacity:0.27;"/><path d="M840.822,1461.748c1.248,3.912 1.277,3.658 -0.147,7.653c-0.001,-0.972 0.376,-0.534 0.374,-1.756c0,-0.472 0,0 -0.228,-5.897l0,-0.001Z" style="fill:#4a505c;fill-opacity:0.23;"/><path d="M1500.71,1092.256c0.733,3.925 1.092,3.576 0.439,7.561l-0.242,-1.834c0.054,-2.889 -0.282,-2.612 -0.198,-5.727Z" style="fill:#494d58;fill-opacity:0.24;"/><path d="M90.553,1506.097c-1.004,1.855 -2.009,3.71 -3.012,5.565c1.004,-1.855 2.009,-3.71 3.012,-5.565Z" style="fill:#6a7385;fill-opacity:0.47;"/><path d="M810.063,1577.223c0.766,4.626 0.898,4.393 1.008,9.289c-0.362,-2.47 -0.725,-4.938 -1.086,-7.408l0.077,-1.88l0.001,0Z" style="fill:#414756;fill-opacity:0.28;"/><path d="M1058.153,1490.574l1.895,0.017c0.086,1.886 0.172,3.773 0.258,5.66c-0.718,-1.892 -1.435,-3.785 -2.153,-5.677Z" style="fill:#444b5a;fill-opacity:0.22;"/><path d="M342.421,882.55c-0.098,4.021 -0.416,3.688 -0.495,7.552c-0.66,-4.012 -0.335,-3.731 0.495,-7.552Z" style="fill:#484c58;fill-opacity:0.24;"/><path d="M887.497,1286.577c0.2,2.508 0.4,5.016 0.6,7.524c-0.392,-1.86 -0.782,-3.719 -1.174,-5.579l0.574,-1.945Z" style="fill:#333948;fill-opacity:0.21;"/><path d="M99.642,1652.257c-0.705,1.907 -1.41,3.814 -2.114,5.721c0.705,-1.907 1.41,-3.814 2.114,-5.721Z" style="fill:#525a70;fill-opacity:0.54;"/><path d="M294.9,1057.832c0.533,2.503 1.066,5.007 1.598,7.509l-1.617,-1.951c0.006,-1.853 0.012,-3.705 0.018,-5.558Z" style="fill:#464f63;fill-opacity:0.26;"/><path d="M267.288,1171.164c0.311,1.812 0.622,3.624 0.933,5.437l-0.821,0.343c-1.137,-2.916 -1.129,-2.817 -0.112,-5.78Z" style="fill:#575b63;fill-opacity:0.23;"/><path d="M1004.296,1303.91c0.654,1.917 1.308,3.836 1.961,5.753c-0.654,-1.917 -1.308,-3.836 -1.961,-5.753Z" style="fill:#4f5a74;fill-opacity:0.64;"/><path d="M1805.199,657.37c-0.823,1.9 -1.647,3.8 -2.47,5.7c0.823,-1.9 1.647,-3.8 2.47,-5.7Z" style="fill:#515a6e;fill-opacity:0.53;"/><path d="M1774.241,778.64l0.935,1.816l0.118,5.611c-0.351,-2.476 -0.703,-4.951 -1.053,-7.427Z" style="fill:#3a4355;fill-opacity:0.28;"/><path d="M375.104,765.14c-0.788,1.906 -1.576,3.812 -2.365,5.717c0.788,-1.906 1.576,-3.812 2.365,-5.717Z" style="fill:#475269;fill-opacity:0.57;"/><path d="M155.348,1253.73c-0.003,1.944 -0.008,3.888 -0.012,5.833l-0.951,-1.767c0.321,-1.356 0.641,-2.71 0.963,-4.066Z" style="fill:#414857;fill-opacity:0.25;"/><path d="M401.588,659.262c-2.21,7.102 -1.632,7.087 -1.868,7.673c0.003,-0.031 -1.394,-0.239 1.868,-7.673Z" style="fill:#272d3b;fill-opacity:0.41;"/><path d="M1954.579,387.59c-1.465,2.606 -1.205,2.463 -3.939,3.832l3.939,-3.832Z" style="fill:#767f93;fill-opacity:0.46;"/><path d="M290.989,1073.201c0.377,2.489 0.752,4.979 1.129,7.468l-1.149,-1.869l0.02,-5.6Z" style="fill:#474d61;fill-opacity:0.26;"/><path d="M133.171,1332.964c0.61,1.885 1.219,3.769 1.83,5.654l-1.756,-1.925l-0.074,-3.728Z" style="fill:#3a4152;fill-opacity:0.23;"/><path d="M350.724,844.294c0.871,4.503 0.955,4.231 1.262,7.407c-0.97,-3.664 -1.235,-3.183 -1.262,-7.407Z" style="fill:#4f586d;fill-opacity:0.26;"/><path d="M956.461,674.728l0.867,1.658l-3.178,4.021c1.669,-3.006 0.722,-3.016 2.313,-5.679l-0.001,0Z" style="fill:#424a5b;fill-opacity:0.41;"/><path d="M818.101,1550.335c0.347,1.905 0.693,3.808 1.04,5.713c-1.125,-2.983 -1.238,-2.718 -1.04,-5.713Z" style="fill:#4a4d57;fill-opacity:0.17;"/><path d="M1925.725,416.469c-1.487,2.513 -1.175,2.422 -3.92,3.849l3.92,-3.849Z" style="fill:#788294;fill-opacity:0.45;"/><path d="M1054.025,1469.465c1.468,2.731 0.666,2.724 2.261,5.701l-3.157,-4.034l0.897,-1.669l0,0.001Z" style="fill:#404955;fill-opacity:0.43;"/><path d="M73.642,1556.276c0.364,2.476 0.729,4.95 1.093,7.426c-0.853,-3.705 -1.045,-3.45 -1.093,-7.426Z" style="fill:#484e5f;fill-opacity:0.29;"/><path d="M797.149,1631.144c0.625,3.007 0.478,2.817 0.079,5.722c-0.027,-1.907 -0.052,-3.815 -0.079,-5.722Z" style="fill:#515661;fill-opacity:0.22;"/><path d="M96.147,1477.176c-0.126,3.797 -0.106,3.494 -0.126,3.797c-0.062,0.952 -0.333,0.457 -0.424,1.861c-0.72,-2.881 -0.647,-2.615 0.55,-5.657Z" style="fill:#5e636e;fill-opacity:0.22;"/><path d="M362.01,453.169c-1.309,5.621 -1.12,5.538 -1.269,6.006c-0.29,-3.391 0.067,-3.029 1.269,-6.006Z" style="fill:#3a4358;fill-opacity:0.15;"/><path d="M1250.709,626.601c-0.008,0.455 -0.22,0.181 -0.476,5.673c-0.732,-2.894 -0.662,-2.626 0.476,-5.673Z" style="fill:#5d636e;fill-opacity:0.21;"/><path d="M873.408,1147.401c3.856,-0.788 3.598,-0.839 7.705,0l-7.705,0Z" style="fill:#3d4252;fill-opacity:0.17;"/><path d="M1261.239,580.329c-0.024,1.944 -0.049,3.889 -0.073,5.833c0.024,-1.944 0.049,-3.889 0.073,-5.833Z" style="fill:#3f495c;fill-opacity:0.18;"/><path d="M1084.706,1573.404c-0.383,1.909 -0.765,3.82 -1.148,5.729c0.383,-1.909 0.765,-3.82 1.148,-5.729Z" style="fill:#4f5562;fill-opacity:0.14;"/><path d="M341.313,395.436l0.91,2.142c0.072,1.255 0.143,2.511 0.215,3.767c-0.374,-1.969 -0.75,-3.939 -1.125,-5.908Z" style="fill:#4b505e;fill-opacity:0.24;"/><path d="M1717.543,1471.495c-0.374,1.855 -0.749,3.71 -1.123,5.564c0.374,-1.855 0.749,-3.71 1.123,-5.564Z" style="fill:#313849;fill-opacity:0.25;"/><path d="M404.616,638.34c0.44,1.845 0.88,3.688 1.32,5.532c-0.44,-1.845 -0.88,-3.688 -1.32,-5.532Z" style="fill:#454c5d;fill-opacity:0.27;"/><path d="M1606.75,139.514l1.679,0.252c0.66,0.629 1.319,1.257 1.979,1.886c-2.181,-0.749 -1.958,-0.625 -3.658,-2.138Z" style="fill:#434a59;fill-opacity:0.44;"/><path d="M836.742,1477.11c0.452,1.851 0.903,3.702 1.355,5.553c-0.452,-1.851 -0.903,-3.702 -1.355,-5.553Z" style="fill:#434b61;fill-opacity:0.27;"/><path d="M1816.537,622.751l-0.876,5.489c0.292,-1.83 0.584,-3.659 0.876,-5.489Z" style="fill:#606062;fill-opacity:0.04;"/><path d="M135.835,1322.965c0.264,2.278 0.038,1.967 -0.647,6.014c0.216,-2.005 0.431,-4.009 0.647,-6.014Z" style="fill:#4c5469;fill-opacity:0.16;"/><path d="M1744.234,901.714c0.047,1.84 0.096,3.68 0.143,5.521c-0.316,-1.194 -0.632,-2.388 -0.948,-3.582l0.804,-1.939Z" style="fill:#414a5a;fill-opacity:0.23;"/><path d="M876.526,1332.811l0.312,5.782c-0.858,-3.013 -0.863,-2.673 -0.312,-5.782Z" style="fill:#3c414a;fill-opacity:0.18;"/><path d="M282.993,1103.781c0.088,1.893 0.175,3.786 0.262,5.679l-0.262,-5.679Z" style="fill:#5b5c5d;fill-opacity:0.04;"/><path d="M377.41,742.02c0.957,3.089 0.825,2.777 0.307,5.819l-0.307,-5.819Z" style="fill:#353a47;fill-opacity:0.21;"/><path d="M422.637,549.695c-0.158,1.861 -0.318,3.72 -0.476,5.581c-0.209,-3.028 -0.207,-2.649 0.476,-5.581Z" style="fill:#353f4f;fill-opacity:0.29;"/><path d="M351.885,422.579c-0.328,3.063 -0.29,2.674 -1.426,5.766c0.475,-1.922 0.951,-3.844 1.426,-5.766Z" style="fill:#323747;fill-opacity:0.25;"/><path d="M421.635,568.784c0.832,2.958 0.661,2.769 0.262,5.766l-0.262,-5.766Z" style="fill:#424650;fill-opacity:0.16;"/><path d="M271.596,1148.046c0.586,1.929 1.172,3.858 1.758,5.786c-0.586,-1.929 -1.172,-3.858 -1.758,-5.786Z" style="fill:#343b4d;fill-opacity:0.25;"/><path d="M975.94,603.424c0.238,1.862 0.476,3.724 0.714,5.586c-0.238,-1.862 -0.476,-3.724 -0.714,-5.586Z" style="fill:#636a7d;fill-opacity:0.19;"/><path d="M1694.794,1423.367l1.819,1.969l0.496,1.707c-0.772,-1.225 -1.543,-2.451 -2.315,-3.676Z" style="fill:#1f2838;fill-opacity:0.44;"/></g></svg>