<?xml version="1.0" encoding="UTF-8" standalone="no"?><!DOCTYPE svg PUBLIC "-//W3C//DTD SVG 1.1//EN" "http://www.w3.org/Graphics/SVG/1.1/DTD/svg11.dtd"><svg width="100%" height="100%" viewBox="0 0 2000 2000" version="1.1" xmlns="http://www.w3.org/2000/svg" xmlns:xlink="http://www.w3.org/1999/xlink" xml:space="preserve" xmlns:serif="http://www.serif.com/" style="fill-rule:evenodd;clip-rule:evenodd;stroke-linejoin:round;stroke-miterlimit:2;"><g id="Sans-titre-4--3-.png" serif:id="Sans titre-4 (3).png"><path d="M353.375,337.021c-0.893,-4.103 -5.805,-14.55 -4.091,-14.889c0.95,-0.188 1151.938,-0.741 1155.373,0.291c0.718,0.216 0.289,0.65 6.711,6.55c1.11,1.02 0.928,1.146 13.623,13.016c1.471,1.309 1.277,1.202 3.165,1.85c18.508,17.323 18.395,17.392 19.919,18.395c0.615,0.458 1.231,0.917 1.846,1.375c1.944,2.562 46.545,44.665 53.308,48.349c7.793,10.647 8.562,9.527 19.644,20.32c0.564,0.357 4.524,2.861 6.754,4.891c3.056,3.761 3.096,3.419 6.532,6.813c24.27,22.082 23.943,22.479 26.609,23.449l0.264,1.28c15.699,4.52 192.535,-1.928 191.493,3.305c-0.508,2.549 -10.552,10.89 -11.566,11.732c-0.86,1.107 -7.966,8.087 -8.31,8.363c-7.143,8.456 -11.766,10.797 -6.678,11.17c17.576,1.289 52.164,-2.45 48.09,3.61c-3.152,4.687 -4.498,3.383 -50.11,49.747l-3.408,3.316c-10.934,11.046 -10.827,10.757 -21.558,21.671l-3.392,3.33c-4.882,5.055 -25.95,26.119 -28.214,28.382c-18.393,18.466 -18.116,18.275 -36.607,36.657c-0.475,0.758 -2.31,3.688 -4.261,10.338c-0.578,2.76 -1.156,5.52 -1.734,8.28l-3.149,11.697l-0.177,4.881c-1.573,3.102 -1.473,2.897 -1.713,6.638c-2.734,8.473 -2.881,8.264 -3.992,13.283c-1.065,3.401 -1.035,3.12 -1.555,6.651c-2.154,6.591 -1.617,6.37 -3.444,13.273c-0.162,0.563 -0.268,0.245 -2.421,6.917c-0.601,2.18 -1.202,4.359 -1.803,6.539l-0.957,6.474c-2.684,10.313 -2.593,9.936 -4.946,20.03c-2.359,8.348 -2.251,8.16 -4.376,16.733l0.124,1.697c-1.554,3.142 -1.43,2.919 -1.67,6.64c-0.712,1.644 -1.425,3.288 -2.137,4.932c-0.528,2.787 -1.056,5.574 -1.584,8.361c-2.308,6.631 -1.772,6.57 -3.444,13.272c-0.672,2.756 -1.344,5.513 -2.016,8.269l-2.276,6.839c-0.509,2.265 -1.019,4.529 -1.528,6.794c-0.583,2.19 -1.167,4.38 -1.75,6.57c-0.52,2.239 -1.04,4.478 -1.56,6.716l-1.849,9.941c-0.941,4.144 -1.573,3.754 -2.52,8.114c-2.507,11.536 -3.835,12.856 -4.329,20.089c-0.597,1.678 -1.194,3.355 -1.791,5.033c-0.359,1.102 -0.747,0.692 -1.095,1.762c-0.171,0.525 -0.126,0.496 -1.702,6.691c-0.347,1.586 -0.695,3.172 -1.042,4.758c-0.507,2.22 -1.014,4.44 -1.521,6.659c-0.55,2.223 -1.1,4.445 -1.65,6.668l-0.729,1.818c-0.622,2.213 -1.245,4.425 -1.867,6.638c-3.025,12.561 -2.992,12.521 -3.251,13.36l-3.487,14.979l-0.221,1.626l-0.603,1.464c-0.829,1.276 -1.195,1.838 -4.605,18.454c-1.214,3.326 -0.415,3.34 -1.548,6.645c-0.705,2.199 -1.41,4.399 -2.114,6.598c-0.544,2.228 -1.087,4.457 -1.631,6.685c-2.533,9.58 -3.735,8.78 -11.874,14.242c-4.943,3.56 -5.071,3.019 -9.871,6.814c-4.547,1.845 -15.096,9.653 -16.349,10.579c-0.611,0.467 -1.222,0.935 -1.833,1.402c-5.535,1.876 -4.868,2.663 -8.144,5.285c-8.352,5.197 -8.284,4.888 -16.561,10.13c-38.102,26.428 -38.506,25.696 -41.808,27.997c-0.591,0.508 -1.182,1.015 -1.773,1.523c-4.493,2.107 -4.453,1.674 -8.219,5.198c-4.478,3.443 -19.753,10.672 -24.958,16.606c-1.339,0.302 -6.415,1.449 -14.699,8.854l-0.569,0.764c-9.967,5.16 -24.303,15.603 -26.333,17.082c-0.545,0.579 -1.089,1.159 -1.634,1.738c-4.493,2.353 -4.369,2.03 -8.266,5.084c-6.792,3.5 -6.46,3.898 -7.044,4.196c-19.159,9.794 -16.751,14.213 -11.466,29.062c0.483,2.952 0.556,2.528 1.965,4.948l0.209,1.587c0.029,0.174 0.518,-0.503 1.279,1.794c0.29,1.491 2.739,14.064 5.36,18.22c0.38,1.598 2.268,9.544 5.29,19.835c0.487,0.886 2.034,3.702 4.131,11.945l0.978,4.777l1.656,4.96c0.924,2.262 1.847,4.525 2.771,6.787c0.416,1.195 3.53,10.133 5.036,14.996c2.134,7.164 1.732,6.918 4.925,13.324l0.926,5.287c0.784,1.298 0.872,1.444 5.4,18.165l1.477,3.346c1.64,3.124 1.415,2.952 3.83,5.876c38.503,0.257 38.259,0.148 41.583,0.278c0,0 4.28,5.044 4.652,5.483c0.644,1.078 1.288,2.157 1.932,3.235c4.58,12.651 4.769,12.207 5.143,13.284c0.229,0.673 2.142,6.299 3.393,8.215c3.279,3.209 20.729,-1.843 22.291,12.082c0.061,0.544 0.367,3.273 2.435,6.401c4.687,8.018 12.068,29.16 12.973,31.751c4.009,7.314 13.386,31.742 14.459,34.539c1.969,4.23 1.784,3.978 3.346,8.358c2.577,4.619 5.304,10.985 5.721,11.96c0.18,0.391 6.042,13.852 6.567,15.057c0.668,1.06 1.335,2.121 2.003,3.181c0.271,2.098 0.752,1.677 1.072,3.642c1.097,6.646 12.35,32.054 13.56,34.785c0.692,1.617 1.385,3.233 2.077,4.85c0.482,0.59 0.965,1.18 1.447,1.771c0.4,3.979 1.248,12.411 29.674,40.234c10.334,11.59 10.376,11.202 20.341,23.001c1.868,1.581 2.907,2.461 21.455,21.805c1.096,1.144 2.192,2.288 3.288,3.432c10.206,10.094 19.249,23.504 27.145,27.916c1.431,3.424 1.411,3.385 1.435,3.423c0.151,0.159 0.006,-0.001 13.176,15.116l1.592,1.726c2.249,2.204 4.498,4.408 6.747,6.611l1.625,1.65c15.875,17.467 17.459,15.89 25.533,28.125c-1.906,13.378 -8.01,5.561 -25.376,5.572c-205.933,-0.044 -411.866,-0.089 -617.799,-0.133c-1.366,-2.202 -2.872,-6.494 -3.076,-7.077c-0.249,-0.938 -0.267,-0.535 -3.413,-11.648c-0.608,-1.654 -1.216,-3.309 -1.823,-4.963c-1.29,-3.219 0.582,-4.725 -4.922,-6.813l-21.678,0.412c-3.157,-4.756 -3.935,-10.185 -5.682,-15.085c-2.489,-9.507 -2.936,-9.127 -5.54,-18.627c-2.687,-5.55 -1.891,-5.622 -3.693,-11.524c-0.576,-1.659 -1.152,-3.317 -1.728,-4.976c-0.476,-1.679 -0.951,-3.358 -1.427,-5.037c-1.433,-6.036 -1.65,-5.739 -3.891,-11.547c-1.596,-3.472 -1.729,-6.082 -1.757,-6.63c-2.598,-11.313 -6.239,-22.993 -6.855,-24.971c-2.192,-5.22 -3.276,-10.591 -3.466,-11.535c-0.243,-0.978 -0.39,-0.725 -4.044,-11.929c-0.585,-2.208 -1.17,-4.415 -1.755,-6.623c-0.55,-1.67 -1.1,-3.339 -1.65,-5.009c-0.548,-2.765 -0.5,-2.498 -1.807,-4.958c-0.076,-0.277 -0.955,-3.468 -0.955,-3.468c-1.763,-7.953 -1.613,-7.645 -2.301,-9.879c-1.38,-2.576 -0.687,-2.57 -1.956,-4.933c-4.214,-16.033 -5.202,-15.507 -9.519,-31.751c-0.553,-2.223 -1.106,-4.446 -1.659,-6.669c-0.552,-1.669 -1.104,-3.338 -1.656,-5.007c-0.529,-1.663 -1.057,-3.326 -1.586,-4.989c-2.827,-8.447 -2.743,-8.241 -5.649,-16.54l0.115,-1.669c-3.423,-11.36 -2.224,-11.776 -5.703,-15.006c-0.01,-1.199 -0.021,-2.397 -0.031,-3.596c-3.125,-5.251 -1.343,-5.7 -3.621,-11.519c-0.195,-0.721 -1.21,-7.669 -2.38,-9.724c-1.725,-3.03 -0.967,-3.105 -2.046,-6.67l-1.703,-6.689c-2.45,-5.177 -3.825,-10.817 -4.061,-11.786l-1.832,-6.653c-0.566,-1.659 -1.132,-3.319 -1.697,-4.978c-1.269,-2.901 -0.547,-2.947 -2.598,-5.091l0.442,-1.461c-1.838,-4.336 -2.457,-12.985 -5.389,-16.923c-0.153,-0.567 -0.306,-1.133 -0.459,-1.7c-0.545,-2.193 -1.09,-4.385 -1.635,-6.578c-0.493,-1.657 -0.986,-3.313 -1.478,-4.97c-0.42,-2.114 -0.841,-4.229 -1.261,-6.343c-0.569,-1.674 -1.137,-3.348 -1.706,-5.022c-0.124,-0.403 -1.547,-5.04 -1.547,-5.04c-0.228,-0.674 -1.91,-5.653 -2.659,-8.49c-0.553,-1.662 -1.107,-3.323 -1.66,-4.985c-0.481,-2.787 -0.464,-2.526 -1.462,-5.035c-1.223,-4.414 -5.509,-16.832 -7.537,-24.773c-0.59,-2.191 -1.18,-4.382 -1.77,-6.573c-2.028,-5.528 -4.669,-15.341 -5.031,-16.687c-0.158,-0.565 -0.264,-0.204 -2.335,-6.957c-0.516,-1.657 -1.031,-3.314 -1.547,-4.971c-0.09,-0.42 -0.662,-3.104 -1.918,-5.013c-3.414,-2.641 -99.266,-2.566 -105.164,-0.068c-0.564,0.836 0.367,0.927 -0.106,1.628c-0.108,0.16 0,0 -1.688,1.73c-1.033,4.366 -1.312,4.085 -2.34,8.599c-0.608,2.772 -1.215,5.544 -1.823,8.316l-1.897,4.921c-2.098,11.139 -2.072,10.735 -4.804,21.614l0.071,3.321c-0.588,1.696 -1.176,3.393 -1.764,5.089c-7.954,30.389 -9.155,30.675 -7.411,33.487c2.503,1.317 2.513,-0.21 35.338,1.139c4.376,0.18 1.695,2.25 0.63,10.375l-1.908,6.59c-0.012,0.058 -0.002,-0 -1.89,11.539c0.049,7.232 31.892,-0.198 33.576,6.723l-0.857,3.137c-0.29,1.153 -0.632,0.807 -0.913,1.924c-0.134,0.532 -0.11,0.496 -1.491,6.689c-0.587,2.77 -1.174,5.54 -1.762,8.311c-1.136,4.406 -2.271,8.812 -3.407,13.218l0.118,1.653c-3.011,9.078 -2.895,8.898 -5.292,18.36l0.062,1.637c-0.549,1.693 -1.099,3.386 -1.648,5.079c-1.872,6.799 -5.744,18.482 -6.273,20.079c-3.309,15.796 -4.588,18.4 -5.314,19.877c-0.501,2.233 -1.002,4.466 -1.503,6.699c-0.512,2.223 -1.023,4.446 -1.535,6.668l-1.905,6.584c-3.172,14.511 -3.679,14.085 -6.995,28.261c-0.894,2.276 -1.788,4.553 -2.682,6.829c-0.282,2.154 -0.565,4.308 -0.847,6.462c-0.38,1.088 -0.634,0.756 -1.002,1.81c-0.138,0.396 -0.107,0.373 -1.443,5.036c-0.588,1.662 -1.176,3.324 -1.764,4.986l-0.911,6.415c-0.79,2.831 -1.58,5.661 -2.369,8.492c-0.575,1.729 -1.151,3.459 -1.726,5.188c-0.264,1.744 -0.955,6.316 -5.098,21.448l0.056,3.231c-0.566,1.73 -1.131,3.459 -1.697,5.189l-0.174,1.565c-1.258,3.856 -2.516,7.711 -3.774,11.567c-0.209,0.947 -1.483,6.712 -3.182,11.698l-0.067,1.627c-0.667,2.195 -1.334,4.39 -2.001,6.585l-2.238,6.928c-0.619,1.655 -1.239,3.309 -1.858,4.964c-3.206,14.913 -4.014,21.112 -4.256,22.964c-0.251,1.196 -0.503,2.391 -0.754,3.587c-3.96,6.389 -2.719,6.484 -5.175,18.345c-0.11,0.538 -0.951,4.664 -1.8,6.618c-1.389,1.87 -1.628,6.052 -1.659,6.595c-1.953,6.827 -1.854,6.473 -3.712,13.297c-4.022,2.749 -4.554,2.157 -589.35,2.202c-4.225,0 -3.908,-0.167 -8.405,-0.36c0.28,-1.847 -0.097,-1.552 0.193,-3.465c0.082,-0.539 0.096,-0.495 1.3,-6.688l-0.166,-1.716c2.221,-3.776 2.673,-3.585 3.423,-11.611c0.61,-1.65 1.22,-3.3 1.829,-4.95c-3.046,-3.439 -32.18,-1.466 -39.884,-1.264l0.297,-5.363c1.855,-8.276 3.66,-14.052 4.037,-15.257c1.482,-6.822 0.721,-6.71 3.641,-13.169c0.507,-2.229 1.014,-4.458 1.522,-6.687c0.252,-1.159 0.939,-7.406 1.01,-8.052c0.019,-0.168 0,-0 0.87,-1.929c0.513,-0.671 0.137,-0.751 3.587,-9.926l-0.211,-3.326c1.173,-3.153 2.231,-2.68 3.582,-11.65c0.676,-2.191 1.352,-4.382 2.028,-6.572l2.254,-6.922c0.608,-1.654 1.216,-3.307 1.823,-4.961c0.549,-3.333 1.097,-6.667 1.646,-10l1.096,-4.716c0.744,-3.952 1.488,-7.903 2.233,-11.855c0.869,-1.605 1.738,-3.21 2.606,-4.815c0.872,-3.952 1.743,-7.903 2.615,-11.855c0.055,-0.674 0.124,-1.519 1.749,-8.274c1.381,-2.33 1.589,-2.071 1.946,-4.956c0.618,-2.207 1.235,-4.414 1.853,-6.621c0.216,-0.945 1.531,-6.693 3.189,-11.69c0.673,-2.745 1.347,-5.489 2.02,-8.234l2.199,-6.874l1.119,-4.722c2.957,-11.924 3.326,-11.599 5.653,-23.631l0.159,-1.621c1.573,-1.853 4.836,-15.254 5.165,-16.606c1.283,-3.542 1.562,-7.568 1.609,-8.238c0.743,-1.653 1.487,-3.305 2.23,-4.958c5.006,-20.068 5.129,-20.299 5.984,-21.902c0.182,-0.341 0,-0 0.968,-4.73c3.278,-13.055 4.969,-17.083 5.568,-18.509c0.72,-3.416 0.237,-3.192 0.919,-6.425c0.174,-0.823 0.18,-0.758 2.434,-10.232l0.208,-1.626c1.774,-2.278 1.223,-2.354 5.281,-19.906c1.389,-3.208 1.279,-3.008 1.394,-6.616c0.597,-1.696 1.195,-3.393 1.792,-5.089c6.205,-14.819 10.679,-8.78 26.888,-8.812c26.138,-0.052 25.843,1.439 51.733,-0.63c3.381,-2.947 2.666,-3.245 4.251,-7.26c1.163,-4.983 2.326,-9.966 3.489,-14.948c0.139,-0.618 6.137,-18.816 6.851,-26.542c2.118,-5.856 1.536,-5.792 3.491,-11.698l0.26,-1.595l0.71,-0.297c0.404,-1.56 0.808,-3.12 1.213,-4.679c0.154,-0.689 0.228,-0.384 2.268,-8.53c0.32,-2.164 0.64,-4.328 0.961,-6.492c0.834,-2.804 1.667,-5.608 2.501,-8.412c0.704,-2.346 0.326,-2.213 1.07,-4.692c0.169,-0.563 0.166,-0.518 2.247,-6.991c1.71,-7.834 1.471,-7.521 3.462,-14.965l0.22,-1.642c2.446,-3.376 3.828,-14.915 3.987,-16.243c0.294,-1.222 0.587,-2.444 0.881,-3.666c1.256,-3.405 1.364,-3.153 1.866,-6.694c0.712,-2.188 1.423,-4.376 2.135,-6.564c0.552,-2.233 1.104,-4.465 1.655,-6.698c0.572,-2.189 1.144,-4.378 1.716,-6.567c1.085,-3.628 1.211,-3.225 2.298,-6.948l1.554,-6.573c0.681,-2.779 1.362,-5.558 2.042,-8.337c0.456,-1.172 0.912,-2.344 1.369,-3.515c0.106,-0.663 0.212,-0.362 1.697,-8.214c1.204,-6.775 1.771,-6.408 3.545,-13.183l-0.123,-3.32c4.676,-12.442 2.77,-12.723 7.133,-24.979c0.309,-1.224 0.485,-0.757 4.281,-15.186l1.209,-4.628l2.231,-6.937c0.563,-2.787 1.125,-5.573 1.688,-8.36l1.742,-6.571c0.299,-0.93 1.9,-5.905 3.22,-11.78c0.7,-3.534 0.58,-3.384 1.891,-6.585l1.813,-9.942c3.651,-7.426 3.958,-15.841 7.062,-26.544c1.1,-3.364 1.212,-2.956 1.642,-6.681c2.048,-6.832 2.398,-6.362 4.466,-13.398c1.611,-6.656 3.222,-13.313 4.833,-19.969c3.559,-16.082 4.225,-15.645 7.117,-31.622c0.514,-1.654 1.028,-3.308 1.541,-4.962c0.682,-1.649 1.364,-3.298 2.046,-4.947c0.631,-2.764 1.262,-5.528 1.894,-8.293c2.001,-6.634 1.822,-6.307 3.485,-13.279c0.558,-2.234 1.117,-4.467 1.675,-6.701c0.681,-1.793 1.362,-3.587 2.042,-5.38c0.592,-2.74 1.184,-5.481 1.776,-8.221l1.647,-6.579c0.645,-2.758 1.289,-5.516 1.934,-8.274c0.258,-2.118 0.516,-4.237 0.774,-6.355c0.318,-0.659 0.636,-1.319 0.954,-1.978l0.486,-1.541c0.85,-1.098 1.367,-1.768 4.693,-16.714l-0.061,-1.657c0.205,-0.507 -0.295,-0.494 1.616,-6.639c3.93,-11.608 3.878,-11.436 3.923,-11.615l-0.162,-1.702c0.549,-1.652 1.098,-3.304 1.647,-4.957c0.692,-2.753 1.383,-5.506 2.075,-8.259c0.558,-2.232 1.115,-4.465 1.673,-6.697c0.702,-2.318 1.404,-4.636 2.106,-6.955c0.64,-2.183 1.28,-4.365 1.92,-6.548c0.487,-2.235 0.974,-4.469 1.461,-6.704c0.562,-2.77 1.124,-5.54 1.686,-8.31c0.559,-2.22 1.117,-4.44 1.676,-6.66l0.099,-1.542c5.008,-12.254 4.835,-12.64 0.108,-24.855c-0.352,-0.94 -2.573,-6.872 -3.873,-11.928c-1.616,-3.031 -1.1,-3.33 -4.071,-4.554c-6.675,0.094 -13.35,0.188 -20.026,0.282c-0.603,-0.637 -0.06,-0.805 -4.08,-10.185c-2.581,-4.38 -2.253,-4.229 -3.714,-8.811c-0.704,-2.178 -1.407,-4.356 -2.111,-6.533c-1.443,-3.438 -4.787,-13.719 -5.178,-14.921c-0.487,-1.133 -0.974,-2.265 -1.461,-3.398c-4.273,-11.298 -7.372,-21.572 -7.945,-23.47c-0.29,-0.743 -0.075,-0.646 -2.834,-9.561c-1.029,-3.927 -1.241,-3.46 -2.256,-7.073c-0.534,-0.648 -0.521,-0.633 -3.67,-9.834l-0.323,-1.525c-1.281,-1.83 -2.722,-6.262 -2.905,-6.826c-1.053,-3.022 -1.796,-9.922 -5.133,-13.282l-0.787,-1.853c-0.149,-0.58 -0.297,-1.159 -0.446,-1.739c-0.165,-2.605 -1.283,-1.917 -9.327,-31.266c-2.192,-5.083 -1.807,-5.009 -4.039,-10.219c-0.553,-1.662 -1.107,-3.323 -1.66,-4.985c-0.7,-1.624 -1.4,-3.249 -2.099,-4.873c-3.177,-10.392 -2.673,-10.176 -7.407,-20.097l-0.305,-1.843c-4.179,-13.394 -4.944,-12.908 -8.456,-26.459c-1.559,-3.479 -3.182,-9.208 -3.412,-10.023l-1.676,-4.969c-0.689,-1.623 -1.379,-3.247 -2.068,-4.87c-0.268,-0.798 -1.679,-4.996 -3.215,-10.025c-1.75,-4.553 -3.751,-12.638 -5.396,-14.893l-0.669,-2.05c-0.544,-1.647 -1.088,-3.294 -1.632,-4.941c-1.416,-4.259 -0.775,-4.049 -2.152,-8.137c-0.18,-0.535 -2.289,-5.914 -2.49,-6.427c-1.007,-3.358 -4.116,-11.267 -5.078,-16.714c-2.524,-3.991 -7.201,-18.423 -7.731,-20.059c-1.546,-4.302 -3.372,-12.331 -5.168,-14.86c-0.944,-1.997 -2.118,-6.388 -2.269,-6.954l875.563,376.405c-2.592,-2.882 -3.349,-2.235 -85.384,-2.261c-12.124,-0.004 -142.387,-0.044 -151.549,0.019c-9.466,0.066 -0.896,9.788 -9.683,13.977l0.107,3.259c1.175,5.274 -0.141,5.016 -2.38,11.528l-0.868,3.439c0.206,1.611 0.412,3.222 0.618,4.833c-0.563,1.665 -1.125,3.33 -1.688,4.996c-1.311,3.187 -1.017,2.911 -1.636,6.663c-1.465,3.314 -1.037,3.093 -1.552,6.835c-2.63,6.597 -8.224,30.534 -8.849,33.212c0.343,3.825 0.193,4.096 -3.746,5.158l0.75,1.435c0.565,16.508 -3.032,15.393 -6.455,23.337c1.575,8.793 5.628,3.88 25.424,3.887c175.928,0.061 176.96,0.459 180.04,-3.159c18.335,-9.762 18.017,-10.257 19.788,-10.548c1.571,-7.229 5.163,-4.207 10.156,-9.828c2.996,-3.373 6.224,0.79 13.703,-9.774c0.17,-0.24 0,-0 3.189,-1.824c0.258,-0.678 0.515,-1.355 0.773,-2.033c-0.293,-2.725 -0.585,-5.449 -0.878,-8.174c2.764,-7.664 -0.206,-9.946 5.949,-11.767c0.052,-0.675 0.132,-0.612 1.749,-8.284c-0.633,-2.504 -0.573,-2.272 0.412,-4.909c0.147,-1.62 0.295,-3.239 0.442,-4.859c1.423,-2.656 1.529,-2.266 2.973,-5.086c0.474,-1.14 0.948,-2.28 1.422,-3.42c-2.323,-7.441 2.567,-11.085 3.345,-11.665l0.187,-1.64c-1.029,-4.499 -1.308,-4.332 0.678,-8.321c0.021,-1.682 0.042,-3.365 0.063,-5.047c0.982,-5.448 0.757,-5.213 2.901,-9.977l-875.563,-376.405l603.247,492.835c-2.038,4.743 -2.095,4.651 -2.231,5.073c3.218,2.475 3.686,2.189 92.591,2.126c106.837,-0.075 107.364,1.252 118.523,-4.874l-3.42,-1.598c-3.08,3.619 -4.112,3.221 -180.04,3.159c-19.796,-0.007 -23.848,4.906 -25.424,-3.887l-603.247,-492.835l637.023,371.864c-9.219,4.085 -5.933,6.574 -8.075,16.277c8.787,-4.189 0.217,-13.911 9.683,-13.977c9.162,-0.064 139.425,-0.023 151.549,-0.019c82.035,0.026 82.792,-0.621 85.384,2.261c0.487,-1.197 0.973,-2.395 1.46,-3.592c-1.764,-0.39 -1.463,-0.566 -3.535,-0.32c-217.798,0.896 -218.056,3.727 -236.465,-0.629l-637.023,-371.864l855.546,461.588c-3.189,1.824 -3.019,1.584 -3.189,1.824c-7.48,10.564 -10.707,6.4 -13.703,9.774c-4.992,5.62 -8.585,2.598 -10.156,9.828l0.004,1.684c20.055,-15.059 24.817,-12.691 27.043,-23.109l-855.546,-461.588l619.294,424.806c-0.595,2.65 -6.266,27.892 -7.936,33.013l1.341,5.086c0.626,-2.677 6.22,-26.615 8.849,-33.212c-0.751,-1.629 -1.503,-3.258 -2.254,-4.888l-619.294,-424.806l609.703,469.497l-2.75,3.479c-3.341,13.859 -3.171,13.785 -3.567,14.949c-0.046,1.636 -0.092,3.273 -0.138,4.909c3.423,-7.945 7.021,-6.83 6.455,-23.337l-609.703,-469.497l877.023,372.813c-0.487,1.197 -0.973,2.395 -1.46,3.592c-2.144,4.765 -1.919,4.529 -2.901,9.977c-0.021,1.682 -0.042,3.365 -0.063,5.047c-1.985,3.988 -1.707,3.822 -0.678,8.321c7.56,-22.895 6.242,-25.063 5.102,-26.937l-877.023,-372.813l861.39,439.614c-6.155,1.821 -3.185,4.103 -5.949,11.767c0.89,3.3 0.798,3.043 0.89,3.3c0.544,1.517 0.722,1.111 1.37,2.918c1.155,-6.141 3.382,-16.549 3.689,-17.985l-861.39,-439.614l626.92,396.38c-2.311,7.374 -1.817,7.126 -3.758,14.914c0.521,2.545 0.396,2.407 1.575,4.9c0.563,-1.665 1.125,-3.33 1.688,-4.996c-0.206,-1.611 -0.412,-3.222 -0.618,-4.833l0.868,-3.439c0.082,-2.182 0.163,-4.365 0.245,-6.547l-626.92,-396.38l611.358,457.818c-0.802,3.415 -1.603,6.829 -2.405,10.244c3.939,-1.062 4.089,-1.333 3.746,-5.158l-1.341,-5.086l-611.358,-457.818l871.734,401.391c-0.778,0.58 -5.668,4.224 -3.345,11.665c1.837,-5.855 1.698,-5.479 3.345,-11.665l-871.734,-401.391l620.9,418.124c-0.535,2.227 -1.07,4.454 -1.606,6.682c0.751,1.629 1.503,3.258 2.254,4.888c0.516,-3.742 0.087,-3.521 1.552,-6.835c-0.134,-0.396 -0.246,-0.215 -2.201,-4.734l-620.9,-418.124l623.162,411.295l-2.262,6.829c1.955,4.519 2.067,4.338 2.201,4.734c0.619,-3.752 0.326,-3.475 1.636,-6.663c-1.18,-2.493 -1.054,-2.356 -1.575,-4.9l-623.162,-411.295l629.055,391.4c-0.712,1.66 -1.424,3.321 -2.135,4.981c-0.082,2.182 -0.163,4.365 -0.245,6.547c2.239,-6.511 3.555,-6.253 2.38,-11.528l-629.055,-391.4l866.966,416.476c-1.444,2.82 -1.55,2.43 -2.973,5.086c0.948,3.68 1.016,3.513 1.086,4.813c1.136,-3.289 1.239,-3.059 1.769,-6.64l0.118,-3.258l-866.966,-416.476Z" style="fill:#152033;fill-opacity:1;"/><path d="M518.797,738.337c18.812,-71.957 19.679,-71.747 20.457,-78.163c0.734,-6.054 -46.842,-2.151 -51.733,-3.304c-4.118,-0.971 -68.591,-198.165 -108.263,-309.719c-2.486,-6.991 2.677,-3.857 10.034,-3.845c1015.771,1.709 1015.685,-1.391 1103.994,-0.049c5.051,0.077 159.406,147.003 164.916,148.029c1.709,0.318 136.212,0.288 143.412,0.032c4.068,-0.144 -0.945,4.379 -1.23,4.636c-3.876,3.498 -108.313,108.754 -112.074,112.857c-7.483,8.165 -36.227,137.129 -62.411,236.043c-28.486,107.611 -22.74,111.8 -38.95,122.454c-196.021,128.839 -196.743,127.518 -213.095,139.688c-6.583,4.899 59.347,196.933 65.154,213.848c1.595,4.645 42.303,2.134 64.155,2.524c7.641,0.136 74.372,171.561 80.687,178.687c102.079,115.175 105.348,112.051 113.973,122.271c5.49,6.505 -4.154,2.648 -106.37,2.603c-423.523,-0.186 -477.978,0.372 -479.848,-0.293c-3.805,-1.353 -85.811,-283.069 -116.095,-380.43c-16.668,-53.584 -25.084,-87.509 -28.468,-88.134c-10.478,-1.934 -10.555,-0.514 -133.185,-0.303c-10.447,0.018 -18.898,-6.459 -24.183,13.753c-3.097,11.84 -36.822,140.8 -38.472,148.066c-1.83,8.059 73.381,0.626 74.368,4.903c0.513,2.222 -26.435,102.566 -28.823,111.461c-46.769,174.151 -47.119,191.06 -54.498,191.083c-43.953,0.137 -425.012,1.327 -549.421,-0.063c-1.413,-0.016 -4.21,-0.56 0.285,-17.66c5.955,-22.652 65.396,-248.78 75.125,-282.971c2.105,-7.397 74.448,-0.01 78.465,-4.477c2.015,-2.24 150.743,-578.079 152.095,-583.528l710.141,-24.911c-2.592,-2.882 -3.349,-2.235 -85.384,-2.261c-12.124,-0.004 -142.387,-0.044 -151.549,0.019c-9.466,0.066 -0.896,9.788 -9.683,13.977l0.107,3.259c1.175,5.274 -0.141,5.016 -2.38,11.528l-0.868,3.439c0.206,1.611 0.412,3.222 0.618,4.833c-0.563,1.665 -1.125,3.33 -1.688,4.996c-1.311,3.187 -1.017,2.911 -1.636,6.663c-1.465,3.314 -1.037,3.093 -1.552,6.835c-2.63,6.597 -8.224,30.534 -8.849,33.212c0.343,3.825 0.193,4.096 -3.746,5.158l0.75,1.435c0.565,16.508 -3.032,15.393 -6.455,23.337c1.575,8.793 5.628,3.88 25.424,3.887c175.928,0.061 176.96,0.459 180.04,-3.159c18.335,-9.762 18.017,-10.257 19.788,-10.548c1.571,-7.229 5.163,-4.207 10.156,-9.828c2.996,-3.373 6.224,0.79 13.703,-9.774c0.17,-0.24 0,-0 3.189,-1.824c0.258,-0.678 0.515,-1.355 0.773,-2.033c-0.293,-2.725 -0.585,-5.449 -0.878,-8.174c2.764,-7.664 -0.206,-9.946 5.949,-11.767c0.052,-0.675 0.132,-0.612 1.749,-8.284c-0.633,-2.504 -0.573,-2.272 0.412,-4.909c0.147,-1.62 0.295,-3.239 0.442,-4.859c1.423,-2.656 1.529,-2.266 2.973,-5.086c0.474,-1.14 0.948,-2.28 1.422,-3.42c-2.323,-7.441 2.567,-11.085 3.345,-11.665l0.187,-1.64c-1.029,-4.499 -1.308,-4.332 0.678,-8.321c0.021,-1.682 0.042,-3.365 0.063,-5.047c0.982,-5.448 0.757,-5.213 2.901,-9.977l-710.141,24.911l437.825,91.519c-2.038,4.743 -2.095,4.651 -2.231,5.073c3.218,2.475 3.686,2.189 92.591,2.126c106.837,-0.075 107.364,1.252 118.523,-4.874l-3.42,-1.598c-3.08,3.619 -4.112,3.221 -180.04,3.159c-19.796,-0.007 -23.848,4.906 -25.424,-3.887l-437.825,-91.519l471.601,-29.452c-9.219,4.085 -5.933,6.574 -8.075,16.277c8.787,-4.189 0.217,-13.911 9.683,-13.977c9.162,-0.064 139.425,-0.023 151.549,-0.019c82.035,0.026 82.792,-0.621 85.384,2.261c0.487,-1.197 0.973,-2.395 1.46,-3.592c-1.764,-0.39 -1.463,-0.566 -3.535,-0.32c-217.798,0.896 -218.056,3.727 -236.465,-0.629l-471.601,29.452l690.124,60.272c-3.189,1.824 -3.019,1.584 -3.189,1.824c-7.48,10.564 -10.707,6.4 -13.703,9.774c-4.992,5.62 -8.585,2.598 -10.156,9.828l0.004,1.684c20.055,-15.059 24.817,-12.691 27.043,-23.109l-690.124,-60.272l453.872,23.49c-0.595,2.65 -6.266,27.892 -7.936,33.013l1.341,5.086c0.626,-2.677 6.22,-26.615 8.849,-33.212c-0.751,-1.629 -1.503,-3.258 -2.254,-4.888l-453.872,-23.49l444.281,68.181l-2.75,3.479c-3.341,13.859 -3.171,13.785 -3.567,14.949c-0.046,1.636 -0.092,3.273 -0.138,4.909c3.423,-7.945 7.021,-6.83 6.455,-23.337l-444.281,-68.181l711.601,-28.502c-0.487,1.197 -0.973,2.395 -1.46,3.592c-2.144,4.765 -1.919,4.529 -2.901,9.977c-0.021,1.682 -0.042,3.365 -0.063,5.047c-1.985,3.988 -1.707,3.822 -0.678,8.321c7.56,-22.895 6.242,-25.063 5.102,-26.937l-711.601,28.502l695.968,38.298c-6.155,1.821 -3.185,4.103 -5.949,11.767c0.89,3.3 0.798,3.043 0.89,3.3c0.544,1.517 0.722,1.111 1.37,2.918c1.155,-6.141 3.382,-16.549 3.689,-17.985l-695.968,-38.298l461.497,-4.935c-2.311,7.374 -1.817,7.126 -3.758,14.914c0.521,2.545 0.396,2.407 1.575,4.9c0.563,-1.665 1.125,-3.33 1.688,-4.996c-0.206,-1.611 -0.412,-3.222 -0.618,-4.833l0.868,-3.439c0.082,-2.182 0.163,-4.365 0.245,-6.547l-461.497,4.935l445.936,56.502c-0.802,3.415 -1.603,6.829 -2.405,10.244c3.939,-1.062 4.089,-1.333 3.746,-5.158l-1.341,-5.086l-445.936,-56.502l706.312,0.075c-0.778,0.58 -5.668,4.224 -3.345,11.665c1.837,-5.855 1.698,-5.479 3.345,-11.665l-706.312,-0.075l455.478,16.808c-0.535,2.227 -1.07,4.454 -1.606,6.682c0.751,1.629 1.503,3.258 2.254,4.888c0.516,-3.742 0.087,-3.521 1.552,-6.835c-0.134,-0.396 -0.246,-0.215 -2.201,-4.734l-455.478,-16.808l457.74,9.979l-2.262,6.829c1.955,4.519 2.067,4.338 2.201,4.734c0.619,-3.752 0.326,-3.475 1.636,-6.663c-1.18,-2.493 -1.054,-2.356 -1.575,-4.9l-457.74,-9.979l463.633,-9.916c-0.712,1.66 -1.424,3.321 -2.135,4.981c-0.082,2.182 -0.163,4.365 -0.245,6.547c2.239,-6.511 3.555,-6.253 2.38,-11.528l-463.633,9.916l701.544,15.16c-1.444,2.82 -1.55,2.43 -2.973,5.086c0.948,3.68 1.016,3.513 1.086,4.813c1.136,-3.289 1.239,-3.059 1.769,-6.64l0.118,-3.258l-701.544,-15.16Z" style="fill:#fab700;"/><path d="M615.567,615.604c-14.978,1.498 -99.347,1.867 -101.375,-0.417c-0.518,-0.584 -0.416,-0.681 -76.021,-219.954c-3.985,-11.557 -1.557,-11.615 -0.625,-11.637c1.88,-0.045 1037.548,0.019 1039.02,0.056c9.017,0.227 160.577,148.348 169.812,148.585c56.958,1.463 62.207,-1.163 59.493,2.753c-3.592,5.181 -5.04,3.763 -55.607,55.835c-2.561,2.637 -1.805,3.056 -55.054,210.991c-34.3,133.94 -34.479,134.774 -40.892,139.059c-112.856,75.413 -114.07,72.941 -227.105,147.95c-6.569,4.359 -1.836,6.702 32.131,116.002c23.007,74.033 49.36,156.11 49.376,156.15c2.737,6.983 68.128,-1.487 72.131,5.574c2.145,3.783 65.332,156.079 71.083,162.343c48.929,53.289 55.496,56.862 49.467,56.854c-421.413,-0.573 -421.206,-0.128 -457.833,-0.247c-2.93,-0.01 -3.787,-0.972 -23.636,-66.074c-19.387,-63.586 -119.618,-401.036 -122.68,-401.833c-1.198,-0.312 -212.457,-1.687 -214.826,0.64c-3.245,3.186 -0.928,4.104 -62.842,238.107c-1.364,5.157 -2.743,7.395 2.745,7.455c67.389,0.736 72.092,-3.21 70.938,2.349c-8.373,40.343 -50.513,192.841 -55.13,209.549c-2.681,9.701 -4.177,9.766 -14.165,9.744c-458.933,-1.044 -462.278,0.426 -461.518,-2.852c1.088,-4.692 55.2,-210.405 57.869,-216.933c2.149,-5.257 76.05,1.494 77.982,-4.174c9.772,-28.675 185.652,-728.87 192.785,-732.351c15.311,-7.472 26.387,-9.867 24.478,-13.525l613.372,97.822c-2.592,-2.882 -3.349,-2.235 -85.384,-2.261c-12.124,-0.004 -142.387,-0.044 -151.549,0.019c-9.466,0.066 -0.896,9.788 -9.683,13.977l0.107,3.259c1.175,5.274 -0.141,5.016 -2.38,11.528l-0.868,3.439c0.206,1.611 0.412,3.222 0.618,4.833c-0.563,1.665 -1.125,3.33 -1.688,4.996c-1.311,3.187 -1.017,2.911 -1.636,6.663c-1.465,3.314 -1.037,3.093 -1.552,6.835c-2.63,6.597 -8.224,30.534 -8.849,33.212c0.343,3.825 0.193,4.096 -3.746,5.158l0.75,1.435c0.565,16.508 -3.032,15.393 -6.455,23.337c1.575,8.793 5.628,3.88 25.424,3.887c175.928,0.061 176.96,0.459 180.04,-3.159c18.335,-9.762 18.017,-10.257 19.788,-10.548c1.571,-7.229 5.163,-4.207 10.156,-9.828c2.996,-3.373 6.224,0.79 13.703,-9.774c0.17,-0.24 0,-0 3.189,-1.824c0.258,-0.678 0.515,-1.355 0.773,-2.033c-0.293,-2.725 -0.585,-5.449 -0.878,-8.174c2.764,-7.664 -0.206,-9.946 5.949,-11.767c0.052,-0.675 0.132,-0.612 1.749,-8.284c-0.633,-2.504 -0.573,-2.272 0.412,-4.909c0.147,-1.62 0.295,-3.239 0.442,-4.859c1.423,-2.656 1.529,-2.266 2.973,-5.086c0.474,-1.14 0.948,-2.28 1.422,-3.42c-2.323,-7.441 2.567,-11.085 3.345,-11.665l0.187,-1.64c-1.029,-4.499 -1.308,-4.332 0.678,-8.321c0.021,-1.682 0.042,-3.365 0.063,-5.047c0.982,-5.448 0.757,-5.213 2.901,-9.977l-613.372,-97.822l341.056,214.251c-2.038,4.743 -2.095,4.651 -2.231,5.073c3.218,2.475 3.686,2.189 92.591,2.126c106.837,-0.075 107.364,1.252 118.523,-4.874l-3.42,-1.598c-3.08,3.619 -4.112,3.221 -180.04,3.159c-19.796,-0.007 -23.848,4.906 -25.424,-3.887l-341.056,-214.251l374.831,93.281c-9.219,4.085 -5.933,6.574 -8.075,16.277c8.787,-4.189 0.217,-13.911 9.683,-13.977c9.162,-0.064 139.425,-0.023 151.549,-0.019c82.035,0.026 82.792,-0.621 85.384,2.261c0.487,-1.197 0.973,-2.395 1.46,-3.592c-1.764,-0.39 -1.463,-0.566 -3.535,-0.32c-217.798,0.896 -218.056,3.727 -236.465,-0.629l-374.831,-93.281l593.355,183.005c-3.189,1.824 -3.019,1.584 -3.189,1.824c-7.48,10.564 -10.707,6.4 -13.703,9.774c-4.992,5.62 -8.585,2.598 -10.156,9.828l0.004,1.684c20.055,-15.059 24.817,-12.691 27.043,-23.109l-593.355,-183.005l357.102,146.222c-0.595,2.65 -6.266,27.892 -7.936,33.013l1.341,5.086c0.626,-2.677 6.22,-26.615 8.849,-33.212c-0.751,-1.629 -1.503,-3.258 -2.254,-4.888l-357.102,-146.222l347.511,190.914l-2.75,3.479c-3.341,13.859 -3.171,13.785 -3.567,14.949c-0.046,1.636 -0.092,3.273 -0.138,4.909c3.423,-7.945 7.021,-6.83 6.455,-23.337l-347.511,-190.914l614.831,94.23c-0.487,1.197 -0.973,2.395 -1.46,3.592c-2.144,4.765 -1.919,4.529 -2.901,9.977c-0.021,1.682 -0.042,3.365 -0.063,5.047c-1.985,3.988 -1.707,3.822 -0.678,8.321c7.56,-22.895 6.242,-25.063 5.102,-26.937l-614.831,-94.23l599.198,161.03c-6.155,1.821 -3.185,4.103 -5.949,11.767c0.89,3.3 0.798,3.043 0.89,3.3c0.544,1.517 0.722,1.111 1.37,2.918c1.155,-6.141 3.382,-16.549 3.689,-17.985l-599.198,-161.03l364.728,117.797c-2.311,7.374 -1.817,7.126 -3.758,14.914c0.521,2.545 0.396,2.407 1.575,4.9c0.563,-1.665 1.125,-3.33 1.688,-4.996c-0.206,-1.611 -0.412,-3.222 -0.618,-4.833l0.868,-3.439c0.082,-2.182 0.163,-4.365 0.245,-6.547l-364.728,-117.797l349.166,179.235c-0.802,3.415 -1.603,6.829 -2.405,10.244c3.939,-1.062 4.089,-1.333 3.746,-5.158l-1.341,-5.086l-349.166,-179.235l609.542,122.807c-0.778,0.58 -5.668,4.224 -3.345,11.665c1.837,-5.855 1.698,-5.479 3.345,-11.665l-609.542,-122.807l358.708,139.54c-0.535,2.227 -1.07,4.454 -1.606,6.682c0.751,1.629 1.503,3.258 2.254,4.888c0.516,-3.742 0.087,-3.521 1.552,-6.835c-0.134,-0.396 -0.246,-0.215 -2.201,-4.734l-358.708,-139.54l360.97,132.711l-2.262,6.829c1.955,4.519 2.067,4.338 2.201,4.734c0.619,-3.752 0.326,-3.475 1.636,-6.663c-1.18,-2.493 -1.054,-2.356 -1.575,-4.9l-360.97,-132.711l366.863,112.816c-0.712,1.66 -1.424,3.321 -2.135,4.981c-0.082,2.182 -0.163,4.365 -0.245,6.547c2.239,-6.511 3.555,-6.253 2.38,-11.528l-366.863,-112.816l604.775,137.892c-1.444,2.82 -1.55,2.43 -2.973,5.086c0.948,3.68 1.016,3.513 1.086,4.813c1.136,-3.289 1.239,-3.059 1.769,-6.64l0.118,-3.258l-604.775,-137.892Z" style="fill:#c68c00;"/><path d="M1633.212,558.177c8.07,-0.103 10.154,0.079 9.956,2.103c-1.221,12.503 -7.507,8.05 -15.986,17.305c-6.289,6.865 -58.147,223.45 -88.672,337.429c-1.693,6.32 -3.669,5.234 -109.748,75.55c-80.607,53.431 -137.038,87.393 -136.707,90.866c0.827,8.674 88.171,280.445 95.992,304.783c2.685,8.353 6.265,3.926 70.219,4.49c5.073,0.045 9.872,15.103 20.903,40.681c42.389,98.293 39.293,100.174 59.874,123.475c3.113,3.524 -8.408,3.424 -9.193,3.417c-118.376,-1.035 -368.357,2.896 -370.5,-2.644c-1.998,-5.164 -100.583,-333.563 -109.294,-362.579c-30.285,-100.883 -31.071,-102.671 -36.38,-102.724c-20.188,-0.201 -250.999,-2.494 -252.353,1.55c-2.587,7.729 -76.824,292.154 -77.668,295.904c-0.885,3.932 1.85,2.809 50.303,2.873c16.37,0.022 26.282,-5.138 22.129,10.574c-37.624,142.31 -35.167,143.075 -40.819,154.546c-1.364,2.768 -2.455,2.514 -167.8,2.524c-247.406,0.015 -247.426,-0.013 -248.268,-0.322c-5.626,-2.061 37.596,-150.71 41.367,-163.679c1.89,-6.499 38.84,-2.899 75.331,-3.679c6.635,-0.142 9.908,-32.072 62.172,-224.145c3.218,3.193 2.876,3.072 3.218,3.193c0.72,0.253 411.641,-217.913 442.824,-234.143c8.164,-4.249 14.747,-2.712 9.645,-10.455c74.012,-1.135 248.284,0.622 251.081,-0.964c0.911,-0.516 97.919,-62.824 99.752,-64.628c3.335,-3.283 3.28,-14.988 34.994,-131.163c11.035,-0.679 247.246,-130.241 307.139,-160.846c6.641,-3.394 10.974,-3.319 6.489,-9.291Z" style="fill:#161c29;"/><path d="M1633.212,558.177c4.485,5.972 0.152,5.897 -6.489,9.291c-59.893,30.605 -296.104,160.167 -307.139,160.846c19.805,-77.06 19.257,-78.535 27.379,-82.546c108.012,-53.345 121.215,-57.362 111.226,-56.969c-49.641,1.957 -49.325,-0.291 -620.998,0.767c-17.118,0.032 -21.321,-2.526 -19.293,2.139c1.126,2.591 59.792,49.514 59.195,55.134c-1.238,11.651 -74.634,276.145 -69.819,277.956c9.471,3.561 9.862,0.469 126.484,0.274c5.102,7.743 -1.481,6.206 -9.645,10.455c-31.183,16.23 -442.104,234.396 -442.824,234.143c-0.342,-0.12 0,0 -3.218,-3.193c127.109,-473.549 120.257,-475.335 133.387,-515.891c0.575,-1.778 89.212,-44.982 117.212,-57.465c12.283,-5.476 -13.294,-3.748 -21.359,-3.761c-168.879,-0.272 -172.541,3.592 -175.105,-4.014c-14.787,-43.877 -59.687,-173.063 -59.709,-173.272c-0.165,-1.602 0.636,-2.084 20.029,-2.04c48.379,0.11 969.689,-0.083 974.083,0.102c6.227,0.263 91.538,84.976 166.604,148.042Z" style="fill:#002a5c;"/><path d="M1319.585,728.314c-31.714,116.175 -31.659,127.88 -34.994,131.163c-1.833,1.804 -98.841,64.112 -99.752,64.628c-2.797,1.586 -177.069,-0.171 -251.081,0.964c-116.623,0.195 -117.013,3.287 -126.484,-0.274c-4.815,-1.81 68.582,-266.305 69.819,-277.956c0.597,-5.621 -58.068,-52.544 -59.195,-55.134c-2.028,-4.665 2.176,-2.107 19.293,-2.139c571.673,-1.058 571.357,1.189 620.998,-0.767c9.99,-0.394 -3.214,3.623 -111.226,56.969c-8.122,4.011 -7.574,5.486 -27.379,82.546l-90.646,-14.887c-2.592,-2.882 -3.349,-2.235 -85.384,-2.261c-12.124,-0.004 -142.387,-0.044 -151.549,0.019c-9.466,0.066 -0.896,9.788 -9.683,13.977l0.107,3.259c1.175,5.274 -0.141,5.016 -2.38,11.528l-0.868,3.439c0.206,1.611 0.412,3.222 0.618,4.833c-0.563,1.665 -1.125,3.33 -1.688,4.996c-1.311,3.187 -1.017,2.911 -1.636,6.663c-1.465,3.314 -1.037,3.093 -1.552,6.835c-2.63,6.597 -8.224,30.534 -8.849,33.212c0.343,3.825 0.193,4.096 -3.746,5.158l0.75,1.435c0.565,16.508 -3.032,15.393 -6.455,23.337c1.575,8.793 5.628,3.88 25.424,3.887c175.928,0.061 176.96,0.459 180.04,-3.159c18.335,-9.762 18.017,-10.257 19.788,-10.548c1.571,-7.229 5.163,-4.207 10.156,-9.828c2.996,-3.373 6.224,0.79 13.703,-9.774c0.17,-0.24 0,-0 3.189,-1.824c0.258,-0.678 0.515,-1.355 0.773,-2.033c-0.293,-2.725 -0.585,-5.449 -0.878,-8.174c2.764,-7.664 -0.206,-9.946 5.949,-11.767c0.052,-0.675 0.132,-0.612 1.749,-8.284c-0.633,-2.504 -0.573,-2.272 0.412,-4.909c0.147,-1.62 0.295,-3.239 0.442,-4.859c1.423,-2.656 1.529,-2.266 2.973,-5.086c0.474,-1.14 0.948,-2.28 1.422,-3.42c-2.323,-7.441 2.567,-11.085 3.345,-11.665l0.187,-1.64c-1.029,-4.499 -1.308,-4.332 0.678,-8.321c0.021,-1.682 0.042,-3.365 0.063,-5.047c0.982,-5.448 0.757,-5.213 2.901,-9.977l90.646,14.887l-362.962,101.542c-2.038,4.743 -2.095,4.651 -2.231,5.073c3.218,2.475 3.686,2.189 92.591,2.126c106.837,-0.075 107.364,1.252 118.523,-4.874l-3.42,-1.598c-3.08,3.619 -4.112,3.221 -180.04,3.159c-19.796,-0.007 -23.848,4.906 -25.424,-3.887l362.962,-101.542l-329.186,-19.428c-9.219,4.085 -5.933,6.574 -8.075,16.277c8.787,-4.189 0.217,-13.911 9.683,-13.977c9.162,-0.064 139.425,-0.023 151.549,-0.019c82.035,0.026 82.792,-0.621 85.384,2.261c0.487,-1.197 0.973,-2.395 1.46,-3.592c-1.764,-0.39 -1.463,-0.566 -3.535,-0.32c-217.798,0.896 -218.056,3.727 -236.465,-0.629l329.186,19.428l-110.663,70.296c-3.189,1.824 -3.019,1.584 -3.189,1.824c-7.48,10.564 -10.707,6.4 -13.703,9.774c-4.992,5.62 -8.585,2.598 -10.156,9.828l0.004,1.684c20.055,-15.059 24.817,-12.691 27.043,-23.109l110.663,-70.296l-346.915,33.513c-0.595,2.65 -6.266,27.892 -7.936,33.013l1.341,5.086c0.626,-2.677 6.22,-26.615 8.849,-33.212c-0.751,-1.629 -1.503,-3.258 -2.254,-4.888l346.915,-33.513l-356.507,78.205l-2.75,3.479c-3.341,13.859 -3.171,13.785 -3.567,14.949c-0.046,1.636 -0.092,3.273 -0.138,4.909c3.423,-7.945 7.021,-6.83 6.455,-23.337l356.507,-78.205l-89.186,-18.479c-0.487,1.197 -0.973,2.395 -1.46,3.592c-2.144,4.765 -1.919,4.529 -2.901,9.977c-0.021,1.682 -0.042,3.365 -0.063,5.047c-1.985,3.988 -1.707,3.822 -0.678,8.321c7.56,-22.895 6.242,-25.063 5.102,-26.937l89.186,18.479l-104.819,48.321c-6.155,1.821 -3.185,4.103 -5.949,11.767c0.89,3.3 0.798,3.043 0.89,3.3c0.544,1.517 0.722,1.111 1.37,2.918c1.155,-6.141 3.382,-16.549 3.689,-17.985l104.819,-48.321l-339.29,5.088c-2.311,7.374 -1.817,7.126 -3.758,14.914c0.521,2.545 0.396,2.407 1.575,4.9c0.563,-1.665 1.125,-3.33 1.688,-4.996c-0.206,-1.611 -0.412,-3.222 -0.618,-4.833l0.868,-3.439c0.082,-2.182 0.163,-4.365 0.245,-6.547l339.29,-5.088l-354.851,66.526c-0.802,3.415 -1.603,6.829 -2.405,10.244c3.939,-1.062 4.089,-1.333 3.746,-5.158l-1.341,-5.086l354.851,-66.526l-94.475,10.098c-0.778,0.58 -5.668,4.224 -3.345,11.665c1.837,-5.855 1.698,-5.479 3.345,-11.665l94.475,-10.098l-345.309,26.831c-0.535,2.227 -1.07,4.454 -1.606,6.682c0.751,1.629 1.503,3.258 2.254,4.888c0.516,-3.742 0.087,-3.521 1.552,-6.835c-0.134,-0.396 -0.246,-0.215 -2.201,-4.734l345.309,-26.831l-343.047,20.002l-2.262,6.829c1.955,4.519 2.067,4.338 2.201,4.734c0.619,-3.752 0.326,-3.475 1.636,-6.663c-1.18,-2.493 -1.054,-2.356 -1.575,-4.9l343.047,-20.002l-337.154,0.107c-0.712,1.66 -1.424,3.321 -2.135,4.981c-0.082,2.182 -0.163,4.365 -0.245,6.547c2.239,-6.511 3.555,-6.253 2.38,-11.528l337.154,-0.107l-99.243,25.183c-1.444,2.82 -1.55,2.43 -2.973,5.086c0.948,3.68 1.016,3.513 1.086,4.813c1.136,-3.289 1.239,-3.059 1.769,-6.64l0.118,-3.258l99.243,-25.183Z" style="fill:#ca8f00;"/><path d="M1046.978,897.889c-16.377,0.032 -201.353,0.395 -204.716,0.075c-6.715,-0.64 70.102,-262.02 64.445,-267.404c-4.659,-4.434 -19.625,-14.22 -11.333,-14.196c238.387,0.689 448.165,-0.554 448.216,0.396c0.154,2.909 -26.659,11.311 -27.893,15.428c-7.231,24.127 -51.635,209.217 -56.096,212.227c-6.494,4.382 -72.167,48.698 -82.392,52.939c-3.065,1.272 -3.173,0.568 -130.231,0.534l181.961,-184.462c-2.592,-2.882 -3.349,-2.235 -85.384,-2.261c-12.124,-0.004 -142.387,-0.044 -151.549,0.019c-9.466,0.066 -0.896,9.788 -9.683,13.977l0.107,3.259c1.175,5.274 -0.141,5.016 -2.38,11.528l-0.868,3.439c0.206,1.611 0.412,3.222 0.618,4.833c-0.563,1.665 -1.125,3.33 -1.688,4.996c-1.311,3.187 -1.017,2.911 -1.636,6.663c-1.465,3.314 -1.037,3.093 -1.552,6.835c-2.63,6.597 -8.224,30.534 -8.849,33.212c0.343,3.825 0.193,4.096 -3.746,5.158l0.75,1.435c0.565,16.508 -3.032,15.393 -6.455,23.337c1.575,8.793 5.628,3.88 25.424,3.887c175.928,0.061 176.96,0.459 180.04,-3.159c18.335,-9.762 18.017,-10.257 19.788,-10.548c1.571,-7.229 5.163,-4.207 10.156,-9.828c2.996,-3.373 6.224,0.79 13.703,-9.774c0.17,-0.24 0,-0 3.189,-1.824c0.258,-0.678 0.515,-1.355 0.773,-2.033c-0.293,-2.725 -0.585,-5.449 -0.878,-8.174c2.764,-7.664 -0.206,-9.946 5.949,-11.767c0.052,-0.675 0.132,-0.612 1.749,-8.284c-0.633,-2.504 -0.573,-2.272 0.412,-4.909c0.147,-1.62 0.295,-3.239 0.442,-4.859c1.423,-2.656 1.529,-2.266 2.973,-5.086c0.474,-1.14 0.948,-2.28 1.422,-3.42c-2.323,-7.441 2.567,-11.085 3.345,-11.665l0.187,-1.64c-1.029,-4.499 -1.308,-4.332 0.678,-8.321c0.021,-1.682 0.042,-3.365 0.063,-5.047c0.982,-5.448 0.757,-5.213 2.901,-9.977l-181.961,184.462l-90.355,-68.033c-2.038,4.743 -2.095,4.651 -2.231,5.073c3.218,2.475 3.686,2.189 92.591,2.126c106.837,-0.075 107.364,1.252 118.523,-4.874l-3.42,-1.598c-3.08,3.619 -4.112,3.221 -180.04,3.159c-19.796,-0.007 -23.848,4.906 -25.424,-3.887l90.355,68.033l-56.579,-189.003c-9.219,4.085 -5.933,6.574 -8.075,16.277c8.787,-4.189 0.217,-13.911 9.683,-13.977c9.162,-0.064 139.425,-0.023 151.549,-0.019c82.035,0.026 82.792,-0.621 85.384,2.261c0.487,-1.197 0.973,-2.395 1.46,-3.592c-1.764,-0.39 -1.463,-0.566 -3.535,-0.32c-217.798,0.896 -218.056,3.727 -236.465,-0.629l56.579,189.003l161.944,-99.28c-3.189,1.824 -3.019,1.584 -3.189,1.824c-7.48,10.564 -10.707,6.4 -13.703,9.774c-4.992,5.62 -8.585,2.598 -10.156,9.828l0.004,1.684c20.055,-15.059 24.817,-12.691 27.043,-23.109l-161.944,99.28l-74.308,-136.062c-0.595,2.65 -6.266,27.892 -7.936,33.013l1.341,5.086c0.626,-2.677 6.22,-26.615 8.849,-33.212c-0.751,-1.629 -1.503,-3.258 -2.254,-4.888l74.308,136.062l-83.9,-91.37l-2.75,3.479c-3.341,13.859 -3.171,13.785 -3.567,14.949c-0.046,1.636 -0.092,3.273 -0.138,4.909c3.423,-7.945 7.021,-6.83 6.455,-23.337l83.9,91.37l183.421,-188.054c-0.487,1.197 -0.973,2.395 -1.46,3.592c-2.144,4.765 -1.919,4.529 -2.901,9.977c-0.021,1.682 -0.042,3.365 -0.063,5.047c-1.985,3.988 -1.707,3.822 -0.678,8.321c7.56,-22.895 6.242,-25.063 5.102,-26.937l-183.421,188.054l167.787,-121.254c-6.155,1.821 -3.185,4.103 -5.949,11.767c0.89,3.3 0.798,3.043 0.89,3.3c0.544,1.517 0.722,1.111 1.37,2.918c1.155,-6.141 3.382,-16.549 3.689,-17.985l-167.787,121.254l-66.683,-164.487c-2.311,7.374 -1.817,7.126 -3.758,14.914c0.521,2.545 0.396,2.407 1.575,4.9c0.563,-1.665 1.125,-3.33 1.688,-4.996c-0.206,-1.611 -0.412,-3.222 -0.618,-4.833l0.868,-3.439c0.082,-2.182 0.163,-4.365 0.245,-6.547l66.683,164.487l-82.244,-103.05c-0.802,3.415 -1.603,6.829 -2.405,10.244c3.939,-1.062 4.089,-1.333 3.746,-5.158l-1.341,-5.086l82.244,103.05l178.132,-159.477c-0.778,0.58 -5.668,4.224 -3.345,11.665c1.837,-5.855 1.698,-5.479 3.345,-11.665l-178.132,159.477l-72.703,-142.744c-0.535,2.227 -1.07,4.454 -1.606,6.682c0.751,1.629 1.503,3.258 2.254,4.888c0.516,-3.742 0.087,-3.521 1.552,-6.835c-0.134,-0.396 -0.246,-0.215 -2.201,-4.734l72.703,142.744l-70.44,-149.573l-2.262,6.829c1.955,4.519 2.067,4.338 2.201,4.734c0.619,-3.752 0.326,-3.475 1.636,-6.663c-1.18,-2.493 -1.054,-2.356 -1.575,-4.9l70.44,149.573l-64.548,-169.468c-0.712,1.66 -1.424,3.321 -2.135,4.981c-0.082,2.182 -0.163,4.365 -0.245,6.547c2.239,-6.511 3.555,-6.253 2.38,-11.528l64.548,169.468l173.364,-144.392c-1.444,2.82 -1.55,2.43 -2.973,5.086c0.948,3.68 1.016,3.513 1.086,4.813c1.136,-3.289 1.239,-3.059 1.769,-6.64l0.118,-3.258l-173.364,144.392Z" style="fill:#fbb900;"/><path d="M936.618,685.027c6.126,-24.014 3.95,-25.631 8.923,-27.756c0.692,-0.296 33.584,-0.261 36.505,-0.257c283.092,0.303 284.182,-0.715 284.886,1.4c1.625,4.876 -34.099,137.876 -37.302,149.803c-2.127,7.92 -2.126,8.978 -58.261,46.037c-8.834,5.832 -29.294,3.771 -36.137,3.771c-241.469,-0.001 -241.929,-0.767 -242.375,-1.622c-0.903,-1.732 40.159,-157.692 43.762,-171.376l292.32,28.399c-2.592,-2.882 -3.349,-2.235 -85.384,-2.261c-12.124,-0.004 -142.387,-0.044 -151.549,0.019c-9.466,0.066 -0.896,9.788 -9.683,13.977l0.107,3.259c1.175,5.274 -0.141,5.016 -2.38,11.528l-0.868,3.439c0.206,1.611 0.412,3.222 0.618,4.833c-0.563,1.665 -1.125,3.33 -1.688,4.996c-1.311,3.187 -1.017,2.911 -1.636,6.663c-1.465,3.314 -1.037,3.093 -1.552,6.835c-2.63,6.597 -8.224,30.534 -8.849,33.212c0.343,3.825 0.193,4.096 -3.746,5.158l0.75,1.435c0.565,16.508 -3.032,15.393 -6.455,23.337c1.575,8.793 5.628,3.88 25.424,3.887c175.928,0.061 176.96,0.459 180.04,-3.159c18.335,-9.762 18.017,-10.257 19.788,-10.548c1.571,-7.229 5.163,-4.207 10.156,-9.828c2.996,-3.373 6.224,0.79 13.703,-9.774c0.17,-0.24 0,-0 3.189,-1.824c0.258,-0.678 0.515,-1.355 0.773,-2.033c-0.293,-2.725 -0.585,-5.449 -0.878,-8.174c2.764,-7.664 -0.206,-9.946 5.949,-11.767c0.052,-0.675 0.132,-0.612 1.749,-8.284c-0.633,-2.504 -0.573,-2.272 0.412,-4.909c0.147,-1.62 0.295,-3.239 0.442,-4.859c1.423,-2.656 1.529,-2.266 2.973,-5.086c0.474,-1.14 0.948,-2.28 1.422,-3.42c-2.323,-7.441 2.567,-11.085 3.345,-11.665l0.187,-1.64c-1.029,-4.499 -1.308,-4.332 0.678,-8.321c0.021,-1.682 0.042,-3.365 0.063,-5.047c0.982,-5.448 0.757,-5.213 2.901,-9.977l-292.32,-28.399l20.004,144.828c-2.038,4.743 -2.095,4.651 -2.231,5.073c3.218,2.475 3.686,2.189 92.591,2.126c106.837,-0.075 107.364,1.252 118.523,-4.874l-3.42,-1.598c-3.08,3.619 -4.112,3.221 -180.04,3.159c-19.796,-0.007 -23.848,4.906 -25.424,-3.887l-20.004,-144.828l53.78,23.858c-9.219,4.085 -5.933,6.574 -8.075,16.277c8.787,-4.189 0.217,-13.911 9.683,-13.977c9.162,-0.064 139.425,-0.023 151.549,-0.019c82.035,0.026 82.792,-0.621 85.384,2.261c0.487,-1.197 0.973,-2.395 1.46,-3.592c-1.764,-0.39 -1.463,-0.566 -3.535,-0.32c-217.798,0.896 -218.056,3.727 -236.465,-0.629l-53.78,-23.858l272.303,113.582c-3.189,1.824 -3.019,1.584 -3.189,1.824c-7.48,10.564 -10.707,6.4 -13.703,9.774c-4.992,5.62 -8.585,2.598 -10.156,9.828l0.004,1.684c20.055,-15.059 24.817,-12.691 27.043,-23.109l-272.303,-113.582l36.051,76.799c-0.595,2.65 -6.266,27.892 -7.936,33.013l1.341,5.086c0.626,-2.677 6.22,-26.615 8.849,-33.212c-0.751,-1.629 -1.503,-3.258 -2.254,-4.888l-36.051,-76.799l26.46,121.491l-2.75,3.479c-3.341,13.859 -3.171,13.785 -3.567,14.949c-0.046,1.636 -0.092,3.273 -0.138,4.909c3.423,-7.945 7.021,-6.83 6.455,-23.337l-26.46,-121.491l293.78,24.807c-0.487,1.197 -0.973,2.395 -1.46,3.592c-2.144,4.765 -1.919,4.529 -2.901,9.977c-0.021,1.682 -0.042,3.365 -0.063,5.047c-1.985,3.988 -1.707,3.822 -0.678,8.321c7.56,-22.895 6.242,-25.063 5.102,-26.937l-293.78,-24.807l278.147,91.608c-6.155,1.821 -3.185,4.103 -5.949,11.767c0.89,3.3 0.798,3.043 0.89,3.3c0.544,1.517 0.722,1.111 1.37,2.918c1.155,-6.141 3.382,-16.549 3.689,-17.985l-278.147,-91.608l43.676,48.374c-2.311,7.374 -1.817,7.126 -3.758,14.914c0.521,2.545 0.396,2.407 1.575,4.9c0.563,-1.665 1.125,-3.33 1.688,-4.996c-0.206,-1.611 -0.412,-3.222 -0.618,-4.833l0.868,-3.439c0.082,-2.182 0.163,-4.365 0.245,-6.547l-43.676,-48.374l28.115,109.812c-0.802,3.415 -1.603,6.829 -2.405,10.244c3.939,-1.062 4.089,-1.333 3.746,-5.158l-1.341,-5.086l-28.115,-109.812l288.491,53.384c-0.778,0.58 -5.668,4.224 -3.345,11.665c1.837,-5.855 1.698,-5.479 3.345,-11.665l-288.491,-53.384l37.657,70.118c-0.535,2.227 -1.07,4.454 -1.606,6.682c0.751,1.629 1.503,3.258 2.254,4.888c0.516,-3.742 0.087,-3.521 1.552,-6.835c-0.134,-0.396 -0.246,-0.215 -2.201,-4.734l-37.657,-70.118l39.919,63.289l-2.262,6.829c1.955,4.519 2.067,4.338 2.201,4.734c0.619,-3.752 0.326,-3.475 1.636,-6.663c-1.18,-2.493 -1.054,-2.356 -1.575,-4.9l-39.919,-63.289l45.812,43.394c-0.712,1.66 -1.424,3.321 -2.135,4.981c-0.082,2.182 -0.163,4.365 -0.245,6.547c2.239,-6.511 3.555,-6.253 2.38,-11.528l-45.812,-43.394l283.723,68.47c-1.444,2.82 -1.55,2.43 -2.973,5.086c0.948,3.68 1.016,3.513 1.086,4.813c1.136,-3.289 1.239,-3.059 1.769,-6.64l0.118,-3.258l-283.723,-68.47Z" style="fill:#152034;fill-opacity:1;"/><path d="M990.399,708.885c224.267,-0.096 224.227,0.225 236.465,0.629c-217.798,0.896 -218.056,3.727 -236.465,-0.629Z" style="fill:#3b404d;fill-opacity:0.47;"/><path d="M1662.769,467.431c187.129,0.082 187.086,-0.197 191.967,0.607c-122.532,0.995 -178.934,-0.733 -191.703,0.672l-0.264,-1.28Z" style="fill:#49505e;fill-opacity:0.22;"/><path d="M867.411,1331.154c3.979,3.32 33.761,-1.579 35.246,3.332l-0.497,1.683l-1.174,1.709c-1.683,-6.921 -33.526,0.509 -33.576,-6.723Z" style="fill:#8691b0;fill-opacity:0.36;"/><path d="M1521.364,1300.124c1.709,1.183 2.66,2.682 2.836,2.959c-1.101,2.512 -0.981,2.197 -1.288,4.88c-0.372,-0.439 -4.652,-5.483 -4.652,-5.483c-3.324,-0.13 -3.08,-0.021 -41.583,-0.278l1.546,-0.927c29.387,-0.156 38.289,0.29 43.142,-1.152Z" style="fill:#485268;fill-opacity:0.52;"/><path d="M1181.874,820.035l0.004,1.684c-3.243,2.362 -3.476,1.374 -6.567,3.519c-0.79,0.548 -8.814,6.117 -9.805,6.944l-3.42,-1.598c18.335,-9.762 18.017,-10.257 19.788,-10.548Z" style="fill:#787f91;fill-opacity:0.24;"/><path d="M1831.699,500.258c22.472,0.4 22.217,0.405 44.49,0.993c-38.057,0.717 -38.599,2.721 -44.49,-0.993Z" style="fill:#565860;fill-opacity:0.09;"/><path d="M1479.878,1300.13c13.829,-0.002 27.657,-0.004 41.486,-0.006c-4.853,1.442 -13.755,0.996 -43.142,1.152l1.656,-1.146Z" style="fill:#303647;fill-opacity:0.25;"/><path d="M840.502,1299.974c3.873,-0.005 30.46,0.122 33.109,0.135c-17.369,2.847 -17.123,0.808 -34.726,0.843l1.617,-0.978Z" style="fill:#43495d;fill-opacity:0.22;"/><path d="M464.673,661.702c1.461,4.582 1.133,4.431 3.714,8.811l-2.108,6.288c-0.459,-5.552 -0.577,-5.259 -3.156,-10.167c0.517,-1.644 1.033,-3.288 1.55,-4.932Z" style="fill:#6e7689;fill-opacity:0.22;"/><path d="M1458.223,1128.015c-1.052,5.731 -3.748,3.093 -8.379,6.591l0.113,-1.508c3.897,-3.053 3.773,-2.731 8.266,-5.084Z" style="fill:#979eb6;fill-opacity:0.26;"/><path d="M392.918,451.92c0.231,0.815 1.853,6.545 3.412,10.023c-0.468,1.626 -0.935,3.252 -1.403,4.878c-0.647,-5.444 -1.103,-5.074 -3.354,-9.986c1.06,-2.449 0.98,-2.151 1.344,-4.915Z" style="fill:#60697a;fill-opacity:0.27;"/><path d="M488.844,759.859c0.288,1.77 0.575,3.54 0.863,5.31c-0.692,2.753 -1.383,5.506 -2.075,8.259c-0.418,-4.167 -0.327,-3.881 -1.216,-8.186c0.935,-2.9 1.323,-2.454 2.429,-5.383Z" style="fill:#6c7384;fill-opacity:0.3;"/><path d="M1689.533,816.628c0.607,4.336 0.584,4.075 1.239,8.182c-0.547,1.675 -1.094,3.351 -1.641,5.026c-1.265,-2.553 -1.109,-2.309 -1.614,-4.94c0.672,-2.756 1.344,-5.513 2.016,-8.269Z" style="fill:#707992;fill-opacity:0.31;"/><path d="M225.95,1467.611c0.174,1.728 0.348,3.457 0.523,5.185c-0.673,2.745 -1.347,5.489 -2.02,8.234c-0.345,-2.7 -0.689,-5.399 -1.034,-8.099c1.034,-3.048 1.424,-2.469 2.531,-5.32Z" style="fill:#616b82;fill-opacity:0.35;"/><path d="M492.493,680.415c2.971,1.223 2.455,1.523 4.071,4.554c-1.763,4.981 -1.694,4.815 -1.78,4.984c-1.807,-5.36 -2.2,-8.758 -2.29,-9.538Z" style="fill:#969aa7;fill-opacity:0.12;"/><path d="M389.399,1143.079c0.283,6.239 0.179,6.149 0.24,6.68c-0.712,2.188 -1.423,4.376 -2.135,6.564c-0.326,-2.154 -0.651,-4.308 -0.977,-6.462c1.17,-3.51 1.558,-3.022 2.872,-6.782Z" style="fill:#6c7389;fill-opacity:0.32;"/><path d="M857.001,1212.805c1.717,0.42 3.433,0.841 5.15,1.261c-5.797,1.226 -4.716,2.736 -5.578,8.691c-1.096,-3.562 -0.982,-3.227 -1.367,-6.593c1.688,-1.73 1.58,-1.57 1.688,-1.73c0.474,-0.702 -0.458,-0.793 0.106,-1.628Z" style="fill:#5a606f;fill-opacity:0.17;"/><path d="M835.59,1587.595c0.313,2.137 0.627,4.273 0.94,6.41c-1.229,3.75 -1.673,3.252 -2.915,6.761c-0.009,-2.195 -0.017,-4.39 -0.026,-6.586c0.667,-2.195 1.334,-4.39 2.001,-6.585Z" style="fill:#646e87;fill-opacity:0.35;"/><path d="M200.897,1562.477c0.182,1.74 0.363,3.48 0.545,5.22c-0.676,2.191 -1.352,4.382 -2.028,6.572c-0.315,-2.142 -0.631,-4.283 -0.946,-6.425c0.963,-3.055 1.395,-2.443 2.429,-5.367Z" style="fill:#636a81;fill-opacity:0.34;"/><path d="M962.165,1212.873c1.255,1.908 1.828,4.593 1.918,5.013c-0.473,1.628 -0.945,3.256 -1.418,4.884c-0.705,-6.044 0.317,-7.555 -5.58,-8.707c1.693,-0.396 3.387,-0.793 5.08,-1.189Z" style="fill:#505567;fill-opacity:0.19;"/><path d="M391.573,1131.582c1.132,2.57 1.003,2.269 1.437,4.913c-0.572,2.189 -1.144,4.378 -1.716,6.567c-0.461,-2.166 -0.922,-4.332 -1.383,-6.497c0.554,-1.661 1.108,-3.322 1.662,-4.983Z" style="fill:#6b758c;fill-opacity:0.35;"/><path d="M427.013,996.622c0.592,1.585 1.183,3.17 1.775,4.755c-1.311,3.201 -1.19,3.051 -1.891,6.585c-0.682,-1.526 -1.365,-3.052 -2.047,-4.578c2.045,-3.084 1.448,-3.104 2.163,-6.761Z" style="fill:#666d7c;fill-opacity:0.21;"/><path d="M205.063,1541.175c2.157,-5.809 2.685,-5.97 3.215,-6.132c0.463,-0.141 -0.52,0.158 -0.018,6.054l-1.096,4.716l-2.101,-4.638Z" style="fill:#6f748b;fill-opacity:0.27;"/><path d="M992.599,1312.762c0.493,1.657 0.986,3.313 1.478,4.97c-0.147,1.722 -0.294,3.444 -0.441,5.165c-0.233,-0.579 -0.65,0.391 -0.933,-0.312c-0.156,-0.387 -0.121,-0.367 -1.627,-4.954l1.523,-4.87Z" style="fill:#69748d;fill-opacity:0.27;"/><path d="M902.16,1336.168c0.339,1.609 0.677,3.218 1.016,4.827c-1.257,3.368 -0.969,3.066 -1.451,6.806c-0.532,-2.263 -1.064,-4.525 -1.596,-6.788l0.857,-3.137l1.174,-1.709Z" style="fill:#6d7487;fill-opacity:0.25;"/><path d="M851.252,1526.083c0.446,1.672 0.892,3.344 1.337,5.016c-0.268,2.171 -0.536,4.342 -0.805,6.513l-2.259,-6.341c0.575,-1.729 1.151,-3.459 1.726,-5.188Z" style="fill:#707889;fill-opacity:0.24;"/><path d="M417.268,1036.287c0.249,1.774 0.498,3.548 0.747,5.322l-1.209,4.628c-0.451,-1.163 -0.566,-0.66 -0.872,-1.448c-0.097,-0.25 -0,0 -1.086,-3.173c0.974,-2.908 1.327,-2.375 2.42,-5.33Z" style="fill:#71798b;fill-opacity:0.28;"/><path d="M1451.048,1218.117c0.416,3.795 -0.174,3.635 1.609,6.676c-0.974,3.148 -0.874,2.904 -0.974,3.148c-0.376,0.918 -0.551,0.359 -1.026,1.52l-0.978,-4.777c0.248,-3.554 0.22,-3.35 1.369,-6.567Z" style="fill:#646b80;fill-opacity:0.32;"/><path d="M1455.084,1241.209c0.761,0.909 2.026,2.42 5.811,13.626l-0.775,1.37c-1.506,-4.863 -4.62,-13.801 -5.036,-14.996Z" style="fill:#343c4e;fill-opacity:0.46;"/><path d="M991.338,1306.419c0.42,2.114 0.841,4.229 1.261,6.343l-1.523,4.87c-0.661,-3.423 -0.277,-3.198 -1.844,-6.614c0.702,-1.533 1.404,-3.066 2.105,-4.599Z" style="fill:#6f7481;fill-opacity:0.25;"/><path d="M228.149,1454.413c0.547,2.262 1.094,4.524 1.641,6.787l-1.119,4.722c-0.647,-1.571 -1.295,-3.142 -1.942,-4.713c1.228,-3.304 0.941,-3.009 1.419,-6.795Z" style="fill:#6b7288;fill-opacity:0.27;"/><path d="M1035.568,1454.31c0.553,2.223 1.106,4.446 1.659,6.669c-0.285,2.659 -0.272,2.397 -1.195,4.823c-0.568,-1.654 -1.135,-3.309 -1.703,-4.963c0.413,-2.176 0.826,-4.352 1.24,-6.528Z" style="fill:#646b82;fill-opacity:0.35;"/><path d="M1666.075,908.204c0.434,2.169 0.868,4.338 1.302,6.507c-0.552,1.654 -1.105,3.309 -1.657,4.963c-0.388,-1.604 -0.777,-3.207 -1.165,-4.811c0.507,-2.22 1.014,-4.44 1.521,-6.659Z" style="fill:#5b6478;fill-opacity:0.38;"/><path d="M486.416,765.242c0.89,4.305 0.798,4.019 1.216,8.186c-0.549,1.652 -1.098,3.304 -1.647,4.957c-0.381,-1.596 -0.761,-3.191 -1.142,-4.787c1.693,-4.068 1.124,-3.86 1.573,-8.356Z" style="fill:#575f72;fill-opacity:0.31;"/><path d="M1681.964,845.1l2.012,4.649c-2.319,2.985 -1.501,3.071 -2.062,6.807l-1.51,-4.739c0.52,-2.239 1.04,-4.478 1.56,-6.716Z" style="fill:#4d566a;fill-opacity:0.29;"/><path d="M1078.61,1599.249c0.576,1.659 1.152,3.317 1.728,4.976c-0.39,2.17 -0.781,4.34 -1.171,6.51c-0.336,-3.554 0.385,-3.422 -1.533,-6.704c0.326,-1.594 0.651,-3.188 0.977,-4.782Z" style="fill:#5a647c;fill-opacity:0.36;"/><path d="M243.341,1399.64c0.721,3.242 0.65,2.867 1.264,6.507c-0.743,1.653 -1.487,3.305 -2.23,4.958c-0.854,-5.884 0.078,-5.516 0.966,-11.465Z" style="fill:#63697c;fill-opacity:0.34;"/><path d="M412.499,510.342c0.7,1.624 1.4,3.249 2.099,4.873c-0.432,2.56 -0.29,2.304 -1.393,4.878c-0.567,-1.647 -1.134,-3.294 -1.7,-4.941c0.331,-1.603 0.663,-3.206 0.994,-4.81Z" style="fill:#6e7689;fill-opacity:0.29;"/><path d="M1717.746,705.111c0.417,1.595 0.835,3.189 1.252,4.784c-1.948,3.022 -1.275,2.914 -1.636,6.687c-0.39,-1.606 -0.781,-3.213 -1.171,-4.819c0.52,-3.531 0.49,-3.25 1.555,-6.651Z" style="fill:#50586b;fill-opacity:0.35;"/><path d="M1055.414,1520.977c0.585,2.208 1.17,4.415 1.755,6.623c0.009,1.652 0.017,3.305 0.026,4.957c-1.185,-3.725 -1.637,-3.27 -2.878,-6.819c0.366,-1.587 0.732,-3.174 1.098,-4.76Z" style="fill:#4f586f;fill-opacity:0.37;"/><path d="M964.083,1217.885c0.516,1.657 1.031,3.314 1.547,4.971c-0.28,2.644 -0.186,2.355 -1.291,4.873c-0.558,-1.653 -1.116,-3.307 -1.674,-4.96c0.473,-1.628 0.945,-3.256 1.418,-4.884Z" style="fill:#686f81;fill-opacity:0.32;"/><path d="M1033.911,1449.303c0.552,1.669 1.104,3.338 1.656,5.007c-0.413,2.176 -0.826,4.352 -1.24,6.528c-0.578,-3.632 -0.267,-3.315 -1.747,-6.624c1.043,-2.445 1.085,-2.194 1.33,-4.91Z" style="fill:#5d6474;fill-opacity:0.3;"/><path d="M414.598,515.215c0.553,1.662 1.107,3.323 1.66,4.985c-0.429,1.625 -0.859,3.251 -1.288,4.876c-0.588,-1.661 -1.177,-3.322 -1.765,-4.984c1.103,-2.574 0.961,-2.317 1.393,-4.878Z" style="fill:#68718b;fill-opacity:0.3;"/><path d="M397.927,1106.396c0.782,1.575 1.564,3.15 2.346,4.724c-0.456,1.172 -0.912,2.344 -1.369,3.515c-0.61,-1.12 -1.219,-2.239 -1.829,-3.359l0.852,-4.881Z" style="fill:#7e8392;fill-opacity:0.18;"/><path d="M389.175,442.081c0.689,1.623 1.379,3.247 2.068,4.87c-0.202,1.746 -0.404,3.492 -0.607,5.238c-0.472,-1.15 -0.944,-2.3 -1.415,-3.451c0.119,-3.393 -0.211,-3.193 -0.046,-6.657Z" style="fill:#505a6d;fill-opacity:0.3;"/><path d="M464.986,850.172c0.458,1.622 0.917,3.245 1.375,4.867c-0.558,2.234 -1.117,4.467 -1.675,6.701c-0.221,-1.743 -0.443,-3.487 -0.664,-5.23c0.321,-2.113 0.642,-4.225 0.964,-6.338Z" style="fill:#454e63;fill-opacity:0.3;"/><path d="M1032.325,1444.314c0.529,1.663 1.057,3.326 1.586,4.989c-0.245,2.716 -0.287,2.465 -1.33,4.91c-0.513,-1.69 -1.026,-3.381 -1.539,-5.071c0.428,-1.609 0.855,-3.218 1.283,-4.827Z" style="fill:#586479;fill-opacity:0.32;"/><path d="M490.579,755.105l0.802,3.367c-0.558,2.232 -1.115,4.465 -1.673,6.697c-0.288,-1.77 -0.575,-3.54 -0.863,-5.31l1.734,-4.754Z" style="fill:#52596a;fill-opacity:0.29;"/><path d="M1667.116,903.446c0.847,2.525 0.762,2.224 0.808,4.751c-0.183,2.171 -0.366,4.343 -0.549,6.514c-0.434,-2.169 -0.868,-4.338 -1.302,-6.507c0.347,-1.586 0.695,-3.172 1.042,-4.758Z" style="fill:#484f5d;fill-opacity:0.29;"/><path d="M180.23,1642.622l1.146,1.642l-0.297,5.363c-1.848,-0.139 -1.58,-0.195 -2.159,-2.003c0.437,-1.667 0.873,-3.335 1.31,-5.002Z" style="fill:#737681;fill-opacity:0.31;"/><path d="M391.243,446.951l1.676,4.969c-0.364,2.764 -0.285,2.466 -1.344,4.915l-0.938,-4.646c0.202,-1.746 0.404,-3.492 0.607,-5.238Z" style="fill:#576174;fill-opacity:0.31;"/><path d="M353.375,337.021c0.151,0.565 1.325,4.957 2.269,6.954c-1.329,-0.697 -2.658,-1.393 -3.987,-2.09l1.718,-4.864Z" style="fill:#6d7a99;fill-opacity:0.31;"/><path d="M1524.2,1303.083l0.666,3.111c-0.064,4.672 0.014,4.605 -0.021,5.004c-0.644,-1.078 -1.288,-2.157 -1.932,-3.235c0.307,-2.684 0.187,-2.368 1.288,-4.88Z" style="fill:#5b6578;fill-opacity:0.31;"/><path d="M1051.957,1511.01c1.307,2.459 1.259,2.193 1.807,4.958l0.263,4.898c-0.616,-1.653 -1.231,-3.306 -1.847,-4.959c-0.074,-1.632 -0.149,-3.265 -0.223,-4.897Z" style="fill:#474f5f;fill-opacity:0.34;"/><path d="M1472.841,1286.241l0.395,4.973c-0.13,1.704 -0.259,3.408 -0.389,5.112l-1.477,-3.346c0.49,-2.246 0.981,-4.493 1.471,-6.739Z" style="fill:#5c6474;fill-opacity:0.23;"/><path d="M474.535,820.231c-0.258,2.118 -0.516,4.237 -0.774,6.355l-2.257,-4.647c1.01,-0.569 2.021,-1.138 3.031,-1.708Z" style="fill:#8d96b9;fill-opacity:0.29;"/><path d="M1432.717,1161.531c0.174,1.606 0.349,3.213 0.523,4.819c-0.073,2.694 0.218,2.455 0.171,4.955c-1.409,-2.42 -1.481,-1.995 -1.965,-4.948c0.424,-1.609 0.847,-3.217 1.271,-4.826Z" style="fill:#575c6c;fill-opacity:0.29;"/><path d="M190.577,1609.151c-0.507,2.229 -1.014,4.458 -1.522,6.687c-0.791,-1.581 -1.582,-3.162 -2.373,-4.743c0.256,-0.236 1.401,-1.291 3.895,-1.944Z" style="fill:#69707f;fill-opacity:0.29;"/><path d="M1217.369,758.583c0.948,3.68 1.016,3.513 1.086,4.813c-0.342,2.761 -0.482,2.522 -1.941,4.956c0.222,-4.752 0.405,-4.515 0.412,-4.909c0.147,-1.62 0.295,-3.239 0.442,-4.859Z" style="fill:#4d5362;fill-opacity:0.31;"/><path d="M389.895,1141.373l1.399,1.688c-0.552,2.233 -1.104,4.465 -1.655,6.698c-0.061,-0.531 0.044,-0.441 -0.24,-6.68l0.497,-1.706Z" style="fill:#545b6f;fill-opacity:0.35;"/><path d="M1644.479,993.114c-0.045,2.179 -0.09,4.359 -0.135,6.538l-0.395,1.831l-0.696,1.678l-0.405,-3.362c0.544,-2.228 1.087,-4.457 1.631,-6.685Z" style="fill:#3d4757;fill-opacity:0.39;"/><path d="M386.51,1154.706l0.994,1.617c-0.502,3.541 -0.61,3.29 -1.866,6.694c-0.582,-4.441 -0.833,-4.268 0.872,-8.311Z" style="fill:#4b556c;fill-opacity:0.43;"/><path d="M1077.183,1594.212c0.476,1.679 0.951,3.358 1.427,5.037c-0.326,1.594 -0.651,3.188 -0.977,4.782c-0.148,-1.625 -0.295,-3.251 -0.443,-4.876c-0.003,-1.648 -0.005,-3.295 -0.008,-4.943Z" style="fill:#474f61;fill-opacity:0.35;"/><path d="M1053.764,1515.968c0.55,1.67 1.1,3.339 1.65,5.009c-0.366,1.587 -0.732,3.174 -1.098,4.76l-0.29,-4.871l-0.263,-4.898Z" style="fill:#424859;fill-opacity:0.33;"/><path d="M455.923,636.849c0.487,1.133 0.974,2.265 1.461,3.398c-0.364,2.213 -0.728,4.426 -1.092,6.638l-0.134,-5.117c-0.079,-1.64 -0.157,-3.28 -0.236,-4.92Z" style="fill:#40485a;fill-opacity:0.31;"/><path d="M956.761,824.947c-0.046,1.636 -0.092,3.273 -0.138,4.909c-2.038,4.743 -2.095,4.651 -2.231,5.073c0.819,-4.405 0.127,-4.412 2.369,-9.982Z" style="fill:#424b5c;fill-opacity:0.48;"/><path d="M982.304,1277.848c0.998,2.509 0.981,2.248 1.462,5.035c-0.346,1.599 -0.691,3.198 -1.037,4.797c-0.09,-1.646 -0.18,-3.292 -0.27,-4.938c-0.052,-1.631 -0.103,-3.263 -0.155,-4.894Z" style="fill:#3a4151;fill-opacity:0.33;"/><path d="M500.229,723.295c-0.559,2.22 -1.117,4.44 -1.676,6.66c-0.387,-1.652 -0.774,-3.305 -1.161,-4.957c0.654,-0.356 0.051,-0.594 0.559,-0.871c0.17,-0.093 -0,-0 2.278,-0.832Z" style="fill:#505d75;fill-opacity:0.33;"/><path d="M366.605,1233.006l1.435,1.644c-0.404,1.56 -0.808,3.12 -1.213,4.679c-0.269,-1.568 -0.538,-3.136 -0.807,-4.704l0.585,-1.62Z" style="fill:#60666f;fill-opacity:0.28;"/><path d="M218.851,1496.008l0.56,3.332c-0.357,2.885 -0.565,2.627 -1.946,4.956c0.079,-1.215 0.313,-0.786 0.367,-1.61c0.017,-0.262 -0,0 0.109,-3.285l0.91,-3.393Z" style="fill:#4f5562;fill-opacity:0.34;"/><path d="M1208.816,788.402c0.89,3.3 0.798,3.043 0.89,3.3c0.544,1.517 0.722,1.111 1.37,2.918c-0.461,0.652 -0.921,1.304 -1.382,1.956c-0.293,-2.725 -0.585,-5.449 -0.878,-8.174Z" style="fill:#5d6066;fill-opacity:0.15;"/><path d="M859.588,1492.882c0.821,2.638 0.652,2.269 0.695,4.668l-1.542,1.794c0.282,-2.154 0.565,-4.308 0.847,-6.462Z" style="fill:#4e545f;fill-opacity:0.36;"/><path d="M268.33,1309.583l0.823,1.529c-0.597,1.696 -1.195,3.393 -1.792,5.089c-0.582,-3.632 -0.345,-3.443 0.969,-6.618Z" style="fill:#4b556c;fill-opacity:0.45;"/><path d="M1671.705,889.96c0.627,3.384 0.502,3.207 -0.982,6.604l-0.809,-1.571c0.597,-1.678 1.194,-3.355 1.791,-5.033Z" style="fill:#4c556b;fill-opacity:0.44;"/><path d="M994.078,1317.732c0.545,2.193 1.09,4.385 1.635,6.578c-0.692,-0.471 -1.384,-0.942 -2.076,-1.412c0.147,-1.722 0.294,-3.444 0.441,-5.165Z" style="fill:#5d6b88;fill-opacity:0.41;"/><path d="M371.269,1219.629c-0.32,2.164 -0.64,4.328 -0.961,6.492c-0.713,-2.257 -0.804,-1.961 -0.561,-4.568l1.522,-1.924Z" style="fill:#454c5f;fill-opacity:0.42;"/><path d="M887.444,1392.807c0.593,3.368 0.481,3.196 -0.89,6.587l-0.759,-1.508c0.549,-1.693 1.099,-3.386 1.648,-5.079Z" style="fill:#424d62;fill-opacity:0.47;"/><path d="M378.263,410.172c0.544,1.647 1.088,3.294 1.632,4.941c-0.792,-0.413 -1.583,-0.825 -2.375,-1.238l0.743,-3.703Z" style="fill:#69738b;fill-opacity:0.31;"/><path d="M836.072,1299.316l4.431,0.658l-1.617,0.978l-3.645,0.559l0.832,-2.194Z" style="fill:#595f77;fill-opacity:0.18;"/><path d="M439.305,958.209c-0.43,3.725 -0.542,3.317 -1.642,6.681c0.124,-1.594 0.247,-3.189 0.371,-4.783l1.271,-1.898Z" style="fill:#404759;fill-opacity:0.43;"/><path d="M180.154,1636.105c0.822,4.189 0.788,3.965 1.222,8.159l-1.146,-1.642c-0.025,-2.172 -0.051,-4.345 -0.076,-6.517Z" style="fill:#414654;fill-opacity:0.23;"/><path d="M1653.349,959.952c0.362,2.197 0.723,4.394 1.085,6.591c-0.563,-1.709 -1.125,-3.417 -1.688,-5.126l0.603,-1.464Z" style="fill:#595c61;fill-opacity:0.13;"/><path d="M844.484,1555.95c0.339,4.98 -1.565,5.015 -1.697,5.189c0.566,-1.73 1.131,-3.459 1.697,-5.189Z" style="fill:#4a546d;fill-opacity:0.54;"/><path d="M1723.451,685.19c-0.781,3.846 -0.426,3.543 -1.713,6.638c0.24,-3.741 0.14,-3.536 1.713,-6.638Z" style="fill:#333d4f;fill-opacity:0.41;"/><path d="M1692.801,1586.112c2.582,1.072 2.257,1.04 3.288,3.432c-1.096,-1.144 -2.192,-2.288 -3.288,-3.432Z" style="fill:#808ca5;fill-opacity:0.46;"/><path d="M874.475,1302.783c0.427,3.532 0.425,3.219 -0.024,6.708c-0.38,-3.583 -0.559,-3.24 0.024,-6.708Z" style="fill:#4f5158;fill-opacity:0.11;"/><path d="M1737.845,1635.999c0.323,0.009 0.063,-0.037 5.081,1.596l-3.489,0.13l-1.592,-1.726Z" style="fill:#5f636b;fill-opacity:0.24;"/><path d="M853.622,1517.591l1.281,1.696c0.007,1.609 0.014,3.219 0.021,4.828c-0.872,-3.231 -0.923,-3.018 -1.302,-6.524Z" style="fill:#444b5b;fill-opacity:0.2;"/><path d="M1459.857,1126.277l3.646,0.662c-1.76,0.359 -3.52,0.718 -5.28,1.077c0.545,-0.579 1.089,-1.159 1.634,-1.738Z" style="fill:#3b404e;fill-opacity:0.25;"/><path d="M885.796,1397.886l0.759,1.508l0.328,5.061c-1.344,-3.229 -1.087,-3.047 -1.087,-6.568Z" style="fill:#444954;fill-opacity:0.2;"/><path d="M1221.764,750.076c-0.44,3.666 -0.236,3.403 -1.54,6.679l0.118,-3.258c0.474,-1.14 0.948,-2.28 1.422,-3.42Z" style="fill:#38404d;fill-opacity:0.42;"/><path d="M1454.915,1234.605c0.62,3.309 0.88,3.084 0.169,6.603c0.081,-3.46 -0.333,-3.189 -0.169,-6.603Z" style="fill:#4b525e;fill-opacity:0.23;"/><path d="M844.415,1262.935c-0.578,2.743 -0.189,2.518 -1.764,5.089c0.588,-1.696 1.176,-3.393 1.764,-5.089Z" style="fill:#3b4455;fill-opacity:0.44;"/><path d="M366.606,1228.135c0.478,2.172 0.956,4.343 1.434,6.515l-1.435,-1.644l0.001,-4.871Z" style="fill:#3b404e;fill-opacity:0.26;"/><path d="M223.418,1472.93c0.345,2.7 0.689,5.399 1.034,8.099l-0.915,-1.642c-0.039,-2.152 -0.079,-4.305 -0.118,-6.457Z" style="fill:#444b5b;fill-opacity:0.26;"/><path d="M474.537,811.671c0.479,1.68 0.958,3.361 1.438,5.041l-0.486,1.541c-0.317,-2.194 -0.635,-4.388 -0.952,-6.582Z" style="fill:#4e525a;fill-opacity:0.15;"/><path d="M1536.408,1076.249c1.228,0.246 2.457,0.492 3.685,0.738c-1.82,0.262 -3.639,0.523 -5.459,0.785c0.591,-0.508 1.182,-1.015 1.773,-1.523Z" style="fill:#4d5160;fill-opacity:0.25;"/><path d="M1604.753,1031.435l3.614,0.578c-1.816,0.275 -3.631,0.549 -5.447,0.824c0.611,-0.467 1.222,-0.935 1.833,-1.402Z" style="fill:#414656;fill-opacity:0.27;"/><path d="M862.271,1486.053c1.08,3.385 1.105,3.165 -0.127,6.622c-0.001,-0.841 0.325,-0.462 0.324,-1.519c-0,-0.408 -0,0 -0.197,-5.102Z" style="fill:#4a505c;fill-opacity:0.23;"/><path d="M1433.24,1166.35c0.634,3.396 0.945,3.094 0.38,6.542l-0.209,-1.587c0.047,-2.5 -0.244,-2.26 -0.171,-4.955Z" style="fill:#494d58;fill-opacity:0.24;"/><path d="M213.1,1524.426c-0.869,1.605 -1.738,3.21 -2.606,4.815c0.869,-1.605 1.738,-3.21 2.606,-4.815Z" style="fill:#6a7385;fill-opacity:0.47;"/><path d="M835.657,1585.968c0.663,4.003 0.777,3.801 0.872,8.037c-0.313,-2.137 -0.627,-4.273 -0.94,-6.41l0.067,-1.627Z" style="fill:#414756;fill-opacity:0.28;"/><path d="M1050.317,1510.995l1.64,0.015c0.074,1.632 0.149,3.265 0.223,4.897c-0.621,-1.637 -1.242,-3.275 -1.863,-4.912Z" style="fill:#444b5a;fill-opacity:0.22;"/><path d="M431.029,984.901c-0.085,3.479 -0.36,3.191 -0.428,6.534c-0.571,-3.471 -0.29,-3.228 0.428,-6.534Z" style="fill:#484c58;fill-opacity:0.24;"/><path d="M902.657,1334.486c0.173,2.17 0.346,4.34 0.519,6.51c-0.339,-1.609 -0.677,-3.218 -1.016,-4.827l0.497,-1.683Z" style="fill:#333948;fill-opacity:0.21;"/><path d="M220.964,1650.891c-0.61,1.65 -1.22,3.3 -1.829,4.95c0.61,-1.65 1.22,-3.3 1.829,-4.95Z" style="fill:#525a70;fill-opacity:0.54;"/><path d="M389.911,1136.564c0.461,2.166 0.922,4.332 1.383,6.497l-1.399,-1.688c0.005,-1.603 0.01,-3.206 0.016,-4.809Z" style="fill:#464f63;fill-opacity:0.26;"/><path d="M366.02,1234.625c0.269,1.568 0.538,3.136 0.807,4.704l-0.71,0.297c-0.984,-2.523 -0.977,-2.437 -0.097,-5.001Z" style="fill:#575b63;fill-opacity:0.23;"/><path d="M1003.717,1349.484c0.566,1.659 1.132,3.319 1.697,4.978c-0.566,-1.659 -1.132,-3.319 -1.697,-4.978Z" style="fill:#4f5a74;fill-opacity:0.64;"/><path d="M1696.699,790.064c-0.712,1.644 -1.425,3.288 -2.137,4.932c0.712,-1.644 1.425,-3.288 2.137,-4.932Z" style="fill:#515a6e;fill-opacity:0.53;"/><path d="M1669.913,894.993l0.809,1.571l0.102,4.855c-0.304,-2.142 -0.608,-4.284 -0.911,-6.426Z" style="fill:#3a4355;fill-opacity:0.28;"/><path d="M459.308,883.312c-0.682,1.649 -1.364,3.298 -2.046,4.947c0.682,-1.649 1.364,-3.298 2.046,-4.947Z" style="fill:#475269;fill-opacity:0.57;"/><path d="M269.164,1306.065c-0.003,1.682 -0.007,3.364 -0.01,5.047l-0.823,-1.529c0.278,-1.173 0.555,-2.345 0.833,-3.518Z" style="fill:#414857;fill-opacity:0.25;"/><path d="M482.223,791.701c-1.912,6.145 -1.412,6.132 -1.616,6.639c0.003,-0.027 -1.206,-0.207 1.616,-6.639Z" style="fill:#272d3b;fill-opacity:0.41;"/><path d="M1825.951,556.637c-1.268,2.255 -1.043,2.131 -3.408,3.316l3.408,-3.316Z" style="fill:#767f93;fill-opacity:0.46;"/><path d="M386.527,1149.862c0.326,2.154 0.651,4.308 0.977,6.462l-0.994,-1.617l0.017,-4.845Z" style="fill:#474d61;fill-opacity:0.26;"/><path d="M249.975,1374.623c0.528,1.631 1.055,3.261 1.583,4.892l-1.519,-1.666l-0.064,-3.226Z" style="fill:#3a4152;fill-opacity:0.23;"/><path d="M438.213,951.8c0.754,3.896 0.826,3.661 1.092,6.409c-0.839,-3.17 -1.069,-2.754 -1.092,-6.409Z" style="fill:#4f586d;fill-opacity:0.26;"/><path d="M962.328,805.083l0.75,1.435l-2.75,3.479c1.444,-2.601 0.625,-2.61 2.001,-4.914Z" style="fill:#424a5b;fill-opacity:0.41;"/><path d="M842.612,1562.703c0.3,1.648 0.6,3.295 0.9,4.943c-0.973,-2.581 -1.071,-2.352 -0.9,-4.943Z" style="fill:#4a4d57;fill-opacity:0.17;"/><path d="M1800.985,581.624c-1.287,2.174 -1.017,2.096 -3.392,3.33l3.392,-3.33Z" style="fill:#788294;fill-opacity:0.45;"/><path d="M1046.745,1492.73c1.27,2.363 0.576,2.357 1.956,4.933l-2.732,-3.49l0.776,-1.444Z" style="fill:#404955;fill-opacity:0.43;"/><path d="M198.468,1567.844c0.315,2.142 0.631,4.283 0.946,6.425c-0.738,-3.206 -0.904,-2.985 -0.946,-6.425Z" style="fill:#484e5f;fill-opacity:0.29;"/><path d="M824.483,1632.623c0.541,2.602 0.414,2.437 0.068,4.951c-0.023,-1.65 -0.045,-3.301 -0.068,-4.951Z" style="fill:#515661;fill-opacity:0.22;"/><path d="M217.94,1499.402c-0.109,3.285 -0.092,3.023 -0.109,3.285c-0.054,0.824 -0.288,0.395 -0.367,1.61c-0.623,-2.493 -0.56,-2.263 0.476,-4.895Z" style="fill:#5e636e;fill-opacity:0.22;"/><path d="M447.978,613.379c-1.133,4.864 -0.969,4.792 -1.098,5.197c-0.251,-2.934 0.058,-2.621 1.098,-5.197Z" style="fill:#3a4358;fill-opacity:0.15;"/><path d="M1216.926,763.441c-0.007,0.394 -0.19,0.157 -0.412,4.909c-0.633,-2.504 -0.573,-2.272 0.412,-4.909Z" style="fill:#5d636e;fill-opacity:0.21;"/><path d="M890.466,1214.064c3.336,-0.682 3.113,-0.726 6.667,0l-6.667,-0Z" style="fill:#3d4252;fill-opacity:0.17;"/><path d="M1226.037,723.404c-0.021,1.682 -0.042,3.365 -0.063,5.047c0.021,-1.682 0.042,-3.365 0.063,-5.047Z" style="fill:#3f495c;fill-opacity:0.18;"/><path d="M1073.292,1582.664c-0.331,1.652 -0.662,3.305 -0.993,4.957c0.331,-1.652 0.662,-3.305 0.993,-4.957Z" style="fill:#4f5562;fill-opacity:0.14;"/><path d="M430.07,563.425l0.787,1.853c0.062,1.086 0.124,2.173 0.186,3.259c-0.324,-1.704 -0.649,-3.408 -0.973,-5.112Z" style="fill:#4b505e;fill-opacity:0.24;"/><path d="M1620.855,1494.487c-0.324,1.605 -0.648,3.21 -0.972,4.814c0.324,-1.605 0.648,-3.21 0.972,-4.814Z" style="fill:#313849;fill-opacity:0.25;"/><path d="M484.843,773.598c0.381,1.596 0.761,3.191 1.142,4.787c-0.381,-1.596 -0.761,-3.191 -1.142,-4.787Z" style="fill:#454c5d;fill-opacity:0.27;"/><path d="M1524.991,341.989l1.453,0.218c0.571,0.544 1.141,1.088 1.712,1.632c-1.887,-0.648 -1.694,-0.541 -3.165,-1.85Z" style="fill:#434a59;fill-opacity:0.44;"/><path d="M858.741,1499.345c0.391,1.602 0.781,3.203 1.172,4.805c-0.391,-1.602 -0.781,-3.203 -1.172,-4.805Z" style="fill:#434b61;fill-opacity:0.27;"/><path d="M1706.51,760.11l-0.758,4.749c0.253,-1.583 0.505,-3.166 0.758,-4.749Z" style="fill:#606062;fill-opacity:0.04;"/><path d="M252.28,1365.971c0.228,1.971 0.033,1.702 -0.56,5.204c0.187,-1.735 0.373,-3.469 0.56,-5.204Z" style="fill:#4c5469;fill-opacity:0.16;"/><path d="M1643.949,1001.483c0.041,1.592 0.083,3.184 0.124,4.777c-0.273,-1.033 -0.547,-2.066 -0.82,-3.099l0.696,-1.678Z" style="fill:#414a5a;fill-opacity:0.23;"/><path d="M893.164,1374.49l0.27,5.003c-0.742,-2.607 -0.747,-2.313 -0.27,-5.003Z" style="fill:#3c414a;fill-opacity:0.18;"/><path d="M379.609,1176.322c0.076,1.638 0.151,3.276 0.227,4.914l-0.227,-4.914Z" style="fill:#5b5c5d;fill-opacity:0.04;"/><path d="M461.303,863.308c0.828,2.673 0.714,2.403 0.266,5.035l-0.266,-5.035Z" style="fill:#353a47;fill-opacity:0.21;"/><path d="M500.436,696.898c-0.137,1.61 -0.275,3.219 -0.412,4.829c-0.181,-2.62 -0.179,-2.292 0.412,-4.829Z" style="fill:#353f4f;fill-opacity:0.29;"/><path d="M439.218,586.911c-0.284,2.65 -0.251,2.314 -1.234,4.989c0.411,-1.663 0.823,-3.326 1.234,-4.989Z" style="fill:#323747;fill-opacity:0.25;"/><path d="M499.569,713.415c0.72,2.559 0.572,2.396 0.227,4.989l-0.227,-4.989Z" style="fill:#424650;fill-opacity:0.16;"/><path d="M369.748,1214.622c0.507,1.669 1.014,3.338 1.521,5.006c-0.507,-1.669 -1.014,-3.338 -1.521,-5.006Z" style="fill:#343b4d;fill-opacity:0.25;"/><path d="M979.182,743.387c0.206,1.611 0.412,3.222 0.618,4.833c-0.206,-1.611 -0.412,-3.222 -0.618,-4.833Z" style="fill:#636a7d;fill-opacity:0.19;"/><path d="M1601.171,1452.844l1.574,1.704l0.429,1.477c-0.668,-1.06 -1.335,-2.121 -2.003,-3.181Z" style="fill:#1f2838;fill-opacity:0.44;"/></g></svg>